solid JacktheRipperBot-Toolhead-1-GripperFixed-1
 facet normal 0.000000 -0.805975 0.591949
  outer loop
   vertex 14.665405 -187.841797 75.005516
   vertex 14.665405 -187.296204 75.748375
   vertex 14.603745 -187.841797 75.005516
  endloop
 endfacet
 facet normal -0.001869 -0.805900 0.592049
  outer loop
   vertex 14.603745 -187.841797 75.005516
   vertex 14.665405 -187.296204 75.748375
   vertex 14.603745 -187.294693 75.750237
  endloop
 endfacet
 facet normal 0.002965 -0.726193 0.687484
  outer loop
   vertex 14.603745 -187.294693 75.750237
   vertex 14.665405 -187.296204 75.748375
   vertex 14.665405 -186.662598 76.417656
  endloop
 endfacet
 facet normal 0.004411 -0.634875 0.772603
  outer loop
   vertex 14.603745 -186.658997 76.420967
   vertex 14.665405 -186.662598 76.417656
   vertex 14.665405 -185.947998 77.004868
  endloop
 endfacet
 facet normal 0.004023 -0.533588 0.845735
  outer loop
   vertex 14.603745 -185.944702 77.007240
   vertex 14.665405 -185.947998 77.004868
   vertex 14.665405 -185.165802 77.498367
  endloop
 endfacet
 facet normal 0.003448 -0.423885 0.905709
  outer loop
   vertex 14.603745 -185.162994 77.499916
   vertex 14.665405 -185.165802 77.498367
   vertex 14.665405 -184.328094 77.890427
  endloop
 endfacet
 facet normal 0.002695 -0.307621 0.951505
  outer loop
   vertex 14.603745 -184.325897 77.891312
   vertex 14.665405 -184.328094 77.890427
   vertex 14.665405 -183.448105 78.174927
  endloop
 endfacet
 facet normal 0.001475 -0.186492 0.982455
  outer loop
   vertex 14.603745 -183.446503 78.175323
   vertex 14.665405 -183.448105 78.174927
   vertex 14.665405 -182.539398 78.347420
  endloop
 endfacet
 facet normal 0.000925 -0.062499 0.998045
  outer loop
   vertex 14.603745 -182.538605 78.347527
   vertex 14.665405 -182.539398 78.347420
   vertex 14.665405 -181.616394 78.405220
  endloop
 endfacet
 facet normal 0.000000 0.062493 0.998045
  outer loop
   vertex 14.603745 -181.616394 78.405220
   vertex 14.665405 -181.616394 78.405220
   vertex 14.665405 -180.693298 78.347420
  endloop
 endfacet
 facet normal -0.000744 0.186495 0.982456
  outer loop
   vertex 14.603745 -180.694107 78.347527
   vertex 14.665405 -180.693298 78.347420
   vertex 14.665405 -179.784607 78.174927
  endloop
 endfacet
 facet normal -0.001795 0.307617 0.951509
  outer loop
   vertex 14.603745 -179.786194 78.175323
   vertex 14.665405 -179.784607 78.174927
   vertex 14.665405 -178.904602 77.890427
  endloop
 endfacet
 facet normal -0.002106 0.423887 0.905713
  outer loop
   vertex 14.603745 -178.906799 77.891312
   vertex 14.665405 -178.904602 77.890427
   vertex 14.665405 -178.066895 77.498367
  endloop
 endfacet
 facet normal -0.003053 0.533589 0.845738
  outer loop
   vertex 14.603745 -178.069702 77.499916
   vertex 14.665405 -178.066895 77.498367
   vertex 14.665405 -177.284698 77.004868
  endloop
 endfacet
 facet normal -0.004205 0.634875 0.772603
  outer loop
   vertex 14.603745 -177.287994 77.007240
   vertex 14.665405 -177.284698 77.004868
   vertex 14.665405 -176.570099 76.417656
  endloop
 endfacet
 facet normal -0.005493 0.726185 0.687477
  outer loop
   vertex 14.603745 -176.573700 76.420967
   vertex 14.665405 -176.570099 76.417656
   vertex 14.665405 -175.936493 75.748375
  endloop
 endfacet
 facet normal -0.001874 0.805974 0.591948
  outer loop
   vertex 14.603745 -175.938004 75.750237
   vertex 14.665405 -175.936493 75.748375
   vertex 14.665405 -175.390900 75.005516
  endloop
 endfacet
 facet normal 0.000000 0.805901 0.592050
  outer loop
   vertex 14.603745 -175.390900 75.005516
   vertex 14.603745 -175.938004 75.750237
   vertex 14.665405 -175.390900 75.005516
  endloop
 endfacet
 facet normal 0.002986 0.725805 0.687894
  outer loop
   vertex 14.603745 -175.938004 75.750237
   vertex 14.603745 -176.573700 76.420967
   vertex 14.665405 -175.936493 75.748375
  endloop
 endfacet
 facet normal 0.004456 0.634430 0.772967
  outer loop
   vertex 14.603745 -176.573700 76.420967
   vertex 14.603745 -177.287994 77.007240
   vertex 14.665405 -176.570099 76.417656
  endloop
 endfacet
 facet normal 0.004054 0.533188 0.845987
  outer loop
   vertex 14.603745 -177.287994 77.007240
   vertex 14.603745 -178.069702 77.499916
   vertex 14.665405 -177.284698 77.004868
  endloop
 endfacet
 facet normal 0.003468 0.423549 0.905866
  outer loop
   vertex 14.603745 -178.069702 77.499916
   vertex 14.603745 -178.906799 77.891312
   vertex 14.665405 -178.066895 77.498367
  endloop
 endfacet
 facet normal 0.002707 0.307331 0.951599
  outer loop
   vertex 14.603745 -178.906799 77.891312
   vertex 14.603745 -179.786194 78.175323
   vertex 14.665405 -178.904602 77.890427
  endloop
 endfacet
 facet normal 0.001525 0.186347 0.982483
  outer loop
   vertex 14.603745 -179.786194 78.175323
   vertex 14.603745 -180.694107 78.347527
   vertex 14.665405 -179.784607 78.174927
  endloop
 endfacet
 facet normal 0.000910 0.062433 0.998049
  outer loop
   vertex 14.603745 -180.694107 78.347527
   vertex 14.603745 -181.616394 78.405220
   vertex 14.665405 -180.693298 78.347420
  endloop
 endfacet
 facet normal 0.000000 -0.062438 0.998049
  outer loop
   vertex 14.603745 -181.616394 78.405220
   vertex 14.603745 -182.538605 78.347527
   vertex 14.665405 -181.616394 78.405220
  endloop
 endfacet
 facet normal -0.000696 -0.186350 0.982483
  outer loop
   vertex 14.603745 -182.538605 78.347527
   vertex 14.603745 -183.446503 78.175323
   vertex 14.665405 -182.539398 78.347420
  endloop
 endfacet
 facet normal -0.001863 -0.307332 0.951601
  outer loop
   vertex 14.603745 -183.446503 78.175323
   vertex 14.603745 -184.325897 77.891312
   vertex 14.665405 -183.448105 78.174927
  endloop
 endfacet
 facet normal -0.002091 -0.423551 0.905870
  outer loop
   vertex 14.603745 -184.325897 77.891312
   vertex 14.603745 -185.162994 77.499916
   vertex 14.665405 -184.328094 77.890427
  endloop
 endfacet
 facet normal -0.003029 -0.533190 0.845990
  outer loop
   vertex 14.603745 -185.162994 77.499916
   vertex 14.603745 -185.944702 77.007240
   vertex 14.665405 -185.165802 77.498367
  endloop
 endfacet
 facet normal -0.004167 -0.634431 0.772968
  outer loop
   vertex 14.603745 -185.944702 77.007240
   vertex 14.603745 -186.658997 76.420967
   vertex 14.665405 -185.947998 77.004868
  endloop
 endfacet
 facet normal -0.005448 -0.725797 0.687887
  outer loop
   vertex 14.603745 -186.658997 76.420967
   vertex 14.603745 -187.294693 75.750237
   vertex 14.665405 -186.662598 76.417656
  endloop
 endfacet
 facet normal 1.000000 0.000000 0.000000
  outer loop
   vertex 14.603745 -175.390900 75.005516
   vertex 14.603745 -175.387100 75.005516
   vertex 14.603745 -175.938004 75.750237
  endloop
 endfacet
 facet normal 1.000000 0.000000 0.000000
  outer loop
   vertex 14.603745 -175.938004 75.750237
   vertex 14.603745 -175.387100 75.005516
   vertex 14.603745 -175.934402 75.750916
  endloop
 endfacet
 facet normal 1.000000 0.000000 0.000000
  outer loop
   vertex 14.603745 -176.573700 76.420967
   vertex 14.603745 -175.934402 75.750916
   vertex 14.603745 -176.570297 76.422272
  endloop
 endfacet
 facet normal 1.000000 0.000000 0.000000
  outer loop
   vertex 14.603745 -177.287994 77.007240
   vertex 14.603745 -176.570297 76.422272
   vertex 14.603745 -177.285004 77.009102
  endloop
 endfacet
 facet normal 1.000000 0.000000 0.000000
  outer loop
   vertex 14.603745 -178.069702 77.499916
   vertex 14.603745 -177.285004 77.009102
   vertex 14.603745 -178.067307 77.502258
  endloop
 endfacet
 facet normal 1.000000 0.000000 0.000000
  outer loop
   vertex 14.603745 -178.906799 77.891312
   vertex 14.603745 -178.067307 77.502258
   vertex 14.603745 -178.904907 77.894035
  endloop
 endfacet
 facet normal 1.000000 0.000000 0.000000
  outer loop
   vertex 14.603745 -179.786194 78.175323
   vertex 14.603745 -178.904907 77.894035
   vertex 14.603745 -179.784897 78.178329
  endloop
 endfacet
 facet normal 1.000000 0.000000 0.000000
  outer loop
   vertex 14.603745 -180.694107 78.347527
   vertex 14.603745 -179.784897 78.178329
   vertex 14.603745 -180.693405 78.350700
  endloop
 endfacet
 facet normal 1.000000 0.000000 0.000000
  outer loop
   vertex 14.603745 -181.616394 78.405220
   vertex 14.603745 -180.693405 78.350700
   vertex 14.603745 -181.616394 78.408455
  endloop
 endfacet
 facet normal 1.000000 0.000000 0.000000
  outer loop
   vertex 14.603745 -182.539307 78.350700
   vertex 14.603745 -181.616394 78.405220
   vertex 14.603745 -181.616394 78.408455
  endloop
 endfacet
 facet normal 1.000000 0.000000 0.000000
  outer loop
   vertex 14.603745 -182.539307 78.350700
   vertex 14.603745 -182.538605 78.347527
   vertex 14.603745 -181.616394 78.405220
  endloop
 endfacet
 facet normal 1.000000 0.000000 0.000000
  outer loop
   vertex 14.603745 -182.539307 78.350700
   vertex 14.603745 -183.447800 78.178329
   vertex 14.603745 -182.538605 78.347527
  endloop
 endfacet
 facet normal 1.000000 0.000000 0.000000
  outer loop
   vertex 14.603745 -182.538605 78.347527
   vertex 14.603745 -183.447800 78.178329
   vertex 14.603745 -183.446503 78.175323
  endloop
 endfacet
 facet normal 1.000000 0.000000 0.000000
  outer loop
   vertex 14.603745 -183.446503 78.175323
   vertex 14.603745 -183.447800 78.178329
   vertex 14.603745 -184.327805 77.894035
  endloop
 endfacet
 facet normal 1.000000 0.000000 0.000000
  outer loop
   vertex 14.603745 -184.325897 77.891312
   vertex 14.603745 -184.327805 77.894035
   vertex 14.603745 -185.165405 77.502258
  endloop
 endfacet
 facet normal 1.000000 0.000000 0.000000
  outer loop
   vertex 14.603745 -185.162994 77.499916
   vertex 14.603745 -185.165405 77.502258
   vertex 14.603745 -185.947693 77.009102
  endloop
 endfacet
 facet normal 1.000000 0.000000 0.000000
  outer loop
   vertex 14.603745 -185.944702 77.007240
   vertex 14.603745 -185.947693 77.009102
   vertex 14.603745 -186.662399 76.422272
  endloop
 endfacet
 facet normal 1.000000 0.000000 0.000000
  outer loop
   vertex 14.603745 -186.658997 76.420967
   vertex 14.603745 -186.662399 76.422272
   vertex 14.603745 -187.298294 75.750916
  endloop
 endfacet
 facet normal 1.000000 0.000000 0.000000
  outer loop
   vertex 14.603745 -187.294693 75.750237
   vertex 14.603745 -187.298294 75.750916
   vertex 14.603745 -187.845596 75.005516
  endloop
 endfacet
 facet normal 1.000000 0.000000 0.000000
  outer loop
   vertex 14.603745 -187.841797 75.005516
   vertex 14.603745 -187.294693 75.750237
   vertex 14.603745 -187.845596 75.005516
  endloop
 endfacet
 facet normal 1.000000 0.000000 0.000000
  outer loop
   vertex 14.603745 -187.294693 75.750237
   vertex 14.603745 -186.658997 76.420967
   vertex 14.603745 -187.298294 75.750916
  endloop
 endfacet
 facet normal 1.000000 0.000000 0.000000
  outer loop
   vertex 14.603745 -186.658997 76.420967
   vertex 14.603745 -185.944702 77.007240
   vertex 14.603745 -186.662399 76.422272
  endloop
 endfacet
 facet normal 1.000000 0.000000 0.000000
  outer loop
   vertex 14.603745 -185.944702 77.007240
   vertex 14.603745 -185.162994 77.499916
   vertex 14.603745 -185.947693 77.009102
  endloop
 endfacet
 facet normal 1.000000 0.000000 0.000000
  outer loop
   vertex 14.603745 -185.162994 77.499916
   vertex 14.603745 -184.325897 77.891312
   vertex 14.603745 -185.165405 77.502258
  endloop
 endfacet
 facet normal 1.000000 0.000000 0.000000
  outer loop
   vertex 14.603745 -184.325897 77.891312
   vertex 14.603745 -183.446503 78.175323
   vertex 14.603745 -184.327805 77.894035
  endloop
 endfacet
 facet normal 1.000000 0.000000 0.000000
  outer loop
   vertex 14.603745 -181.616394 78.405220
   vertex 14.603745 -180.694107 78.347527
   vertex 14.603745 -180.693405 78.350700
  endloop
 endfacet
 facet normal 1.000000 0.000000 0.000000
  outer loop
   vertex 14.603745 -180.694107 78.347527
   vertex 14.603745 -179.786194 78.175323
   vertex 14.603745 -179.784897 78.178329
  endloop
 endfacet
 facet normal 1.000000 0.000000 0.000000
  outer loop
   vertex 14.603745 -179.786194 78.175323
   vertex 14.603745 -178.906799 77.891312
   vertex 14.603745 -178.904907 77.894035
  endloop
 endfacet
 facet normal 1.000000 0.000000 0.000000
  outer loop
   vertex 14.603745 -178.906799 77.891312
   vertex 14.603745 -178.069702 77.499916
   vertex 14.603745 -178.067307 77.502258
  endloop
 endfacet
 facet normal 1.000000 0.000000 0.000000
  outer loop
   vertex 14.603745 -178.069702 77.499916
   vertex 14.603745 -177.287994 77.007240
   vertex 14.603745 -177.285004 77.009102
  endloop
 endfacet
 facet normal 1.000000 0.000000 0.000000
  outer loop
   vertex 14.603745 -177.287994 77.007240
   vertex 14.603745 -176.573700 76.420967
   vertex 14.603745 -176.570297 76.422272
  endloop
 endfacet
 facet normal 1.000000 0.000000 0.000000
  outer loop
   vertex 14.603745 -176.573700 76.420967
   vertex 14.603745 -175.938004 75.750237
   vertex 14.603745 -175.934402 75.750916
  endloop
 endfacet
 facet normal 0.000000 0.000000 -1.000000
  outer loop
   vertex 14.603745 -175.387100 75.005516
   vertex 14.603745 -175.390900 75.005516
   vertex -0.248253 -174.479599 75.005516
  endloop
 endfacet
 facet normal 0.000000 0.000000 -1.000000
  outer loop
   vertex -0.248253 -174.479599 75.005516
   vertex 14.603745 -175.390900 75.005516
   vertex -0.248253 -179.116394 75.005516
  endloop
 endfacet
 facet normal 0.000000 0.000000 -1.000000
  outer loop
   vertex -5.248253 -179.116394 75.005516
   vertex -0.248253 -174.479599 75.005516
   vertex -0.248253 -179.116394 75.005516
  endloop
 endfacet
 facet normal 0.000000 0.000000 -1.000000
  outer loop
   vertex -5.248253 -179.116394 75.005516
   vertex -5.248253 -174.427307 75.005516
   vertex -0.248253 -174.479599 75.005516
  endloop
 endfacet
 facet normal 0.000000 0.000000 -1.000000
  outer loop
   vertex -0.248253 -174.479599 75.005516
   vertex -5.248253 -174.427307 75.005516
   vertex -0.248253 -174.427307 75.005516
  endloop
 endfacet
 facet normal 0.000000 0.000000 -1.000000
  outer loop
   vertex 14.665405 -175.390900 75.005516
   vertex 16.157074 -178.048706 75.005516
   vertex 14.603745 -175.390900 75.005516
  endloop
 endfacet
 facet normal 0.000000 0.000000 -1.000000
  outer loop
   vertex 14.603745 -175.390900 75.005516
   vertex 16.157074 -178.048706 75.005516
   vertex -0.248253 -179.116394 75.005516
  endloop
 endfacet
 facet normal 0.000000 0.000000 -1.000000
  outer loop
   vertex -0.248253 -179.116394 75.005516
   vertex 16.157074 -178.048706 75.005516
   vertex 16.816742 -179.567398 75.005516
  endloop
 endfacet
 facet normal 0.000000 0.000000 -1.000000
  outer loop
   vertex -0.248253 -182.116394 75.005516
   vertex 16.816742 -179.567398 75.005516
   vertex 17.119354 -180.668106 75.005516
  endloop
 endfacet
 facet normal 0.000000 0.000000 -1.000000
  outer loop
   vertex 17.185814 -181.140793 75.005516
   vertex -0.248253 -182.116394 75.005516
   vertex 17.119354 -180.668106 75.005516
  endloop
 endfacet
 facet normal 0.000000 0.000000 -1.000000
  outer loop
   vertex 17.185814 -181.140793 75.005516
   vertex 17.208572 -181.616394 75.005516
   vertex -0.248253 -182.116394 75.005516
  endloop
 endfacet
 facet normal 0.000000 0.000000 -1.000000
  outer loop
   vertex -0.248253 -182.116394 75.005516
   vertex 17.208572 -181.616394 75.005516
   vertex 17.185837 -182.091797 75.005516
  endloop
 endfacet
 facet normal 0.000000 0.000000 -1.000000
  outer loop
   vertex 17.119347 -182.564606 75.005516
   vertex -0.248253 -182.116394 75.005516
   vertex 17.185837 -182.091797 75.005516
  endloop
 endfacet
 facet normal 0.000000 0.000000 -1.000000
  outer loop
   vertex 17.119347 -182.564606 75.005516
   vertex 16.816734 -183.665298 75.005516
   vertex -0.248253 -182.116394 75.005516
  endloop
 endfacet
 facet normal 0.000000 0.000000 -1.000000
  outer loop
   vertex -0.248253 -182.116394 75.005516
   vertex 16.816734 -183.665298 75.005516
   vertex 16.156212 -185.185303 75.005516
  endloop
 endfacet
 facet normal 0.000000 0.000000 -1.000000
  outer loop
   vertex 14.603745 -187.841797 75.005516
   vertex 16.156212 -185.185303 75.005516
   vertex 14.665405 -187.841797 75.005516
  endloop
 endfacet
 facet normal 0.000000 0.000000 -1.000000
  outer loop
   vertex 14.603745 -187.841797 75.005516
   vertex -0.248253 -182.116394 75.005516
   vertex 16.156212 -185.185303 75.005516
  endloop
 endfacet
 facet normal 0.000000 0.000000 -1.000000
  outer loop
   vertex 14.603745 -187.841797 75.005516
   vertex 2.751747 -188.572296 75.005516
   vertex -0.248253 -182.116394 75.005516
  endloop
 endfacet
 facet normal 0.000000 0.000000 -1.000000
  outer loop
   vertex 14.603745 -187.841797 75.005516
   vertex 14.603745 -187.845596 75.005516
   vertex 2.751747 -188.572296 75.005516
  endloop
 endfacet
 facet normal 0.000000 0.000000 -1.000000
  outer loop
   vertex -1.593407 -190.205704 75.005516
   vertex -1.552086 -190.090195 75.005516
   vertex 2.751747 -192.227295 75.005516
  endloop
 endfacet
 facet normal 0.000000 0.000000 -1.000000
  outer loop
   vertex -1.645859 -190.316605 75.005516
   vertex 2.751747 -192.227295 75.005516
   vertex -1.708916 -190.421799 75.005516
  endloop
 endfacet
 facet normal 0.000000 0.000000 -1.000000
  outer loop
   vertex -1.645859 -190.316605 75.005516
   vertex -1.593407 -190.205704 75.005516
   vertex 2.751747 -192.227295 75.005516
  endloop
 endfacet
 facet normal 0.000000 0.000000 -1.000000
  outer loop
   vertex -2.748253 -190.977295 75.005516
   vertex -2.625732 -190.971298 75.005516
   vertex -5.248253 -192.227295 75.005516
  endloop
 endfacet
 facet normal 0.000000 0.000000 -1.000000
  outer loop
   vertex -2.870773 -190.971298 75.005516
   vertex -5.248253 -192.227295 75.005516
   vertex -2.992119 -190.953293 75.005516
  endloop
 endfacet
 facet normal 0.000000 0.000000 -1.000000
  outer loop
   vertex -2.870773 -190.971298 75.005516
   vertex -2.748253 -190.977295 75.005516
   vertex -5.248253 -192.227295 75.005516
  endloop
 endfacet
 facet normal 0.000000 0.000000 -1.000000
  outer loop
   vertex -3.850655 -189.138107 75.005516
   vertex -3.903107 -189.248993 75.005516
   vertex -5.248253 -182.116394 75.005516
  endloop
 endfacet
 facet normal 0.000000 0.000000 -1.000000
  outer loop
   vertex -3.787598 -189.032898 75.005516
   vertex -5.248253 -182.116394 75.005516
   vertex -3.714516 -188.934402 75.005516
  endloop
 endfacet
 facet normal 0.000000 0.000000 -1.000000
  outer loop
   vertex -3.787598 -189.032898 75.005516
   vertex -3.850655 -189.138107 75.005516
   vertex -5.248253 -182.116394 75.005516
  endloop
 endfacet
 facet normal 0.000000 0.000000 -1.000000
  outer loop
   vertex -2.625732 -188.483398 75.005516
   vertex -2.748253 -188.477295 75.005516
   vertex -0.248253 -182.116394 75.005516
  endloop
 endfacet
 facet normal 0.000000 0.000000 -1.000000
  outer loop
   vertex -2.504395 -188.501404 75.005516
   vertex -0.248253 -182.116394 75.005516
   vertex -2.385406 -188.531204 75.005516
  endloop
 endfacet
 facet normal 0.000000 0.000000 -1.000000
  outer loop
   vertex -2.504395 -188.501404 75.005516
   vertex -2.625732 -188.483398 75.005516
   vertex -0.248253 -182.116394 75.005516
  endloop
 endfacet
 facet normal 0.000000 0.000000 -1.000000
  outer loop
   vertex -0.248253 -182.116394 75.005516
   vertex -0.248253 -179.116394 75.005516
   vertex 16.816742 -179.567398 75.005516
  endloop
 endfacet
 facet normal 0.000000 0.000000 -1.000000
  outer loop
   vertex -2.625732 -190.971298 75.005516
   vertex -2.504395 -190.953293 75.005516
   vertex -5.248253 -192.227295 75.005516
  endloop
 endfacet
 facet normal 0.000000 0.000000 -1.000000
  outer loop
   vertex -5.248253 -192.227295 75.005516
   vertex -2.504395 -190.953293 75.005516
   vertex 2.751747 -192.227295 75.005516
  endloop
 endfacet
 facet normal 0.000000 0.000000 -1.000000
  outer loop
   vertex 2.751747 -192.227295 75.005516
   vertex -2.504395 -190.953293 75.005516
   vertex -2.385406 -190.923492 75.005516
  endloop
 endfacet
 facet normal 0.000000 0.000000 -1.000000
  outer loop
   vertex -2.269905 -190.882202 75.005516
   vertex 2.751747 -192.227295 75.005516
   vertex -2.385406 -190.923492 75.005516
  endloop
 endfacet
 facet normal 0.000000 0.000000 -1.000000
  outer loop
   vertex -2.269905 -190.882202 75.005516
   vertex -2.159019 -190.829697 75.005516
   vertex 2.751747 -192.227295 75.005516
  endloop
 endfacet
 facet normal 0.000000 0.000000 -1.000000
  outer loop
   vertex 2.751747 -192.227295 75.005516
   vertex -2.159019 -190.829697 75.005516
   vertex -2.053795 -190.766693 75.005516
  endloop
 endfacet
 facet normal 0.000000 0.000000 -1.000000
  outer loop
   vertex -1.955269 -190.693604 75.005516
   vertex 2.751747 -192.227295 75.005516
   vertex -2.053795 -190.766693 75.005516
  endloop
 endfacet
 facet normal 0.000000 0.000000 -1.000000
  outer loop
   vertex -1.955269 -190.693604 75.005516
   vertex -1.864372 -190.611206 75.005516
   vertex 2.751747 -192.227295 75.005516
  endloop
 endfacet
 facet normal 0.000000 0.000000 -1.000000
  outer loop
   vertex 2.751747 -192.227295 75.005516
   vertex -1.864372 -190.611206 75.005516
   vertex -1.781998 -190.520294 75.005516
  endloop
 endfacet
 facet normal 0.000000 0.000000 -1.000000
  outer loop
   vertex -1.708916 -190.421799 75.005516
   vertex 2.751747 -192.227295 75.005516
   vertex -1.781998 -190.520294 75.005516
  endloop
 endfacet
 facet normal 0.000000 0.000000 -1.000000
  outer loop
   vertex -1.552086 -190.090195 75.005516
   vertex -1.522278 -189.971207 75.005516
   vertex 2.751747 -192.227295 75.005516
  endloop
 endfacet
 facet normal 0.000000 0.000000 -1.000000
  outer loop
   vertex 2.751747 -192.227295 75.005516
   vertex -1.522278 -189.971207 75.005516
   vertex 2.751747 -188.572296 75.005516
  endloop
 endfacet
 facet normal 0.000000 0.000000 -1.000000
  outer loop
   vertex 2.751747 -188.572296 75.005516
   vertex -1.522278 -189.971207 75.005516
   vertex -1.504272 -189.849899 75.005516
  endloop
 endfacet
 facet normal 0.000000 0.000000 -1.000000
  outer loop
   vertex -1.498253 -189.727295 75.005516
   vertex 2.751747 -188.572296 75.005516
   vertex -1.504272 -189.849899 75.005516
  endloop
 endfacet
 facet normal 0.000000 0.000000 -1.000000
  outer loop
   vertex -1.498253 -189.727295 75.005516
   vertex -1.504272 -189.604797 75.005516
   vertex 2.751747 -188.572296 75.005516
  endloop
 endfacet
 facet normal 0.000000 0.000000 -1.000000
  outer loop
   vertex 2.751747 -188.572296 75.005516
   vertex -1.504272 -189.604797 75.005516
   vertex -1.522278 -189.483505 75.005516
  endloop
 endfacet
 facet normal 0.000000 0.000000 -1.000000
  outer loop
   vertex -1.552086 -189.364502 75.005516
   vertex 2.751747 -188.572296 75.005516
   vertex -1.522278 -189.483505 75.005516
  endloop
 endfacet
 facet normal 0.000000 0.000000 -1.000000
  outer loop
   vertex -1.552086 -189.364502 75.005516
   vertex -1.593407 -189.248993 75.005516
   vertex 2.751747 -188.572296 75.005516
  endloop
 endfacet
 facet normal 0.000000 0.000000 -1.000000
  outer loop
   vertex 2.751747 -188.572296 75.005516
   vertex -1.593407 -189.248993 75.005516
   vertex -1.645859 -189.138107 75.005516
  endloop
 endfacet
 facet normal 0.000000 0.000000 -1.000000
  outer loop
   vertex -1.708916 -189.032898 75.005516
   vertex 2.751747 -188.572296 75.005516
   vertex -1.645859 -189.138107 75.005516
  endloop
 endfacet
 facet normal 0.000000 0.000000 -1.000000
  outer loop
   vertex -1.708916 -189.032898 75.005516
   vertex -1.781998 -188.934402 75.005516
   vertex 2.751747 -188.572296 75.005516
  endloop
 endfacet
 facet normal 0.000000 0.000000 -1.000000
  outer loop
   vertex 2.751747 -188.572296 75.005516
   vertex -1.781998 -188.934402 75.005516
   vertex -1.864372 -188.843506 75.005516
  endloop
 endfacet
 facet normal 0.000000 0.000000 -1.000000
  outer loop
   vertex -1.955269 -188.761093 75.005516
   vertex 2.751747 -188.572296 75.005516
   vertex -1.864372 -188.843506 75.005516
  endloop
 endfacet
 facet normal 0.000000 0.000000 -1.000000
  outer loop
   vertex -1.955269 -188.761093 75.005516
   vertex -2.053795 -188.688004 75.005516
   vertex 2.751747 -188.572296 75.005516
  endloop
 endfacet
 facet normal 0.000000 0.000000 -1.000000
  outer loop
   vertex 2.751747 -188.572296 75.005516
   vertex -2.053795 -188.688004 75.005516
   vertex -2.159019 -188.624893 75.005516
  endloop
 endfacet
 facet normal 0.000000 0.000000 -1.000000
  outer loop
   vertex -0.248253 -182.116394 75.005516
   vertex -2.159019 -188.624893 75.005516
   vertex -2.269905 -188.572495 75.005516
  endloop
 endfacet
 facet normal 0.000000 0.000000 -1.000000
  outer loop
   vertex -2.385406 -188.531204 75.005516
   vertex -0.248253 -182.116394 75.005516
   vertex -2.269905 -188.572495 75.005516
  endloop
 endfacet
 facet normal 0.000000 0.000000 -1.000000
  outer loop
   vertex -2.748253 -188.477295 75.005516
   vertex -2.870773 -188.483398 75.005516
   vertex -0.248253 -182.116394 75.005516
  endloop
 endfacet
 facet normal 0.000000 0.000000 -1.000000
  outer loop
   vertex -0.248253 -182.116394 75.005516
   vertex -2.870773 -188.483398 75.005516
   vertex -5.248253 -182.116394 75.005516
  endloop
 endfacet
 facet normal 0.000000 0.000000 -1.000000
  outer loop
   vertex -5.248253 -182.116394 75.005516
   vertex -2.870773 -188.483398 75.005516
   vertex -2.992119 -188.501404 75.005516
  endloop
 endfacet
 facet normal 0.000000 0.000000 -1.000000
  outer loop
   vertex -3.111115 -188.531204 75.005516
   vertex -5.248253 -182.116394 75.005516
   vertex -2.992119 -188.501404 75.005516
  endloop
 endfacet
 facet normal 0.000000 0.000000 -1.000000
  outer loop
   vertex -3.111115 -188.531204 75.005516
   vertex -3.226616 -188.572495 75.005516
   vertex -5.248253 -182.116394 75.005516
  endloop
 endfacet
 facet normal 0.000000 0.000000 -1.000000
  outer loop
   vertex -5.248253 -182.116394 75.005516
   vertex -3.226616 -188.572495 75.005516
   vertex -3.337509 -188.624893 75.005516
  endloop
 endfacet
 facet normal 0.000000 0.000000 -1.000000
  outer loop
   vertex -3.442719 -188.688004 75.005516
   vertex -5.248253 -182.116394 75.005516
   vertex -3.337509 -188.624893 75.005516
  endloop
 endfacet
 facet normal 0.000000 0.000000 -1.000000
  outer loop
   vertex -3.442719 -188.688004 75.005516
   vertex -3.541245 -188.761093 75.005516
   vertex -5.248253 -182.116394 75.005516
  endloop
 endfacet
 facet normal 0.000000 0.000000 -1.000000
  outer loop
   vertex -5.248253 -182.116394 75.005516
   vertex -3.541245 -188.761093 75.005516
   vertex -3.632133 -188.843506 75.005516
  endloop
 endfacet
 facet normal 0.000000 0.000000 -1.000000
  outer loop
   vertex -3.714516 -188.934402 75.005516
   vertex -5.248253 -182.116394 75.005516
   vertex -3.632133 -188.843506 75.005516
  endloop
 endfacet
 facet normal 0.000000 0.000000 -1.000000
  outer loop
   vertex -3.903107 -189.248993 75.005516
   vertex -3.944435 -189.364502 75.005516
   vertex -5.248253 -182.116394 75.005516
  endloop
 endfacet
 facet normal 0.000000 0.000000 -1.000000
  outer loop
   vertex -5.248253 -182.116394 75.005516
   vertex -3.944435 -189.364502 75.005516
   vertex -5.248253 -192.227295 75.005516
  endloop
 endfacet
 facet normal 0.000000 0.000000 -1.000000
  outer loop
   vertex -5.248253 -192.227295 75.005516
   vertex -3.944435 -189.364502 75.005516
   vertex -3.974236 -189.483505 75.005516
  endloop
 endfacet
 facet normal 0.000000 0.000000 -1.000000
  outer loop
   vertex -3.992233 -189.604797 75.005516
   vertex -5.248253 -192.227295 75.005516
   vertex -3.974236 -189.483505 75.005516
  endloop
 endfacet
 facet normal 0.000000 0.000000 -1.000000
  outer loop
   vertex -3.992233 -189.604797 75.005516
   vertex -3.998253 -189.727295 75.005516
   vertex -5.248253 -192.227295 75.005516
  endloop
 endfacet
 facet normal 0.000000 0.000000 -1.000000
  outer loop
   vertex -5.248253 -192.227295 75.005516
   vertex -3.998253 -189.727295 75.005516
   vertex -3.992233 -189.849899 75.005516
  endloop
 endfacet
 facet normal 0.000000 0.000000 -1.000000
  outer loop
   vertex -3.974236 -189.971207 75.005516
   vertex -5.248253 -192.227295 75.005516
   vertex -3.992233 -189.849899 75.005516
  endloop
 endfacet
 facet normal 0.000000 0.000000 -1.000000
  outer loop
   vertex -3.974236 -189.971207 75.005516
   vertex -3.944435 -190.090195 75.005516
   vertex -5.248253 -192.227295 75.005516
  endloop
 endfacet
 facet normal 0.000000 0.000000 -1.000000
  outer loop
   vertex -5.248253 -192.227295 75.005516
   vertex -3.944435 -190.090195 75.005516
   vertex -3.903107 -190.205704 75.005516
  endloop
 endfacet
 facet normal 0.000000 0.000000 -1.000000
  outer loop
   vertex -3.850655 -190.316605 75.005516
   vertex -5.248253 -192.227295 75.005516
   vertex -3.903107 -190.205704 75.005516
  endloop
 endfacet
 facet normal 0.000000 0.000000 -1.000000
  outer loop
   vertex -3.850655 -190.316605 75.005516
   vertex -3.787598 -190.421799 75.005516
   vertex -5.248253 -192.227295 75.005516
  endloop
 endfacet
 facet normal 0.000000 0.000000 -1.000000
  outer loop
   vertex -5.248253 -192.227295 75.005516
   vertex -3.787598 -190.421799 75.005516
   vertex -3.714516 -190.520294 75.005516
  endloop
 endfacet
 facet normal 0.000000 0.000000 -1.000000
  outer loop
   vertex -3.632133 -190.611206 75.005516
   vertex -5.248253 -192.227295 75.005516
   vertex -3.714516 -190.520294 75.005516
  endloop
 endfacet
 facet normal 0.000000 0.000000 -1.000000
  outer loop
   vertex -3.632133 -190.611206 75.005516
   vertex -3.541245 -190.693604 75.005516
   vertex -5.248253 -192.227295 75.005516
  endloop
 endfacet
 facet normal 0.000000 0.000000 -1.000000
  outer loop
   vertex -5.248253 -192.227295 75.005516
   vertex -3.541245 -190.693604 75.005516
   vertex -3.442719 -190.766693 75.005516
  endloop
 endfacet
 facet normal 0.000000 0.000000 -1.000000
  outer loop
   vertex -3.337509 -190.829697 75.005516
   vertex -5.248253 -192.227295 75.005516
   vertex -3.442719 -190.766693 75.005516
  endloop
 endfacet
 facet normal 0.000000 0.000000 -1.000000
  outer loop
   vertex -3.337509 -190.829697 75.005516
   vertex -3.226616 -190.882202 75.005516
   vertex -5.248253 -192.227295 75.005516
  endloop
 endfacet
 facet normal 0.000000 0.000000 -1.000000
  outer loop
   vertex -5.248253 -192.227295 75.005516
   vertex -3.226616 -190.882202 75.005516
   vertex -3.111115 -190.923492 75.005516
  endloop
 endfacet
 facet normal 0.000000 0.000000 -1.000000
  outer loop
   vertex -2.992119 -190.953293 75.005516
   vertex -5.248253 -192.227295 75.005516
   vertex -3.111115 -190.923492 75.005516
  endloop
 endfacet
 facet normal 0.000000 0.000000 -1.000000
  outer loop
   vertex -0.248253 -182.116394 75.005516
   vertex 2.751747 -188.572296 75.005516
   vertex -2.159019 -188.624893 75.005516
  endloop
 endfacet
 facet normal 0.820659 -0.460549 0.338250
  outer loop
   vertex 14.665405 -187.841797 75.005516
   vertex 16.156212 -185.185303 75.005516
   vertex 14.665405 -187.296204 75.748375
  endloop
 endfacet
 facet normal 0.807884 -0.427978 0.405165
  outer loop
   vertex 14.665405 -187.296204 75.748375
   vertex 16.156212 -185.185303 75.005516
   vertex 14.665405 -186.662598 76.417656
  endloop
 endfacet
 facet normal 0.805852 -0.375924 0.457476
  outer loop
   vertex 14.665405 -186.662598 76.417656
   vertex 16.156212 -185.185303 75.005516
   vertex 14.665405 -185.947998 77.004868
  endloop
 endfacet
 facet normal 0.815145 -0.309087 0.489902
  outer loop
   vertex 14.665405 -185.947998 77.004868
   vertex 16.156212 -185.185303 75.005516
   vertex 14.665405 -185.165802 77.498367
  endloop
 endfacet
 facet normal 0.803075 -0.348979 0.482995
  outer loop
   vertex 14.665405 -185.165802 77.498367
   vertex 16.156212 -185.185303 75.005516
   vertex 16.816734 -183.665298 75.005516
  endloop
 endfacet
 facet normal 0.807866 -0.181302 0.560787
  outer loop
   vertex 14.665405 -184.328094 77.890427
   vertex 16.816734 -183.665298 75.005516
   vertex 14.665405 -183.448105 78.174927
  endloop
 endfacet
 facet normal 0.802530 -0.252896 0.540359
  outer loop
   vertex 14.665405 -184.328094 77.890427
   vertex 14.665405 -185.165802 77.498367
   vertex 16.816734 -183.665298 75.005516
  endloop
 endfacet
 facet normal 0.800062 -0.219960 0.558139
  outer loop
   vertex 16.816734 -183.665298 75.005516
   vertex 17.119347 -182.564606 75.005516
   vertex 14.665405 -183.448105 78.174927
  endloop
 endfacet
 facet normal 0.800584 -0.111750 0.588708
  outer loop
   vertex 14.665405 -183.448105 78.174927
   vertex 17.119347 -182.564606 75.005516
   vertex 14.665405 -182.539398 78.347420
  endloop
 endfacet
 facet normal 0.805349 -0.037050 0.591642
  outer loop
   vertex 14.665405 -182.539398 78.347420
   vertex 17.119347 -182.564606 75.005516
   vertex 14.665405 -181.616394 78.405220
  endloop
 endfacet
 facet normal 0.790830 -0.111213 0.601847
  outer loop
   vertex 14.665405 -181.616394 78.405220
   vertex 17.119347 -182.564606 75.005516
   vertex 17.185837 -182.091797 75.005516
  endloop
 endfacet
 facet normal 0.800160 -0.038267 0.598564
  outer loop
   vertex 17.208572 -181.616394 75.005516
   vertex 14.665405 -181.616394 78.405220
   vertex 17.185837 -182.091797 75.005516
  endloop
 endfacet
 facet normal 0.800160 0.038289 0.598564
  outer loop
   vertex 17.208572 -181.616394 75.005516
   vertex 17.185814 -181.140793 75.005516
   vertex 14.665405 -181.616394 78.405220
  endloop
 endfacet
 facet normal 0.790833 0.111191 0.601848
  outer loop
   vertex 14.665405 -181.616394 78.405220
   vertex 17.185814 -181.140793 75.005516
   vertex 17.119354 -180.668106 75.005516
  endloop
 endfacet
 facet normal 0.800584 0.111752 0.588708
  outer loop
   vertex 14.665405 -180.693298 78.347420
   vertex 17.119354 -180.668106 75.005516
   vertex 14.665405 -179.784607 78.174927
  endloop
 endfacet
 facet normal 0.805348 0.037046 0.591644
  outer loop
   vertex 14.665405 -180.693298 78.347420
   vertex 14.665405 -181.616394 78.405220
   vertex 17.119354 -180.668106 75.005516
  endloop
 endfacet
 facet normal 0.800061 0.219957 0.558141
  outer loop
   vertex 17.119354 -180.668106 75.005516
   vertex 16.816742 -179.567398 75.005516
   vertex 14.665405 -179.784607 78.174927
  endloop
 endfacet
 facet normal 0.807865 0.181300 0.560789
  outer loop
   vertex 14.665405 -179.784607 78.174927
   vertex 16.816742 -179.567398 75.005516
   vertex 14.665405 -178.904602 77.890427
  endloop
 endfacet
 facet normal 0.802530 0.252897 0.540361
  outer loop
   vertex 14.665405 -178.904602 77.890427
   vertex 16.816742 -179.567398 75.005516
   vertex 14.665405 -178.066895 77.498367
  endloop
 endfacet
 facet normal 0.803081 0.348831 0.483092
  outer loop
   vertex 14.665405 -178.066895 77.498367
   vertex 16.816742 -179.567398 75.005516
   vertex 16.157074 -178.048706 75.005516
  endloop
 endfacet
 facet normal 0.805805 0.375965 0.457525
  outer loop
   vertex 14.665405 -177.284698 77.004868
   vertex 16.157074 -178.048706 75.005516
   vertex 14.665405 -176.570099 76.417656
  endloop
 endfacet
 facet normal 0.815079 0.309137 0.489981
  outer loop
   vertex 14.665405 -177.284698 77.004868
   vertex 14.665405 -178.066895 77.498367
   vertex 16.157074 -178.048706 75.005516
  endloop
 endfacet
 facet normal 0.820637 0.460575 0.338269
  outer loop
   vertex 14.665405 -175.390900 75.005516
   vertex 14.665405 -175.936493 75.748375
   vertex 16.157074 -178.048706 75.005516
  endloop
 endfacet
 facet normal 0.807853 0.428009 0.405195
  outer loop
   vertex 16.157074 -178.048706 75.005516
   vertex 14.665405 -175.936493 75.748375
   vertex 14.665405 -176.570099 76.417656
  endloop
 endfacet
 facet normal -1.000000 0.000000 0.000000
  outer loop
   vertex -5.248253 -192.227295 79.216232
   vertex -5.248253 -182.116394 79.216232
   vertex -5.248253 -192.227295 75.005516
  endloop
 endfacet
 facet normal -1.000000 0.000000 0.000000
  outer loop
   vertex -5.248253 -192.227295 75.005516
   vertex -5.248253 -182.116394 79.216232
   vertex -5.248253 -182.116394 75.005516
  endloop
 endfacet
 facet normal 0.048886 0.998804 0.000000
  outer loop
   vertex -2.870773 -190.971298 75.005516
   vertex -2.870773 -190.971298 79.216232
   vertex -2.748253 -190.977295 75.005516
  endloop
 endfacet
 facet normal 0.146774 0.989170 0.000000
  outer loop
   vertex -2.870773 -190.971298 75.005516
   vertex -2.992119 -190.953293 75.005516
   vertex -2.870773 -190.971298 79.216232
  endloop
 endfacet
 facet normal 0.146774 0.989170 0.000000
  outer loop
   vertex -2.870773 -190.971298 79.216232
   vertex -2.992119 -190.953293 75.005516
   vertex -2.992119 -190.953293 79.216232
  endloop
 endfacet
 facet normal 0.242931 0.970044 0.000000
  outer loop
   vertex -2.992119 -190.953293 79.216232
   vertex -2.992119 -190.953293 75.005516
   vertex -3.111115 -190.923492 75.005516
  endloop
 endfacet
 facet normal 0.336624 0.941639 0.000000
  outer loop
   vertex -3.111115 -190.923492 79.216232
   vertex -3.111115 -190.923492 75.005516
   vertex -3.226616 -190.882202 75.005516
  endloop
 endfacet
 facet normal 0.427934 0.903810 0.000000
  outer loop
   vertex -3.226616 -190.882202 79.216232
   vertex -3.226616 -190.882202 75.005516
   vertex -3.337509 -190.829697 79.216232
  endloop
 endfacet
 facet normal 0.336624 0.941639 0.000000
  outer loop
   vertex -3.226616 -190.882202 79.216232
   vertex -3.111115 -190.923492 79.216232
   vertex -3.226616 -190.882202 75.005516
  endloop
 endfacet
 facet normal 0.427934 0.903810 0.000000
  outer loop
   vertex -3.226616 -190.882202 75.005516
   vertex -3.337509 -190.829697 75.005516
   vertex -3.337509 -190.829697 79.216232
  endloop
 endfacet
 facet normal 0.513764 0.857932 0.000000
  outer loop
   vertex -3.337509 -190.829697 79.216232
   vertex -3.337509 -190.829697 75.005516
   vertex -3.442719 -190.766693 75.005516
  endloop
 endfacet
 facet normal 0.595793 0.803138 0.000000
  outer loop
   vertex -3.442719 -190.766693 79.216232
   vertex -3.442719 -190.766693 75.005516
   vertex -3.541245 -190.693604 75.005516
  endloop
 endfacet
 facet normal 0.671651 0.740868 0.000000
  outer loop
   vertex -3.541245 -190.693604 79.216232
   vertex -3.541245 -190.693604 75.005516
   vertex -3.632133 -190.611206 75.005516
  endloop
 endfacet
 facet normal 0.741014 0.671490 0.000000
  outer loop
   vertex -3.632133 -190.611206 79.216232
   vertex -3.632133 -190.611206 75.005516
   vertex -3.714516 -190.520294 75.005516
  endloop
 endfacet
 facet normal 0.803080 0.595872 0.000000
  outer loop
   vertex -3.714516 -190.520294 79.216232
   vertex -3.714516 -190.520294 75.005516
   vertex -3.787598 -190.421799 79.216232
  endloop
 endfacet
 facet normal 0.741014 0.671490 0.000000
  outer loop
   vertex -3.714516 -190.520294 79.216232
   vertex -3.632133 -190.611206 79.216232
   vertex -3.714516 -190.520294 75.005516
  endloop
 endfacet
 facet normal 0.803080 0.595872 0.000000
  outer loop
   vertex -3.714516 -190.520294 75.005516
   vertex -3.787598 -190.421799 75.005516
   vertex -3.787598 -190.421799 79.216232
  endloop
 endfacet
 facet normal 0.857707 0.514139 0.000000
  outer loop
   vertex -3.787598 -190.421799 79.216232
   vertex -3.787598 -190.421799 75.005516
   vertex -3.850655 -190.316605 75.005516
  endloop
 endfacet
 facet normal 0.903990 0.427554 0.000000
  outer loop
   vertex -3.850655 -190.316605 79.216232
   vertex -3.850655 -190.316605 75.005516
   vertex -3.903107 -190.205704 75.005516
  endloop
 endfacet
 facet normal 0.941548 0.336880 0.000000
  outer loop
   vertex -3.903107 -190.205704 79.216232
   vertex -3.903107 -190.205704 75.005516
   vertex -3.944435 -190.090195 75.005516
  endloop
 endfacet
 facet normal 0.970040 0.242945 0.000000
  outer loop
   vertex -3.944435 -190.090195 79.216232
   vertex -3.944435 -190.090195 75.005516
   vertex -3.974236 -189.971207 75.005516
  endloop
 endfacet
 facet normal 0.989172 0.146758 0.000000
  outer loop
   vertex -3.974236 -189.971207 79.216232
   vertex -3.974236 -189.971207 75.005516
   vertex -3.992233 -189.849899 79.216232
  endloop
 endfacet
 facet normal 0.970040 0.242945 0.000000
  outer loop
   vertex -3.974236 -189.971207 79.216232
   vertex -3.944435 -190.090195 79.216232
   vertex -3.974236 -189.971207 75.005516
  endloop
 endfacet
 facet normal 0.989172 0.146758 0.000000
  outer loop
   vertex -3.974236 -189.971207 75.005516
   vertex -3.992233 -189.849899 75.005516
   vertex -3.992233 -189.849899 79.216232
  endloop
 endfacet
 facet normal 0.998797 0.049039 0.000000
  outer loop
   vertex -3.992233 -189.849899 79.216232
   vertex -3.992233 -189.849899 75.005516
   vertex -3.998253 -189.727295 75.005516
  endloop
 endfacet
 facet normal 0.998795 -0.049081 0.000000
  outer loop
   vertex -3.998253 -189.727295 79.216232
   vertex -3.998253 -189.727295 75.005516
   vertex -3.992233 -189.604797 75.005516
  endloop
 endfacet
 facet normal 0.989170 -0.146776 0.000000
  outer loop
   vertex -3.992233 -189.604797 79.216232
   vertex -3.992233 -189.604797 75.005516
   vertex -3.974236 -189.483505 75.005516
  endloop
 endfacet
 facet normal 0.970047 -0.242916 0.000000
  outer loop
   vertex -3.974236 -189.483505 79.216232
   vertex -3.974236 -189.483505 75.005516
   vertex -3.944435 -189.364502 75.005516
  endloop
 endfacet
 facet normal 0.941548 -0.336880 0.000000
  outer loop
   vertex -3.944435 -189.364502 79.216232
   vertex -3.944435 -189.364502 75.005516
   vertex -3.903107 -189.248993 79.216232
  endloop
 endfacet
 facet normal 0.970047 -0.242916 0.000000
  outer loop
   vertex -3.944435 -189.364502 79.216232
   vertex -3.974236 -189.483505 79.216232
   vertex -3.944435 -189.364502 75.005516
  endloop
 endfacet
 facet normal 0.941548 -0.336880 0.000000
  outer loop
   vertex -3.944435 -189.364502 75.005516
   vertex -3.903107 -189.248993 75.005516
   vertex -3.903107 -189.248993 79.216232
  endloop
 endfacet
 facet normal 0.903967 -0.427602 0.000000
  outer loop
   vertex -3.903107 -189.248993 79.216232
   vertex -3.903107 -189.248993 75.005516
   vertex -3.850655 -189.138107 75.005516
  endloop
 endfacet
 facet normal 0.857740 -0.514084 0.000000
  outer loop
   vertex -3.850655 -189.138107 79.216232
   vertex -3.850655 -189.138107 75.005516
   vertex -3.787598 -189.032898 75.005516
  endloop
 endfacet
 facet normal 0.803080 -0.595872 0.000000
  outer loop
   vertex -3.787598 -189.032898 79.216232
   vertex -3.787598 -189.032898 75.005516
   vertex -3.714516 -188.934402 75.005516
  endloop
 endfacet
 facet normal 0.740958 -0.671551 0.000000
  outer loop
   vertex -3.714516 -188.934402 79.216232
   vertex -3.714516 -188.934402 75.005516
   vertex -3.632133 -188.843506 75.005516
  endloop
 endfacet
 facet normal 0.671719 -0.740806 0.000000
  outer loop
   vertex -3.632133 -188.843506 79.216232
   vertex -3.632133 -188.843506 75.005516
   vertex -3.541245 -188.761093 79.216232
  endloop
 endfacet
 facet normal 0.740958 -0.671551 0.000000
  outer loop
   vertex -3.632133 -188.843506 79.216232
   vertex -3.714516 -188.934402 79.216232
   vertex -3.632133 -188.843506 75.005516
  endloop
 endfacet
 facet normal 0.671719 -0.740806 0.000000
  outer loop
   vertex -3.632133 -188.843506 75.005516
   vertex -3.541245 -188.761093 75.005516
   vertex -3.541245 -188.761093 79.216232
  endloop
 endfacet
 facet normal 0.595793 -0.803138 0.000000
  outer loop
   vertex -3.541245 -188.761093 79.216232
   vertex -3.541245 -188.761093 75.005516
   vertex -3.442719 -188.688004 75.005516
  endloop
 endfacet
 facet normal 0.514404 -0.857548 0.000000
  outer loop
   vertex -3.442719 -188.688004 79.216232
   vertex -3.442719 -188.688004 75.005516
   vertex -3.337509 -188.624893 75.005516
  endloop
 endfacet
 facet normal 0.427222 -0.904147 0.000000
  outer loop
   vertex -3.337509 -188.624893 79.216232
   vertex -3.337509 -188.624893 75.005516
   vertex -3.226616 -188.572495 75.005516
  endloop
 endfacet
 facet normal 0.336624 -0.941639 0.000000
  outer loop
   vertex -3.226616 -188.572495 79.216232
   vertex -3.226616 -188.572495 75.005516
   vertex -3.111115 -188.531204 75.005516
  endloop
 endfacet
 facet normal 0.242931 -0.970044 0.000000
  outer loop
   vertex -3.111115 -188.531204 79.216232
   vertex -3.111115 -188.531204 75.005516
   vertex -2.992119 -188.501404 79.216232
  endloop
 endfacet
 facet normal 0.336624 -0.941639 0.000000
  outer loop
   vertex -3.111115 -188.531204 79.216232
   vertex -3.226616 -188.572495 79.216232
   vertex -3.111115 -188.531204 75.005516
  endloop
 endfacet
 facet normal 0.242931 -0.970044 0.000000
  outer loop
   vertex -3.111115 -188.531204 75.005516
   vertex -2.992119 -188.501404 75.005516
   vertex -2.992119 -188.501404 79.216232
  endloop
 endfacet
 facet normal 0.146774 -0.989170 0.000000
  outer loop
   vertex -2.992119 -188.501404 79.216232
   vertex -2.992119 -188.501404 75.005516
   vertex -2.870773 -188.483398 75.005516
  endloop
 endfacet
 facet normal 0.049755 -0.998761 0.000000
  outer loop
   vertex -2.870773 -188.483398 79.216232
   vertex -2.870773 -188.483398 75.005516
   vertex -2.748253 -188.477295 75.005516
  endloop
 endfacet
 facet normal -0.049755 -0.998761 0.000000
  outer loop
   vertex -2.748253 -188.477295 79.216232
   vertex -2.748253 -188.477295 75.005516
   vertex -2.625732 -188.483398 75.005516
  endloop
 endfacet
 facet normal -0.146783 -0.989169 0.000000
  outer loop
   vertex -2.625732 -188.483398 79.216232
   vertex -2.625732 -188.483398 75.005516
   vertex -2.504395 -188.501404 75.005516
  endloop
 endfacet
 facet normal -0.242945 -0.970040 0.000000
  outer loop
   vertex -2.504395 -188.501404 79.216232
   vertex -2.504395 -188.501404 75.005516
   vertex -2.385406 -188.531204 79.216232
  endloop
 endfacet
 facet normal -0.146783 -0.989169 0.000000
  outer loop
   vertex -2.504395 -188.501404 79.216232
   vertex -2.625732 -188.483398 79.216232
   vertex -2.504395 -188.501404 75.005516
  endloop
 endfacet
 facet normal -0.242945 -0.970040 0.000000
  outer loop
   vertex -2.504395 -188.501404 75.005516
   vertex -2.385406 -188.531204 75.005516
   vertex -2.385406 -188.531204 79.216232
  endloop
 endfacet
 facet normal -0.336624 -0.941639 0.000000
  outer loop
   vertex -2.385406 -188.531204 79.216232
   vertex -2.385406 -188.531204 75.005516
   vertex -2.269905 -188.572495 75.005516
  endloop
 endfacet
 facet normal -0.427246 -0.904135 0.000000
  outer loop
   vertex -2.269905 -188.572495 79.216232
   vertex -2.269905 -188.572495 75.005516
   vertex -2.159019 -188.624893 75.005516
  endloop
 endfacet
 facet normal -0.514349 -0.857581 0.000000
  outer loop
   vertex -2.159019 -188.624893 79.216232
   vertex -2.159019 -188.624893 75.005516
   vertex -2.053795 -188.688004 75.005516
  endloop
 endfacet
 facet normal -0.595793 -0.803138 0.000000
  outer loop
   vertex -2.053795 -188.688004 79.216232
   vertex -2.053795 -188.688004 75.005516
   vertex -1.955269 -188.761093 75.005516
  endloop
 endfacet
 facet normal -0.671688 -0.740834 0.000000
  outer loop
   vertex -1.955269 -188.761093 79.216232
   vertex -1.955269 -188.761093 75.005516
   vertex -1.864372 -188.843506 79.216232
  endloop
 endfacet
 facet normal -0.595793 -0.803138 0.000000
  outer loop
   vertex -1.955269 -188.761093 79.216232
   vertex -2.053795 -188.688004 79.216232
   vertex -1.955269 -188.761093 75.005516
  endloop
 endfacet
 facet normal -0.671688 -0.740834 0.000000
  outer loop
   vertex -1.955269 -188.761093 75.005516
   vertex -1.864372 -188.843506 75.005516
   vertex -1.864372 -188.843506 79.216232
  endloop
 endfacet
 facet normal -0.740989 -0.671517 0.000000
  outer loop
   vertex -1.864372 -188.843506 79.216232
   vertex -1.864372 -188.843506 75.005516
   vertex -1.781998 -188.934402 75.005516
  endloop
 endfacet
 facet normal -0.803080 -0.595872 0.000000
  outer loop
   vertex -1.781998 -188.934402 79.216232
   vertex -1.781998 -188.934402 75.005516
   vertex -1.708916 -189.032898 75.005516
  endloop
 endfacet
 facet normal -0.857740 -0.514084 0.000000
  outer loop
   vertex -1.708916 -189.032898 79.216232
   vertex -1.708916 -189.032898 75.005516
   vertex -1.645859 -189.138107 75.005516
  endloop
 endfacet
 facet normal -0.903967 -0.427602 0.000000
  outer loop
   vertex -1.645859 -189.138107 79.216232
   vertex -1.645859 -189.138107 75.005516
   vertex -1.593407 -189.248993 75.005516
  endloop
 endfacet
 facet normal -0.941567 -0.336825 0.000000
  outer loop
   vertex -1.593407 -189.248993 79.216232
   vertex -1.593407 -189.248993 75.005516
   vertex -1.552086 -189.364502 79.216232
  endloop
 endfacet
 facet normal -0.903967 -0.427602 0.000000
  outer loop
   vertex -1.593407 -189.248993 79.216232
   vertex -1.645859 -189.138107 79.216232
   vertex -1.593407 -189.248993 75.005516
  endloop
 endfacet
 facet normal -0.941567 -0.336825 0.000000
  outer loop
   vertex -1.593407 -189.248993 75.005516
   vertex -1.552086 -189.364502 75.005516
   vertex -1.552086 -189.364502 79.216232
  endloop
 endfacet
 facet normal -0.970033 -0.242975 0.000000
  outer loop
   vertex -1.552086 -189.364502 79.216232
   vertex -1.552086 -189.364502 75.005516
   vertex -1.522278 -189.483505 75.005516
  endloop
 endfacet
 facet normal -0.989161 -0.146837 0.000000
  outer loop
   vertex -1.522278 -189.483505 79.216232
   vertex -1.522278 -189.483505 75.005516
   vertex -1.504272 -189.604797 75.005516
  endloop
 endfacet
 facet normal -0.998795 -0.049081 0.000000
  outer loop
   vertex -1.504272 -189.604797 79.216232
   vertex -1.504272 -189.604797 75.005516
   vertex -1.498253 -189.727295 75.005516
  endloop
 endfacet
 facet normal -0.998797 0.049039 0.000000
  outer loop
   vertex -1.498253 -189.727295 79.216232
   vertex -1.498253 -189.727295 75.005516
   vertex -1.504272 -189.849899 75.005516
  endloop
 endfacet
 facet normal -0.989163 0.146819 0.000000
  outer loop
   vertex -1.504272 -189.849899 79.216232
   vertex -1.504272 -189.849899 75.005516
   vertex -1.522278 -189.971207 79.216232
  endloop
 endfacet
 facet normal -0.998797 0.049039 0.000000
  outer loop
   vertex -1.504272 -189.849899 79.216232
   vertex -1.498253 -189.727295 79.216232
   vertex -1.504272 -189.849899 75.005516
  endloop
 endfacet
 facet normal -0.989163 0.146819 0.000000
  outer loop
   vertex -1.504272 -189.849899 75.005516
   vertex -1.522278 -189.971207 75.005516
   vertex -1.522278 -189.971207 79.216232
  endloop
 endfacet
 facet normal -0.970025 0.243004 0.000000
  outer loop
   vertex -1.522278 -189.971207 79.216232
   vertex -1.522278 -189.971207 75.005516
   vertex -1.552086 -190.090195 75.005516
  endloop
 endfacet
 facet normal -0.941567 0.336825 0.000000
  outer loop
   vertex -1.552086 -190.090195 79.216232
   vertex -1.552086 -190.090195 75.005516
   vertex -1.593407 -190.205704 75.005516
  endloop
 endfacet
 facet normal -0.903990 0.427554 0.000000
  outer loop
   vertex -1.593407 -190.205704 79.216232
   vertex -1.593407 -190.205704 75.005516
   vertex -1.645859 -190.316605 75.005516
  endloop
 endfacet
 facet normal -0.857707 0.514139 0.000000
  outer loop
   vertex -1.645859 -190.316605 79.216232
   vertex -1.645859 -190.316605 75.005516
   vertex -1.708916 -190.421799 75.005516
  endloop
 endfacet
 facet normal -0.803080 0.595872 0.000000
  outer loop
   vertex -1.708916 -190.421799 79.216232
   vertex -1.708916 -190.421799 75.005516
   vertex -1.781998 -190.520294 79.216232
  endloop
 endfacet
 facet normal -0.857707 0.514139 0.000000
  outer loop
   vertex -1.708916 -190.421799 79.216232
   vertex -1.645859 -190.316605 79.216232
   vertex -1.708916 -190.421799 75.005516
  endloop
 endfacet
 facet normal -0.803080 0.595872 0.000000
  outer loop
   vertex -1.708916 -190.421799 75.005516
   vertex -1.781998 -190.520294 75.005516
   vertex -1.781998 -190.520294 79.216232
  endloop
 endfacet
 facet normal -0.741045 0.671455 0.000000
  outer loop
   vertex -1.781998 -190.520294 79.216232
   vertex -1.781998 -190.520294 75.005516
   vertex -1.864372 -190.611206 75.005516
  endloop
 endfacet
 facet normal -0.671620 0.740896 0.000000
  outer loop
   vertex -1.864372 -190.611206 79.216232
   vertex -1.864372 -190.611206 75.005516
   vertex -1.955269 -190.693604 75.005516
  endloop
 endfacet
 facet normal -0.595793 0.803138 0.000000
  outer loop
   vertex -1.955269 -190.693604 79.216232
   vertex -1.955269 -190.693604 75.005516
   vertex -2.053795 -190.766693 75.005516
  endloop
 endfacet
 facet normal -0.513709 0.857965 0.000000
  outer loop
   vertex -2.053795 -190.766693 79.216232
   vertex -2.053795 -190.766693 75.005516
   vertex -2.159019 -190.829697 75.005516
  endloop
 endfacet
 facet normal -0.427958 0.903799 0.000000
  outer loop
   vertex -2.159019 -190.829697 79.216232
   vertex -2.159019 -190.829697 75.005516
   vertex -2.269905 -190.882202 79.216232
  endloop
 endfacet
 facet normal -0.513709 0.857965 0.000000
  outer loop
   vertex -2.159019 -190.829697 79.216232
   vertex -2.053795 -190.766693 79.216232
   vertex -2.159019 -190.829697 75.005516
  endloop
 endfacet
 facet normal -0.427958 0.903799 0.000000
  outer loop
   vertex -2.159019 -190.829697 75.005516
   vertex -2.269905 -190.882202 75.005516
   vertex -2.269905 -190.882202 79.216232
  endloop
 endfacet
 facet normal -0.336624 0.941639 0.000000
  outer loop
   vertex -2.269905 -190.882202 79.216232
   vertex -2.269905 -190.882202 75.005516
   vertex -2.385406 -190.923492 75.005516
  endloop
 endfacet
 facet normal -0.242945 0.970040 0.000000
  outer loop
   vertex -2.385406 -190.923492 79.216232
   vertex -2.385406 -190.923492 75.005516
   vertex -2.504395 -190.953293 75.005516
  endloop
 endfacet
 facet normal -0.146783 0.989169 0.000000
  outer loop
   vertex -2.504395 -190.953293 79.216232
   vertex -2.504395 -190.953293 75.005516
   vertex -2.625732 -190.971298 75.005516
  endloop
 endfacet
 facet normal -0.048886 0.998804 0.000000
  outer loop
   vertex -2.625732 -190.971298 79.216232
   vertex -2.625732 -190.971298 75.005516
   vertex -2.748253 -190.977295 79.216232
  endloop
 endfacet
 facet normal -0.146783 0.989169 0.000000
  outer loop
   vertex -2.625732 -190.971298 79.216232
   vertex -2.504395 -190.953293 79.216232
   vertex -2.625732 -190.971298 75.005516
  endloop
 endfacet
 facet normal -0.048886 0.998804 0.000000
  outer loop
   vertex -2.625732 -190.971298 75.005516
   vertex -2.748253 -190.977295 75.005516
   vertex -2.748253 -190.977295 79.216232
  endloop
 endfacet
 facet normal 0.048886 0.998804 0.000000
  outer loop
   vertex -2.748253 -190.977295 79.216232
   vertex -2.748253 -190.977295 75.005516
   vertex -2.870773 -190.971298 79.216232
  endloop
 endfacet
 facet normal -0.242945 0.970040 0.000000
  outer loop
   vertex -2.504395 -190.953293 79.216232
   vertex -2.385406 -190.923492 79.216232
   vertex -2.504395 -190.953293 75.005516
  endloop
 endfacet
 facet normal -0.336624 0.941639 0.000000
  outer loop
   vertex -2.385406 -190.923492 79.216232
   vertex -2.269905 -190.882202 79.216232
   vertex -2.385406 -190.923492 75.005516
  endloop
 endfacet
 facet normal -0.595793 0.803138 0.000000
  outer loop
   vertex -2.053795 -190.766693 79.216232
   vertex -1.955269 -190.693604 79.216232
   vertex -2.053795 -190.766693 75.005516
  endloop
 endfacet
 facet normal -0.671620 0.740896 0.000000
  outer loop
   vertex -1.955269 -190.693604 79.216232
   vertex -1.864372 -190.611206 79.216232
   vertex -1.955269 -190.693604 75.005516
  endloop
 endfacet
 facet normal -0.741045 0.671455 0.000000
  outer loop
   vertex -1.864372 -190.611206 79.216232
   vertex -1.781998 -190.520294 79.216232
   vertex -1.864372 -190.611206 75.005516
  endloop
 endfacet
 facet normal -0.903990 0.427554 0.000000
  outer loop
   vertex -1.645859 -190.316605 79.216232
   vertex -1.593407 -190.205704 79.216232
   vertex -1.645859 -190.316605 75.005516
  endloop
 endfacet
 facet normal -0.941567 0.336825 0.000000
  outer loop
   vertex -1.593407 -190.205704 79.216232
   vertex -1.552086 -190.090195 79.216232
   vertex -1.593407 -190.205704 75.005516
  endloop
 endfacet
 facet normal -0.970025 0.243004 0.000000
  outer loop
   vertex -1.552086 -190.090195 79.216232
   vertex -1.522278 -189.971207 79.216232
   vertex -1.552086 -190.090195 75.005516
  endloop
 endfacet
 facet normal -0.998795 -0.049081 0.000000
  outer loop
   vertex -1.498253 -189.727295 79.216232
   vertex -1.504272 -189.604797 79.216232
   vertex -1.498253 -189.727295 75.005516
  endloop
 endfacet
 facet normal -0.989161 -0.146837 0.000000
  outer loop
   vertex -1.504272 -189.604797 79.216232
   vertex -1.522278 -189.483505 79.216232
   vertex -1.504272 -189.604797 75.005516
  endloop
 endfacet
 facet normal -0.970033 -0.242975 0.000000
  outer loop
   vertex -1.522278 -189.483505 79.216232
   vertex -1.552086 -189.364502 79.216232
   vertex -1.522278 -189.483505 75.005516
  endloop
 endfacet
 facet normal -0.857740 -0.514084 0.000000
  outer loop
   vertex -1.645859 -189.138107 79.216232
   vertex -1.708916 -189.032898 79.216232
   vertex -1.645859 -189.138107 75.005516
  endloop
 endfacet
 facet normal -0.803080 -0.595872 0.000000
  outer loop
   vertex -1.708916 -189.032898 79.216232
   vertex -1.781998 -188.934402 79.216232
   vertex -1.708916 -189.032898 75.005516
  endloop
 endfacet
 facet normal -0.740989 -0.671517 0.000000
  outer loop
   vertex -1.781998 -188.934402 79.216232
   vertex -1.864372 -188.843506 79.216232
   vertex -1.781998 -188.934402 75.005516
  endloop
 endfacet
 facet normal -0.514349 -0.857581 0.000000
  outer loop
   vertex -2.053795 -188.688004 79.216232
   vertex -2.159019 -188.624893 79.216232
   vertex -2.053795 -188.688004 75.005516
  endloop
 endfacet
 facet normal -0.427246 -0.904135 0.000000
  outer loop
   vertex -2.159019 -188.624893 79.216232
   vertex -2.269905 -188.572495 79.216232
   vertex -2.159019 -188.624893 75.005516
  endloop
 endfacet
 facet normal -0.336624 -0.941639 0.000000
  outer loop
   vertex -2.269905 -188.572495 79.216232
   vertex -2.385406 -188.531204 79.216232
   vertex -2.269905 -188.572495 75.005516
  endloop
 endfacet
 facet normal -0.049755 -0.998761 0.000000
  outer loop
   vertex -2.625732 -188.483398 79.216232
   vertex -2.748253 -188.477295 79.216232
   vertex -2.625732 -188.483398 75.005516
  endloop
 endfacet
 facet normal 0.049755 -0.998761 0.000000
  outer loop
   vertex -2.748253 -188.477295 79.216232
   vertex -2.870773 -188.483398 79.216232
   vertex -2.748253 -188.477295 75.005516
  endloop
 endfacet
 facet normal 0.146774 -0.989170 0.000000
  outer loop
   vertex -2.870773 -188.483398 79.216232
   vertex -2.992119 -188.501404 79.216232
   vertex -2.870773 -188.483398 75.005516
  endloop
 endfacet
 facet normal 0.427222 -0.904147 0.000000
  outer loop
   vertex -3.226616 -188.572495 79.216232
   vertex -3.337509 -188.624893 79.216232
   vertex -3.226616 -188.572495 75.005516
  endloop
 endfacet
 facet normal 0.514404 -0.857548 0.000000
  outer loop
   vertex -3.337509 -188.624893 79.216232
   vertex -3.442719 -188.688004 79.216232
   vertex -3.337509 -188.624893 75.005516
  endloop
 endfacet
 facet normal 0.595793 -0.803138 0.000000
  outer loop
   vertex -3.442719 -188.688004 79.216232
   vertex -3.541245 -188.761093 79.216232
   vertex -3.442719 -188.688004 75.005516
  endloop
 endfacet
 facet normal 0.803080 -0.595872 0.000000
  outer loop
   vertex -3.714516 -188.934402 79.216232
   vertex -3.787598 -189.032898 79.216232
   vertex -3.714516 -188.934402 75.005516
  endloop
 endfacet
 facet normal 0.857740 -0.514084 0.000000
  outer loop
   vertex -3.787598 -189.032898 79.216232
   vertex -3.850655 -189.138107 79.216232
   vertex -3.787598 -189.032898 75.005516
  endloop
 endfacet
 facet normal 0.903967 -0.427602 0.000000
  outer loop
   vertex -3.850655 -189.138107 79.216232
   vertex -3.903107 -189.248993 79.216232
   vertex -3.850655 -189.138107 75.005516
  endloop
 endfacet
 facet normal 0.989170 -0.146776 0.000000
  outer loop
   vertex -3.974236 -189.483505 79.216232
   vertex -3.992233 -189.604797 79.216232
   vertex -3.974236 -189.483505 75.005516
  endloop
 endfacet
 facet normal 0.998795 -0.049081 0.000000
  outer loop
   vertex -3.992233 -189.604797 79.216232
   vertex -3.998253 -189.727295 79.216232
   vertex -3.992233 -189.604797 75.005516
  endloop
 endfacet
 facet normal 0.998797 0.049039 0.000000
  outer loop
   vertex -3.998253 -189.727295 79.216232
   vertex -3.992233 -189.849899 79.216232
   vertex -3.998253 -189.727295 75.005516
  endloop
 endfacet
 facet normal 0.941548 0.336880 0.000000
  outer loop
   vertex -3.944435 -190.090195 79.216232
   vertex -3.903107 -190.205704 79.216232
   vertex -3.944435 -190.090195 75.005516
  endloop
 endfacet
 facet normal 0.903990 0.427554 0.000000
  outer loop
   vertex -3.903107 -190.205704 79.216232
   vertex -3.850655 -190.316605 79.216232
   vertex -3.903107 -190.205704 75.005516
  endloop
 endfacet
 facet normal 0.857707 0.514139 0.000000
  outer loop
   vertex -3.850655 -190.316605 79.216232
   vertex -3.787598 -190.421799 79.216232
   vertex -3.850655 -190.316605 75.005516
  endloop
 endfacet
 facet normal 0.671651 0.740868 0.000000
  outer loop
   vertex -3.632133 -190.611206 79.216232
   vertex -3.541245 -190.693604 79.216232
   vertex -3.632133 -190.611206 75.005516
  endloop
 endfacet
 facet normal 0.595793 0.803138 0.000000
  outer loop
   vertex -3.541245 -190.693604 79.216232
   vertex -3.442719 -190.766693 79.216232
   vertex -3.541245 -190.693604 75.005516
  endloop
 endfacet
 facet normal 0.513764 0.857932 0.000000
  outer loop
   vertex -3.442719 -190.766693 79.216232
   vertex -3.337509 -190.829697 79.216232
   vertex -3.442719 -190.766693 75.005516
  endloop
 endfacet
 facet normal 0.242931 0.970044 0.000000
  outer loop
   vertex -3.111115 -190.923492 79.216232
   vertex -2.992119 -190.953293 79.216232
   vertex -3.111115 -190.923492 75.005516
  endloop
 endfacet
 facet normal 0.000000 0.000000 1.000000
  outer loop
   vertex -2.625732 -190.971298 79.216232
   vertex -2.748253 -190.977295 79.216232
   vertex -5.248253 -192.227295 79.216232
  endloop
 endfacet
 facet normal 0.000000 0.000000 1.000000
  outer loop
   vertex -2.504395 -190.953293 79.216232
   vertex -5.248253 -192.227295 79.216232
   vertex 2.751747 -192.227295 79.216232
  endloop
 endfacet
 facet normal 0.000000 0.000000 1.000000
  outer loop
   vertex -2.385406 -190.923492 79.216232
   vertex 2.751747 -192.227295 79.216232
   vertex -2.269905 -190.882202 79.216232
  endloop
 endfacet
 facet normal 0.000000 0.000000 1.000000
  outer loop
   vertex -2.385406 -190.923492 79.216232
   vertex -2.504395 -190.953293 79.216232
   vertex 2.751747 -192.227295 79.216232
  endloop
 endfacet
 facet normal 0.000000 0.000000 1.000000
  outer loop
   vertex -2.748253 -190.977295 79.216232
   vertex -2.870773 -190.971298 79.216232
   vertex -5.248253 -192.227295 79.216232
  endloop
 endfacet
 facet normal 0.000000 0.000000 1.000000
  outer loop
   vertex -5.248253 -192.227295 79.216232
   vertex -2.870773 -190.971298 79.216232
   vertex -2.992119 -190.953293 79.216232
  endloop
 endfacet
 facet normal 0.000000 0.000000 1.000000
  outer loop
   vertex -3.111115 -190.923492 79.216232
   vertex -5.248253 -192.227295 79.216232
   vertex -2.992119 -190.953293 79.216232
  endloop
 endfacet
 facet normal 0.000000 0.000000 1.000000
  outer loop
   vertex -3.111115 -190.923492 79.216232
   vertex -3.226616 -190.882202 79.216232
   vertex -5.248253 -192.227295 79.216232
  endloop
 endfacet
 facet normal 0.000000 0.000000 1.000000
  outer loop
   vertex -5.248253 -192.227295 79.216232
   vertex -3.226616 -190.882202 79.216232
   vertex -3.337509 -190.829697 79.216232
  endloop
 endfacet
 facet normal 0.000000 0.000000 1.000000
  outer loop
   vertex -3.442719 -190.766693 79.216232
   vertex -5.248253 -192.227295 79.216232
   vertex -3.337509 -190.829697 79.216232
  endloop
 endfacet
 facet normal 0.000000 0.000000 1.000000
  outer loop
   vertex -3.442719 -190.766693 79.216232
   vertex -3.541245 -190.693604 79.216232
   vertex -5.248253 -192.227295 79.216232
  endloop
 endfacet
 facet normal 0.000000 0.000000 1.000000
  outer loop
   vertex -5.248253 -192.227295 79.216232
   vertex -3.541245 -190.693604 79.216232
   vertex -3.632133 -190.611206 79.216232
  endloop
 endfacet
 facet normal 0.000000 0.000000 1.000000
  outer loop
   vertex -3.714516 -190.520294 79.216232
   vertex -5.248253 -192.227295 79.216232
   vertex -3.632133 -190.611206 79.216232
  endloop
 endfacet
 facet normal 0.000000 0.000000 1.000000
  outer loop
   vertex -3.714516 -190.520294 79.216232
   vertex -3.787598 -190.421799 79.216232
   vertex -5.248253 -192.227295 79.216232
  endloop
 endfacet
 facet normal 0.000000 0.000000 1.000000
  outer loop
   vertex -5.248253 -192.227295 79.216232
   vertex -3.787598 -190.421799 79.216232
   vertex -3.850655 -190.316605 79.216232
  endloop
 endfacet
 facet normal 0.000000 0.000000 1.000000
  outer loop
   vertex -3.903107 -190.205704 79.216232
   vertex -5.248253 -192.227295 79.216232
   vertex -3.850655 -190.316605 79.216232
  endloop
 endfacet
 facet normal 0.000000 0.000000 1.000000
  outer loop
   vertex -3.903107 -190.205704 79.216232
   vertex -3.944435 -190.090195 79.216232
   vertex -5.248253 -192.227295 79.216232
  endloop
 endfacet
 facet normal 0.000000 0.000000 1.000000
  outer loop
   vertex -5.248253 -192.227295 79.216232
   vertex -3.944435 -190.090195 79.216232
   vertex -3.974236 -189.971207 79.216232
  endloop
 endfacet
 facet normal 0.000000 0.000000 1.000000
  outer loop
   vertex -3.992233 -189.849899 79.216232
   vertex -5.248253 -192.227295 79.216232
   vertex -3.974236 -189.971207 79.216232
  endloop
 endfacet
 facet normal 0.000000 0.000000 1.000000
  outer loop
   vertex -3.992233 -189.849899 79.216232
   vertex -3.998253 -189.727295 79.216232
   vertex -5.248253 -192.227295 79.216232
  endloop
 endfacet
 facet normal 0.000000 0.000000 1.000000
  outer loop
   vertex -5.248253 -192.227295 79.216232
   vertex -3.998253 -189.727295 79.216232
   vertex -3.992233 -189.604797 79.216232
  endloop
 endfacet
 facet normal 0.000000 0.000000 1.000000
  outer loop
   vertex -3.974236 -189.483505 79.216232
   vertex -5.248253 -192.227295 79.216232
   vertex -3.992233 -189.604797 79.216232
  endloop
 endfacet
 facet normal 0.000000 0.000000 1.000000
  outer loop
   vertex -3.974236 -189.483505 79.216232
   vertex -5.248253 -182.116394 79.216232
   vertex -5.248253 -192.227295 79.216232
  endloop
 endfacet
 facet normal 0.000000 0.000000 1.000000
  outer loop
   vertex -3.974236 -189.483505 79.216232
   vertex -3.944435 -189.364502 79.216232
   vertex -5.248253 -182.116394 79.216232
  endloop
 endfacet
 facet normal 0.000000 0.000000 1.000000
  outer loop
   vertex -5.248253 -182.116394 79.216232
   vertex -3.944435 -189.364502 79.216232
   vertex -3.903107 -189.248993 79.216232
  endloop
 endfacet
 facet normal 0.000000 0.000000 1.000000
  outer loop
   vertex -3.850655 -189.138107 79.216232
   vertex -5.248253 -182.116394 79.216232
   vertex -3.903107 -189.248993 79.216232
  endloop
 endfacet
 facet normal 0.000000 0.000000 1.000000
  outer loop
   vertex -3.850655 -189.138107 79.216232
   vertex -3.787598 -189.032898 79.216232
   vertex -5.248253 -182.116394 79.216232
  endloop
 endfacet
 facet normal 0.000000 0.000000 1.000000
  outer loop
   vertex -5.248253 -182.116394 79.216232
   vertex -3.787598 -189.032898 79.216232
   vertex -3.714516 -188.934402 79.216232
  endloop
 endfacet
 facet normal 0.000000 0.000000 1.000000
  outer loop
   vertex -3.632133 -188.843506 79.216232
   vertex -5.248253 -182.116394 79.216232
   vertex -3.714516 -188.934402 79.216232
  endloop
 endfacet
 facet normal 0.000000 0.000000 1.000000
  outer loop
   vertex -3.632133 -188.843506 79.216232
   vertex -3.541245 -188.761093 79.216232
   vertex -5.248253 -182.116394 79.216232
  endloop
 endfacet
 facet normal 0.000000 0.000000 1.000000
  outer loop
   vertex -5.248253 -182.116394 79.216232
   vertex -3.541245 -188.761093 79.216232
   vertex -3.442719 -188.688004 79.216232
  endloop
 endfacet
 facet normal 0.000000 0.000000 1.000000
  outer loop
   vertex -3.337509 -188.624893 79.216232
   vertex -5.248253 -182.116394 79.216232
   vertex -3.442719 -188.688004 79.216232
  endloop
 endfacet
 facet normal 0.000000 0.000000 1.000000
  outer loop
   vertex -3.337509 -188.624893 79.216232
   vertex -3.226616 -188.572495 79.216232
   vertex -5.248253 -182.116394 79.216232
  endloop
 endfacet
 facet normal 0.000000 0.000000 1.000000
  outer loop
   vertex -5.248253 -182.116394 79.216232
   vertex -3.226616 -188.572495 79.216232
   vertex -3.111115 -188.531204 79.216232
  endloop
 endfacet
 facet normal 0.000000 0.000000 1.000000
  outer loop
   vertex -2.992119 -188.501404 79.216232
   vertex -5.248253 -182.116394 79.216232
   vertex -3.111115 -188.531204 79.216232
  endloop
 endfacet
 facet normal 0.000000 0.000000 1.000000
  outer loop
   vertex -2.992119 -188.501404 79.216232
   vertex -2.870773 -188.483398 79.216232
   vertex -5.248253 -182.116394 79.216232
  endloop
 endfacet
 facet normal 0.000000 0.000000 1.000000
  outer loop
   vertex -5.248253 -182.116394 79.216232
   vertex -2.870773 -188.483398 79.216232
   vertex -2.748253 -188.477295 79.216232
  endloop
 endfacet
 facet normal 0.000000 0.000000 1.000000
  outer loop
   vertex -2.625732 -188.483398 79.216232
   vertex -5.248253 -182.116394 79.216232
   vertex -2.748253 -188.477295 79.216232
  endloop
 endfacet
 facet normal 0.000000 0.000000 1.000000
  outer loop
   vertex -2.625732 -188.483398 79.216232
   vertex -2.504395 -188.501404 79.216232
   vertex -5.248253 -182.116394 79.216232
  endloop
 endfacet
 facet normal 0.000000 0.000000 1.000000
  outer loop
   vertex -5.248253 -182.116394 79.216232
   vertex -2.504395 -188.501404 79.216232
   vertex -2.385406 -188.531204 79.216232
  endloop
 endfacet
 facet normal 0.000000 0.000000 1.000000
  outer loop
   vertex -2.269905 -188.572495 79.216232
   vertex -5.248253 -182.116394 79.216232
   vertex -2.385406 -188.531204 79.216232
  endloop
 endfacet
 facet normal 0.000000 0.000000 1.000000
  outer loop
   vertex -2.269905 -188.572495 79.216232
   vertex 2.751747 -182.116394 79.216232
   vertex -5.248253 -182.116394 79.216232
  endloop
 endfacet
 facet normal 0.000000 0.000000 1.000000
  outer loop
   vertex -2.269905 -188.572495 79.216232
   vertex -2.159019 -188.624893 79.216232
   vertex 2.751747 -182.116394 79.216232
  endloop
 endfacet
 facet normal 0.000000 0.000000 1.000000
  outer loop
   vertex 2.751747 -182.116394 79.216232
   vertex -2.159019 -188.624893 79.216232
   vertex -2.053795 -188.688004 79.216232
  endloop
 endfacet
 facet normal 0.000000 0.000000 1.000000
  outer loop
   vertex -1.955269 -188.761093 79.216232
   vertex 2.751747 -182.116394 79.216232
   vertex -2.053795 -188.688004 79.216232
  endloop
 endfacet
 facet normal 0.000000 0.000000 1.000000
  outer loop
   vertex -1.955269 -188.761093 79.216232
   vertex -1.864372 -188.843506 79.216232
   vertex 2.751747 -182.116394 79.216232
  endloop
 endfacet
 facet normal 0.000000 0.000000 1.000000
  outer loop
   vertex 2.751747 -182.116394 79.216232
   vertex -1.864372 -188.843506 79.216232
   vertex -1.781998 -188.934402 79.216232
  endloop
 endfacet
 facet normal 0.000000 0.000000 1.000000
  outer loop
   vertex -1.708916 -189.032898 79.216232
   vertex 2.751747 -182.116394 79.216232
   vertex -1.781998 -188.934402 79.216232
  endloop
 endfacet
 facet normal 0.000000 0.000000 1.000000
  outer loop
   vertex -1.708916 -189.032898 79.216232
   vertex -1.645859 -189.138107 79.216232
   vertex 2.751747 -182.116394 79.216232
  endloop
 endfacet
 facet normal 0.000000 0.000000 1.000000
  outer loop
   vertex 2.751747 -182.116394 79.216232
   vertex -1.645859 -189.138107 79.216232
   vertex -1.593407 -189.248993 79.216232
  endloop
 endfacet
 facet normal 0.000000 0.000000 1.000000
  outer loop
   vertex -1.552086 -189.364502 79.216232
   vertex 2.751747 -182.116394 79.216232
   vertex -1.593407 -189.248993 79.216232
  endloop
 endfacet
 facet normal 0.000000 0.000000 1.000000
  outer loop
   vertex -1.552086 -189.364502 79.216232
   vertex 2.751747 -192.227295 79.216232
   vertex 2.751747 -182.116394 79.216232
  endloop
 endfacet
 facet normal 0.000000 0.000000 1.000000
  outer loop
   vertex -1.552086 -189.364502 79.216232
   vertex -1.522278 -189.483505 79.216232
   vertex 2.751747 -192.227295 79.216232
  endloop
 endfacet
 facet normal 0.000000 0.000000 1.000000
  outer loop
   vertex 2.751747 -192.227295 79.216232
   vertex -1.522278 -189.483505 79.216232
   vertex -1.504272 -189.604797 79.216232
  endloop
 endfacet
 facet normal 0.000000 0.000000 1.000000
  outer loop
   vertex -1.498253 -189.727295 79.216232
   vertex 2.751747 -192.227295 79.216232
   vertex -1.504272 -189.604797 79.216232
  endloop
 endfacet
 facet normal 0.000000 0.000000 1.000000
  outer loop
   vertex -1.498253 -189.727295 79.216232
   vertex -1.504272 -189.849899 79.216232
   vertex 2.751747 -192.227295 79.216232
  endloop
 endfacet
 facet normal 0.000000 0.000000 1.000000
  outer loop
   vertex 2.751747 -192.227295 79.216232
   vertex -1.504272 -189.849899 79.216232
   vertex -1.522278 -189.971207 79.216232
  endloop
 endfacet
 facet normal 0.000000 0.000000 1.000000
  outer loop
   vertex -1.552086 -190.090195 79.216232
   vertex 2.751747 -192.227295 79.216232
   vertex -1.522278 -189.971207 79.216232
  endloop
 endfacet
 facet normal 0.000000 0.000000 1.000000
  outer loop
   vertex -1.552086 -190.090195 79.216232
   vertex -1.593407 -190.205704 79.216232
   vertex 2.751747 -192.227295 79.216232
  endloop
 endfacet
 facet normal 0.000000 0.000000 1.000000
  outer loop
   vertex 2.751747 -192.227295 79.216232
   vertex -1.593407 -190.205704 79.216232
   vertex -1.645859 -190.316605 79.216232
  endloop
 endfacet
 facet normal 0.000000 0.000000 1.000000
  outer loop
   vertex -1.708916 -190.421799 79.216232
   vertex 2.751747 -192.227295 79.216232
   vertex -1.645859 -190.316605 79.216232
  endloop
 endfacet
 facet normal 0.000000 0.000000 1.000000
  outer loop
   vertex -1.708916 -190.421799 79.216232
   vertex -1.781998 -190.520294 79.216232
   vertex 2.751747 -192.227295 79.216232
  endloop
 endfacet
 facet normal 0.000000 0.000000 1.000000
  outer loop
   vertex 2.751747 -192.227295 79.216232
   vertex -1.781998 -190.520294 79.216232
   vertex -1.864372 -190.611206 79.216232
  endloop
 endfacet
 facet normal 0.000000 0.000000 1.000000
  outer loop
   vertex -1.955269 -190.693604 79.216232
   vertex 2.751747 -192.227295 79.216232
   vertex -1.864372 -190.611206 79.216232
  endloop
 endfacet
 facet normal 0.000000 0.000000 1.000000
  outer loop
   vertex -1.955269 -190.693604 79.216232
   vertex -2.053795 -190.766693 79.216232
   vertex 2.751747 -192.227295 79.216232
  endloop
 endfacet
 facet normal 0.000000 0.000000 1.000000
  outer loop
   vertex 2.751747 -192.227295 79.216232
   vertex -2.053795 -190.766693 79.216232
   vertex -2.159019 -190.829697 79.216232
  endloop
 endfacet
 facet normal 0.000000 0.000000 1.000000
  outer loop
   vertex -2.269905 -190.882202 79.216232
   vertex 2.751747 -192.227295 79.216232
   vertex -2.159019 -190.829697 79.216232
  endloop
 endfacet
 facet normal 0.000000 0.000000 1.000000
  outer loop
   vertex -2.504395 -190.953293 79.216232
   vertex -2.625732 -190.971298 79.216232
   vertex -5.248253 -192.227295 79.216232
  endloop
 endfacet
 facet normal 0.000000 -1.000000 0.000000
  outer loop
   vertex 2.751747 -192.227295 75.005516
   vertex 2.751747 -192.227295 79.216232
   vertex -5.248253 -192.227295 75.005516
  endloop
 endfacet
 facet normal 0.000000 -1.000000 0.000000
  outer loop
   vertex -5.248253 -192.227295 75.005516
   vertex 2.751747 -192.227295 79.216232
   vertex -5.248253 -192.227295 79.216232
  endloop
 endfacet
 facet normal 1.000000 0.000000 0.000000
  outer loop
   vertex 2.751747 -188.572296 75.005516
   vertex 2.751747 -188.027496 75.830788
   vertex 2.751747 -192.227295 75.005516
  endloop
 endfacet
 facet normal 1.000000 0.000000 0.000000
  outer loop
   vertex 2.751747 -192.227295 75.005516
   vertex 2.751747 -188.027496 75.830788
   vertex 2.751747 -187.385193 76.582771
  endloop
 endfacet
 facet normal 1.000000 0.000000 0.000000
  outer loop
   vertex 2.751747 -192.227295 79.216232
   vertex 2.751747 -187.385193 76.582771
   vertex 2.751747 -186.655396 77.250046
  endloop
 endfacet
 facet normal 1.000000 0.000000 0.000000
  outer loop
   vertex 2.751747 -185.848999 77.822472
   vertex 2.751747 -192.227295 79.216232
   vertex 2.751747 -186.655396 77.250046
  endloop
 endfacet
 facet normal 1.000000 0.000000 0.000000
  outer loop
   vertex 2.751747 -185.848999 77.822472
   vertex 2.751747 -184.978302 78.291351
   vertex 2.751747 -192.227295 79.216232
  endloop
 endfacet
 facet normal 1.000000 0.000000 0.000000
  outer loop
   vertex 2.751747 -192.227295 79.216232
   vertex 2.751747 -184.978302 78.291351
   vertex 2.751747 -184.056503 78.649567
  endloop
 endfacet
 facet normal 1.000000 0.000000 0.000000
  outer loop
   vertex 2.751747 -183.097702 78.891670
   vertex 2.751747 -192.227295 79.216232
   vertex 2.751747 -184.056503 78.649567
  endloop
 endfacet
 facet normal 1.000000 0.000000 0.000000
  outer loop
   vertex 2.751747 -183.097702 78.891670
   vertex 2.751747 -182.116394 79.216232
   vertex 2.751747 -192.227295 79.216232
  endloop
 endfacet
 facet normal 1.000000 0.000000 0.000000
  outer loop
   vertex 2.751747 -183.097702 78.891670
   vertex 2.751747 -182.116394 79.014000
   vertex 2.751747 -182.116394 79.216232
  endloop
 endfacet
 facet normal 1.000000 0.000000 0.000000
  outer loop
   vertex 2.751747 -192.227295 79.216232
   vertex 2.751747 -192.227295 75.005516
   vertex 2.751747 -187.385193 76.582771
  endloop
 endfacet
 facet normal 0.000000 1.000000 0.000000
  outer loop
   vertex 2.751747 -182.116394 79.216232
   vertex -0.248253 -182.116394 79.171524
   vertex -5.248253 -182.116394 79.216232
  endloop
 endfacet
 facet normal 0.000000 1.000000 0.000000
  outer loop
   vertex 2.751747 -182.116394 79.216232
   vertex 2.751747 -182.116394 79.014000
   vertex -0.248253 -182.116394 79.171524
  endloop
 endfacet
 facet normal 0.000000 1.000000 0.000000
  outer loop
   vertex -0.248253 -182.116394 79.171524
   vertex -0.248253 -182.116394 75.005516
   vertex -5.248253 -182.116394 79.216232
  endloop
 endfacet
 facet normal 0.000000 1.000000 0.000000
  outer loop
   vertex -5.248253 -182.116394 79.216232
   vertex -0.248253 -182.116394 75.005516
   vertex -5.248253 -182.116394 75.005516
  endloop
 endfacet
 facet normal 0.051103 -0.833463 0.550207
  outer loop
   vertex 2.751747 -188.572296 75.005516
   vertex 14.603745 -187.845596 75.005516
   vertex 2.751747 -188.027496 75.830788
  endloop
 endfacet
 facet normal 0.053505 -0.804902 0.590991
  outer loop
   vertex 2.751747 -188.027496 75.830788
   vertex 14.603745 -187.845596 75.005516
   vertex 14.603745 -187.298294 75.750916
  endloop
 endfacet
 facet normal 0.053512 -0.724981 0.686687
  outer loop
   vertex 2.751747 -187.385193 76.582771
   vertex 14.603745 -187.298294 75.750916
   vertex 14.603745 -186.662399 76.422272
  endloop
 endfacet
 facet normal 0.053527 -0.633668 0.771751
  outer loop
   vertex 2.751747 -186.655396 77.250046
   vertex 14.603745 -186.662399 76.422272
   vertex 14.603745 -185.947693 77.009102
  endloop
 endfacet
 facet normal 0.053537 -0.532517 0.844725
  outer loop
   vertex 2.751747 -185.848999 77.822472
   vertex 14.603745 -185.947693 77.009102
   vertex 14.603745 -185.165405 77.502258
  endloop
 endfacet
 facet normal 0.053542 -0.423074 0.904512
  outer loop
   vertex 2.751747 -184.978302 78.291351
   vertex 14.603745 -185.165405 77.502258
   vertex 14.603745 -184.327805 77.894035
  endloop
 endfacet
 facet normal 0.053546 -0.306975 0.950210
  outer loop
   vertex 2.751747 -184.056503 78.649567
   vertex 14.603745 -184.327805 77.894035
   vertex 14.603745 -183.447800 78.178329
  endloop
 endfacet
 facet normal 0.053549 -0.186140 0.981063
  outer loop
   vertex 2.751747 -183.097702 78.891670
   vertex 14.603745 -183.447800 78.178329
   vertex 14.603745 -182.539307 78.350700
  endloop
 endfacet
 facet normal 0.053550 -0.062367 0.996616
  outer loop
   vertex 2.751747 -182.116394 79.014000
   vertex 14.603745 -182.539307 78.350700
   vertex 14.603745 -181.616394 78.408455
  endloop
 endfacet
 facet normal 0.053046 0.062363 0.996643
  outer loop
   vertex -0.248253 -181.356506 79.182686
   vertex 14.603745 -181.616394 78.408455
   vertex 14.603745 -180.693405 78.350700
  endloop
 endfacet
 facet normal 0.052273 0.170106 0.984038
  outer loop
   vertex -0.248253 -180.598801 79.123291
   vertex 14.603745 -180.693405 78.350700
   vertex -0.248253 -179.850006 78.993851
  endloop
 endfacet
 facet normal 0.052286 0.078041 0.995578
  outer loop
   vertex -0.248253 -180.598801 79.123291
   vertex -0.248253 -181.356506 79.182686
   vertex 14.603745 -180.693405 78.350700
  endloop
 endfacet
 facet normal 0.053055 0.186142 0.981089
  outer loop
   vertex 14.603745 -180.693405 78.350700
   vertex 14.603745 -179.784897 78.178329
   vertex -0.248253 -179.850006 78.993851
  endloop
 endfacet
 facet normal 0.051792 0.260670 0.964038
  outer loop
   vertex -0.248253 -179.850006 78.993851
   vertex 14.603745 -179.784897 78.178329
   vertex -0.248253 -179.116394 78.795486
  endloop
 endfacet
 facet normal 0.053303 0.306983 0.950221
  outer loop
   vertex -0.248253 -179.116394 78.795486
   vertex 14.603745 -179.784897 78.178329
   vertex 14.603745 -178.904907 77.894035
  endloop
 endfacet
 facet normal 0.053000 0.423086 0.904538
  outer loop
   vertex -0.248253 -178.398697 78.527489
   vertex 14.603745 -178.904907 77.894035
   vertex 14.603745 -178.067307 77.502258
  endloop
 endfacet
 facet normal 0.052231 0.517436 0.854126
  outer loop
   vertex -0.248253 -177.709198 78.193527
   vertex 14.603745 -178.067307 77.502258
   vertex -0.248253 -177.053894 77.796539
  endloop
 endfacet
 facet normal 0.052328 0.435316 0.898756
  outer loop
   vertex -0.248253 -177.709198 78.193527
   vertex -0.248253 -178.398697 78.527489
   vertex 14.603745 -178.067307 77.502258
  endloop
 endfacet
 facet normal 0.053074 0.532523 0.844750
  outer loop
   vertex 14.603745 -178.067307 77.502258
   vertex 14.603745 -177.285004 77.009102
   vertex -0.248253 -177.053894 77.796539
  endloop
 endfacet
 facet normal 0.051780 0.595136 0.801955
  outer loop
   vertex -0.248253 -177.053894 77.796539
   vertex 14.603745 -177.285004 77.009102
   vertex -0.248253 -176.438705 77.340004
  endloop
 endfacet
 facet normal 0.053303 0.633676 0.771760
  outer loop
   vertex -0.248253 -176.438705 77.340004
   vertex 14.603745 -177.285004 77.009102
   vertex 14.603745 -176.570297 76.422272
  endloop
 endfacet
 facet normal 0.052995 0.725001 0.686706
  outer loop
   vertex -0.248253 -175.868896 76.827927
   vertex 14.603745 -176.570297 76.422272
   vertex 14.603745 -175.934402 75.750916
  endloop
 endfacet
 facet normal 0.052224 0.794148 0.605476
  outer loop
   vertex -0.248253 -175.349503 76.264793
   vertex 14.603745 -175.934402 75.750916
   vertex -0.248253 -174.884995 75.655540
  endloop
 endfacet
 facet normal 0.052335 0.734070 0.677054
  outer loop
   vertex -0.248253 -175.349503 76.264793
   vertex -0.248253 -175.868896 76.827927
   vertex 14.603745 -175.934402 75.750916
  endloop
 endfacet
 facet normal 0.053079 0.804920 0.591005
  outer loop
   vertex 14.603745 -175.934402 75.750916
   vertex 14.603745 -175.387100 75.005516
   vertex -0.248253 -174.884995 75.655540
  endloop
 endfacet
 facet normal 0.051777 0.847370 0.528473
  outer loop
   vertex -0.248253 -174.884995 75.655540
   vertex 14.603745 -175.387100 75.005516
   vertex -0.248253 -174.479599 75.005516
  endloop
 endfacet
 facet normal 0.051812 0.667525 0.742782
  outer loop
   vertex -0.248253 -175.868896 76.827927
   vertex -0.248253 -176.438705 77.340004
   vertex 14.603745 -176.570297 76.422272
  endloop
 endfacet
 facet normal 0.051810 0.349350 0.935559
  outer loop
   vertex -0.248253 -178.398697 78.527489
   vertex -0.248253 -179.116394 78.795486
   vertex 14.603745 -178.904907 77.894035
  endloop
 endfacet
 facet normal 0.052430 -0.014667 0.998517
  outer loop
   vertex -0.248253 -182.116394 79.171524
   vertex 2.751747 -182.116394 79.014000
   vertex -0.248253 -181.356506 79.182686
  endloop
 endfacet
 facet normal 0.051748 -0.017357 0.998509
  outer loop
   vertex -0.248253 -181.356506 79.182686
   vertex 2.751747 -182.116394 79.014000
   vertex 14.603745 -181.616394 78.408455
  endloop
 endfacet
 facet normal 0.051055 -0.123541 0.991025
  outer loop
   vertex 2.751747 -182.116394 79.014000
   vertex 2.751747 -183.097702 78.891670
   vertex 14.603745 -182.539307 78.350700
  endloop
 endfacet
 facet normal 0.051057 -0.244503 0.968303
  outer loop
   vertex 2.751747 -183.097702 78.891670
   vertex 2.751747 -184.056503 78.649567
   vertex 14.603745 -183.447800 78.178329
  endloop
 endfacet
 facet normal 0.051060 -0.361744 0.930878
  outer loop
   vertex 2.751747 -184.056503 78.649567
   vertex 2.751747 -184.978302 78.291351
   vertex 14.603745 -184.327805 77.894035
  endloop
 endfacet
 facet normal 0.051068 -0.473515 0.879304
  outer loop
   vertex 2.751747 -184.978302 78.291351
   vertex 2.751747 -185.848999 77.822472
   vertex 14.603745 -185.165405 77.502258
  endloop
 endfacet
 facet normal 0.051074 -0.578089 0.814374
  outer loop
   vertex 2.751747 -185.848999 77.822472
   vertex 2.751747 -186.655396 77.250046
   vertex 14.603745 -185.947693 77.009102
  endloop
 endfacet
 facet normal 0.051079 -0.673906 0.737050
  outer loop
   vertex 2.751747 -186.655396 77.250046
   vertex 2.751747 -187.385193 76.582771
   vertex 14.603745 -186.662399 76.422272
  endloop
 endfacet
 facet normal 0.051093 -0.759389 0.648628
  outer loop
   vertex 2.751747 -187.385193 76.582771
   vertex 2.751747 -188.027496 75.830788
   vertex 14.603745 -187.298294 75.750916
  endloop
 endfacet
 facet normal 1.000000 0.000000 0.000000
  outer loop
   vertex -0.248253 -179.116394 78.843376
   vertex -0.248253 -179.116394 78.795486
   vertex -0.248253 -178.389603 78.573204
  endloop
 endfacet
 facet normal 1.000000 0.000000 0.000000
  outer loop
   vertex -0.248253 -178.389603 78.573204
   vertex -0.248253 -179.116394 78.795486
   vertex -0.248253 -178.398697 78.527489
  endloop
 endfacet
 facet normal 1.000000 0.000000 0.000000
  outer loop
   vertex -0.248253 -177.691406 78.235794
   vertex -0.248253 -178.398697 78.527489
   vertex -0.248253 -177.709198 78.193527
  endloop
 endfacet
 facet normal 1.000000 0.000000 0.000000
  outer loop
   vertex -0.248253 -177.028107 77.834167
   vertex -0.248253 -177.709198 78.193527
   vertex -0.248253 -177.053894 77.796539
  endloop
 endfacet
 facet normal 1.000000 0.000000 0.000000
  outer loop
   vertex -0.248253 -176.405594 77.371872
   vertex -0.248253 -177.053894 77.796539
   vertex -0.248253 -176.438705 77.340004
  endloop
 endfacet
 facet normal 1.000000 0.000000 0.000000
  outer loop
   vertex -0.248253 -175.829407 76.853027
   vertex -0.248253 -176.438705 77.340004
   vertex -0.248253 -175.868896 76.827927
  endloop
 endfacet
 facet normal 1.000000 0.000000 0.000000
  outer loop
   vertex -0.248253 -175.304596 76.282234
   vertex -0.248253 -175.868896 76.827927
   vertex -0.248253 -175.349503 76.264793
  endloop
 endfacet
 facet normal 1.000000 0.000000 0.000000
  outer loop
   vertex -0.248253 -174.835800 75.664566
   vertex -0.248253 -175.349503 76.264793
   vertex -0.248253 -174.884995 75.655540
  endloop
 endfacet
 facet normal 1.000000 0.000000 0.000000
  outer loop
   vertex -0.248253 -174.427307 75.005516
   vertex -0.248253 -174.884995 75.655540
   vertex -0.248253 -174.479599 75.005516
  endloop
 endfacet
 facet normal 1.000000 0.000000 0.000000
  outer loop
   vertex -0.248253 -174.427307 75.005516
   vertex -0.248253 -174.835800 75.664566
   vertex -0.248253 -174.884995 75.655540
  endloop
 endfacet
 facet normal 1.000000 0.000000 0.000000
  outer loop
   vertex -0.248253 -174.835800 75.664566
   vertex -0.248253 -175.304596 76.282234
   vertex -0.248253 -175.349503 76.264793
  endloop
 endfacet
 facet normal 1.000000 0.000000 0.000000
  outer loop
   vertex -0.248253 -175.304596 76.282234
   vertex -0.248253 -175.829407 76.853027
   vertex -0.248253 -175.868896 76.827927
  endloop
 endfacet
 facet normal 1.000000 0.000000 0.000000
  outer loop
   vertex -0.248253 -175.829407 76.853027
   vertex -0.248253 -176.405594 77.371872
   vertex -0.248253 -176.438705 77.340004
  endloop
 endfacet
 facet normal 1.000000 0.000000 0.000000
  outer loop
   vertex -0.248253 -176.405594 77.371872
   vertex -0.248253 -177.028107 77.834167
   vertex -0.248253 -177.053894 77.796539
  endloop
 endfacet
 facet normal 1.000000 0.000000 0.000000
  outer loop
   vertex -0.248253 -177.028107 77.834167
   vertex -0.248253 -177.691406 78.235794
   vertex -0.248253 -177.709198 78.193527
  endloop
 endfacet
 facet normal 1.000000 0.000000 0.000000
  outer loop
   vertex -0.248253 -177.691406 78.235794
   vertex -0.248253 -178.389603 78.573204
   vertex -0.248253 -178.398697 78.527489
  endloop
 endfacet
 facet normal 0.000000 0.849971 0.526830
  outer loop
   vertex -0.248253 -174.427307 75.005516
   vertex -5.248253 -174.427307 75.005516
   vertex -0.248253 -174.835800 75.664566
  endloop
 endfacet
 facet normal 0.000000 0.849971 0.526830
  outer loop
   vertex -0.248253 -174.835800 75.664566
   vertex -5.248253 -174.427307 75.005516
   vertex -5.248253 -174.835800 75.664566
  endloop
 endfacet
 facet normal 0.000000 0.796555 0.604567
  outer loop
   vertex -5.248253 -175.304596 76.282234
   vertex -0.248253 -174.835800 75.664566
   vertex -5.248253 -174.835800 75.664566
  endloop
 endfacet
 facet normal 0.000000 0.796555 0.604567
  outer loop
   vertex -5.248253 -175.304596 76.282234
   vertex -0.248253 -175.304596 76.282234
   vertex -0.248253 -174.835800 75.664566
  endloop
 endfacet
 facet normal 0.000000 0.736136 0.676834
  outer loop
   vertex -5.248253 -175.304596 76.282234
   vertex -5.248253 -175.829407 76.853027
   vertex -0.248253 -175.304596 76.282234
  endloop
 endfacet
 facet normal 0.000000 0.736136 0.676834
  outer loop
   vertex -0.248253 -175.304596 76.282234
   vertex -5.248253 -175.829407 76.853027
   vertex -0.248253 -175.829407 76.853027
  endloop
 endfacet
 facet normal 0.000000 0.669161 0.743117
  outer loop
   vertex -0.248253 -175.829407 76.853027
   vertex -5.248253 -175.829407 76.853027
   vertex -5.248253 -176.405594 77.371872
  endloop
 endfacet
 facet normal 0.000000 0.596206 0.802832
  outer loop
   vertex -0.248253 -176.405594 77.371872
   vertex -5.248253 -176.405594 77.371872
   vertex -5.248253 -177.028107 77.834167
  endloop
 endfacet
 facet normal 0.000000 0.517950 0.855411
  outer loop
   vertex -0.248253 -177.028107 77.834167
   vertex -5.248253 -177.028107 77.834167
   vertex -5.248253 -177.691406 78.235794
  endloop
 endfacet
 facet normal 0.000000 0.435115 0.900375
  outer loop
   vertex -0.248253 -177.691406 78.235794
   vertex -5.248253 -177.691406 78.235794
   vertex -5.248253 -178.389603 78.573204
  endloop
 endfacet
 facet normal 0.000000 0.348437 0.937332
  outer loop
   vertex -0.248253 -178.389603 78.573204
   vertex -5.248253 -178.389603 78.573204
   vertex -0.248253 -179.116394 78.843376
  endloop
 endfacet
 facet normal 0.000000 0.435115 0.900375
  outer loop
   vertex -0.248253 -178.389603 78.573204
   vertex -0.248253 -177.691406 78.235794
   vertex -5.248253 -178.389603 78.573204
  endloop
 endfacet
 facet normal 0.000000 0.348437 0.937332
  outer loop
   vertex -5.248253 -178.389603 78.573204
   vertex -5.248253 -179.116394 78.843376
   vertex -0.248253 -179.116394 78.843376
  endloop
 endfacet
 facet normal 0.000000 0.517950 0.855411
  outer loop
   vertex -0.248253 -177.691406 78.235794
   vertex -0.248253 -177.028107 77.834167
   vertex -5.248253 -177.691406 78.235794
  endloop
 endfacet
 facet normal 0.000000 0.596206 0.802832
  outer loop
   vertex -0.248253 -177.028107 77.834167
   vertex -0.248253 -176.405594 77.371872
   vertex -5.248253 -177.028107 77.834167
  endloop
 endfacet
 facet normal 0.000000 0.669161 0.743117
  outer loop
   vertex -0.248253 -176.405594 77.371872
   vertex -0.248253 -175.829407 76.853027
   vertex -5.248253 -176.405594 77.371872
  endloop
 endfacet
 facet normal 0.000000 -1.000000 0.000000
  outer loop
   vertex -0.248253 -179.116394 78.843376
   vertex -5.248253 -179.116394 78.843376
   vertex -0.248253 -179.116394 78.795486
  endloop
 endfacet
 facet normal 0.000000 -1.000000 0.000000
  outer loop
   vertex -0.248253 -179.116394 78.795486
   vertex -5.248253 -179.116394 78.843376
   vertex -5.248253 -179.116394 75.005516
  endloop
 endfacet
 facet normal 0.000000 -1.000000 0.000000
  outer loop
   vertex -0.248253 -179.116394 75.005516
   vertex -0.248253 -179.116394 78.795486
   vertex -5.248253 -179.116394 75.005516
  endloop
 endfacet
 facet normal -1.000000 0.000000 0.000000
  outer loop
   vertex -5.248253 -174.427307 75.005516
   vertex -5.248253 -179.116394 75.005516
   vertex -5.248253 -174.835800 75.664566
  endloop
 endfacet
 facet normal -1.000000 0.000000 0.000000
  outer loop
   vertex -5.248253 -174.835800 75.664566
   vertex -5.248253 -179.116394 75.005516
   vertex -5.248253 -175.304596 76.282234
  endloop
 endfacet
 facet normal -1.000000 0.000000 0.000000
  outer loop
   vertex -5.248253 -175.304596 76.282234
   vertex -5.248253 -179.116394 75.005516
   vertex -5.248253 -175.829407 76.853027
  endloop
 endfacet
 facet normal -1.000000 0.000000 0.000000
  outer loop
   vertex -5.248253 -175.829407 76.853027
   vertex -5.248253 -179.116394 75.005516
   vertex -5.248253 -176.405594 77.371872
  endloop
 endfacet
 facet normal -1.000000 0.000000 0.000000
  outer loop
   vertex -5.248253 -176.405594 77.371872
   vertex -5.248253 -179.116394 75.005516
   vertex -5.248253 -177.028107 77.834167
  endloop
 endfacet
 facet normal -1.000000 0.000000 0.000000
  outer loop
   vertex -5.248253 -177.028107 77.834167
   vertex -5.248253 -179.116394 75.005516
   vertex -5.248253 -177.691406 78.235794
  endloop
 endfacet
 facet normal -1.000000 0.000000 0.000000
  outer loop
   vertex -5.248253 -177.691406 78.235794
   vertex -5.248253 -179.116394 75.005516
   vertex -5.248253 -178.389603 78.573204
  endloop
 endfacet
 facet normal -1.000000 0.000000 0.000000
  outer loop
   vertex -5.248253 -178.389603 78.573204
   vertex -5.248253 -179.116394 75.005516
   vertex -5.248253 -179.116394 78.843376
  endloop
 endfacet
 facet normal -1.000000 0.000000 0.000000
  outer loop
   vertex -0.248253 -179.116394 78.795486
   vertex -0.248253 -179.116394 75.005516
   vertex -0.248253 -179.850006 78.993851
  endloop
 endfacet
 facet normal -1.000000 0.000000 0.000000
  outer loop
   vertex -0.248253 -179.850006 78.993851
   vertex -0.248253 -179.116394 75.005516
   vertex -0.248253 -180.598801 79.123291
  endloop
 endfacet
 facet normal -1.000000 0.000000 0.000000
  outer loop
   vertex -0.248253 -180.598801 79.123291
   vertex -0.248253 -179.116394 75.005516
   vertex -0.248253 -182.116394 75.005516
  endloop
 endfacet
 facet normal -1.000000 0.000000 0.000000
  outer loop
   vertex -0.248253 -181.356506 79.182686
   vertex -0.248253 -182.116394 75.005516
   vertex -0.248253 -182.116394 79.171524
  endloop
 endfacet
 facet normal -1.000000 0.000000 0.000000
  outer loop
   vertex -0.248253 -181.356506 79.182686
   vertex -0.248253 -180.598801 79.123291
   vertex -0.248253 -182.116394 75.005516
  endloop
 endfacet
endsolid JacktheRipperBot-Toolhead-1-GripperFixed-1
