solid JacktheRipperBot-Toolhead-1-GripperMoving-1
 facet normal -0.052335 0.000004 0.998630
  outer loop
   vertex -21.104164 -183.338898 78.541016
   vertex -19.411613 -182.913498 78.629715
   vertex -21.706947 -182.441299 78.509422
  endloop
 endfacet
 facet normal -0.052338 -0.000012 0.998629
  outer loop
   vertex -21.706947 -182.441299 78.509422
   vertex -19.411613 -182.913498 78.629715
   vertex -21.912857 -182.117493 78.498634
  endloop
 endfacet
 facet normal -0.052334 0.000000 0.998630
  outer loop
   vertex -21.912857 -182.117493 78.498634
   vertex -19.411613 -182.913498 78.629715
   vertex -18.198479 -182.483597 78.693291
  endloop
 endfacet
 facet normal -0.052336 -0.000021 0.998629
  outer loop
   vertex -17.773048 -182.267395 78.715591
   vertex -21.912857 -182.117493 78.498634
   vertex -18.198479 -182.483597 78.693291
  endloop
 endfacet
 facet normal -0.052336 -0.000008 0.998630
  outer loop
   vertex -17.773048 -182.267395 78.715591
   vertex -17.605797 -182.159103 78.724358
   vertex -21.912857 -182.117493 78.498634
  endloop
 endfacet
 facet normal -0.052336 0.000017 0.998630
  outer loop
   vertex -21.912857 -182.117493 78.498634
   vertex -17.605797 -182.159103 78.724358
   vertex -17.468918 -182.050705 78.731529
  endloop
 endfacet
 facet normal -0.052336 0.000003 0.998630
  outer loop
   vertex -22.006397 -181.955902 78.493729
   vertex -17.468918 -182.050705 78.731529
   vertex -17.320564 -181.887894 78.739304
  endloop
 endfacet
 facet normal -0.052337 0.000012 0.998630
  outer loop
   vertex -22.058308 -181.852600 78.491005
   vertex -17.320564 -181.887894 78.739304
   vertex -17.259689 -181.779297 78.742493
  endloop
 endfacet
 facet normal -0.052336 -0.000049 0.998630
  outer loop
   vertex -22.088818 -181.778107 78.489410
   vertex -17.259689 -181.779297 78.742493
   vertex -17.240669 -181.725006 78.743492
  endloop
 endfacet
 facet normal -0.052336 0.000064 0.998630
  outer loop
   vertex -22.106998 -181.718094 78.488457
   vertex -17.240669 -181.725006 78.743492
   vertex -17.229248 -181.670700 78.744087
  endloop
 endfacet
 facet normal -0.052336 0.000014 0.998630
  outer loop
   vertex -22.119907 -181.616699 78.487778
   vertex -17.229248 -181.670700 78.744087
   vertex -17.225449 -181.616394 78.744286
  endloop
 endfacet
 facet normal -0.052336 -0.000014 0.998630
  outer loop
   vertex -22.116879 -181.567703 78.487938
   vertex -17.225449 -181.616394 78.744286
   vertex -17.229248 -181.561996 78.744087
  endloop
 endfacet
 facet normal -0.052337 -0.000064 0.998629
  outer loop
   vertex -22.107216 -181.515503 78.488441
   vertex -17.229248 -181.561996 78.744087
   vertex -17.240669 -181.507706 78.743492
  endloop
 endfacet
 facet normal -0.052336 0.000027 0.998630
  outer loop
   vertex -22.089207 -181.455704 78.489388
   vertex -17.240669 -181.507706 78.743492
   vertex -17.286324 -181.399094 78.741096
  endloop
 endfacet
 facet normal -0.052335 0.000020 0.998630
  outer loop
   vertex -22.058689 -181.380997 78.490990
   vertex -17.286324 -181.399094 78.741096
   vertex -17.362419 -181.290497 78.737106
  endloop
 endfacet
 facet normal -0.052335 -0.000038 0.998630
  outer loop
   vertex -22.007446 -181.278793 78.493675
   vertex -17.362419 -181.290497 78.737106
   vertex -17.468918 -181.182007 78.731529
  endloop
 endfacet
 facet normal -0.052337 -0.000018 0.998629
  outer loop
   vertex -21.914959 -181.118698 78.498520
   vertex -17.468918 -181.182007 78.731529
   vertex -17.605797 -181.073593 78.724358
  endloop
 endfacet
 facet normal -0.052337 0.000007 0.998630
  outer loop
   vertex -17.773048 -180.965302 78.715591
   vertex -21.914959 -181.118698 78.498520
   vertex -17.605797 -181.073593 78.724358
  endloop
 endfacet
 facet normal -0.052337 0.000020 0.998630
  outer loop
   vertex -17.773048 -180.965302 78.715591
   vertex -18.198479 -180.749100 78.693291
   vertex -21.914959 -181.118698 78.498520
  endloop
 endfacet
 facet normal -0.052335 -0.000003 0.998630
  outer loop
   vertex -21.914959 -181.118698 78.498520
   vertex -18.198479 -180.749100 78.693291
   vertex -19.411613 -180.319199 78.629715
  endloop
 endfacet
 facet normal -0.052334 -0.000001 0.998630
  outer loop
   vertex -21.711807 -180.798904 78.509171
   vertex -19.411613 -180.319199 78.629715
   vertex -21.104164 -179.893799 78.541016
  endloop
 endfacet
 facet normal -0.052331 -0.000015 0.998630
  outer loop
   vertex -21.711807 -180.798904 78.509171
   vertex -21.914959 -181.118698 78.498520
   vertex -19.411613 -180.319199 78.629715
  endloop
 endfacet
 facet normal -0.051824 -0.000465 0.998656
  outer loop
   vertex -17.468918 -182.050705 78.731529
   vertex -17.362419 -181.942200 78.737106
   vertex -17.320564 -181.887894 78.739304
  endloop
 endfacet
 facet normal -0.052086 -0.000129 0.998643
  outer loop
   vertex -17.320564 -181.887894 78.739304
   vertex -17.286324 -181.833603 78.741096
   vertex -17.259689 -181.779297 78.742493
  endloop
 endfacet
 facet normal -0.052034 0.000155 0.998645
  outer loop
   vertex -17.240669 -181.507706 78.743492
   vertex -17.259689 -181.453400 78.742493
   vertex -17.286324 -181.399094 78.741096
  endloop
 endfacet
 facet normal -0.053032 -0.000469 0.998593
  outer loop
   vertex -17.286324 -181.399094 78.741096
   vertex -17.320564 -181.344803 78.739304
   vertex -17.362419 -181.290497 78.737106
  endloop
 endfacet
 facet normal -0.052336 0.000015 0.998630
  outer loop
   vertex -21.914959 -181.118698 78.498520
   vertex -22.007446 -181.278793 78.493675
   vertex -17.468918 -181.182007 78.731529
  endloop
 endfacet
 facet normal -0.052335 -0.000001 0.998630
  outer loop
   vertex -22.007446 -181.278793 78.493675
   vertex -22.058689 -181.380997 78.490990
   vertex -17.362419 -181.290497 78.737106
  endloop
 endfacet
 facet normal -0.052336 -0.000038 0.998630
  outer loop
   vertex -22.058689 -181.380997 78.490990
   vertex -22.089207 -181.455704 78.489388
   vertex -17.286324 -181.399094 78.741096
  endloop
 endfacet
 facet normal -0.052337 -0.000037 0.998629
  outer loop
   vertex -22.089207 -181.455704 78.489388
   vertex -22.107216 -181.515503 78.488441
   vertex -17.240669 -181.507706 78.743492
  endloop
 endfacet
 facet normal -0.052336 0.000055 0.998630
  outer loop
   vertex -22.107216 -181.515503 78.488441
   vertex -22.116879 -181.567703 78.487938
   vertex -17.229248 -181.561996 78.744087
  endloop
 endfacet
 facet normal -0.052336 -0.000030 0.998630
  outer loop
   vertex -22.116879 -181.567703 78.487938
   vertex -22.119907 -181.616699 78.487778
   vertex -17.225449 -181.616394 78.744286
  endloop
 endfacet
 facet normal -0.051155 0.000175 0.998691
  outer loop
   vertex -22.116798 -181.665695 78.487946
   vertex -22.106998 -181.718094 78.488457
   vertex -22.119907 -181.616699 78.487778
  endloop
 endfacet
 facet normal -0.052336 0.000025 0.998630
  outer loop
   vertex -22.119907 -181.616699 78.487778
   vertex -22.106998 -181.718094 78.488457
   vertex -17.229248 -181.670700 78.744087
  endloop
 endfacet
 facet normal -0.052336 0.000014 0.998630
  outer loop
   vertex -22.106998 -181.718094 78.488457
   vertex -22.088818 -181.778107 78.489410
   vertex -17.240669 -181.725006 78.743492
  endloop
 endfacet
 facet normal -0.052336 -0.000059 0.998630
  outer loop
   vertex -22.088818 -181.778107 78.489410
   vertex -22.058308 -181.852600 78.491005
   vertex -17.259689 -181.779297 78.742493
  endloop
 endfacet
 facet normal -0.052337 0.000030 0.998630
  outer loop
   vertex -22.058308 -181.852600 78.491005
   vertex -22.006397 -181.955902 78.493729
   vertex -17.320564 -181.887894 78.739304
  endloop
 endfacet
 facet normal -0.052336 0.000022 0.998630
  outer loop
   vertex -22.006397 -181.955902 78.493729
   vertex -21.912857 -182.117493 78.498634
   vertex -17.468918 -182.050705 78.731529
  endloop
 endfacet
 facet normal -0.819050 -0.555133 -0.144863
  outer loop
   vertex -21.104164 -183.338898 78.541016
   vertex -21.706947 -182.441299 78.509422
   vertex -20.277809 -184.462601 78.175003
  endloop
 endfacet
 facet normal -0.817025 -0.547991 -0.179375
  outer loop
   vertex -20.277809 -184.462601 78.175003
   vertex -21.706947 -182.441299 78.509422
   vertex -19.453568 -185.514496 77.634254
  endloop
 endfacet
 facet normal -0.813499 -0.525600 -0.248925
  outer loop
   vertex -19.453568 -185.514496 77.634254
   vertex -21.706947 -182.441299 78.509422
   vertex -21.912857 -182.117493 78.498634
  endloop
 endfacet
 facet normal -0.813414 -0.514439 -0.271496
  outer loop
   vertex -18.545967 -186.567703 76.843689
   vertex -21.912857 -182.117493 78.498634
   vertex -17.652870 -187.468002 75.873848
  endloop
 endfacet
 facet normal -0.815433 -0.532718 -0.226451
  outer loop
   vertex -18.545967 -186.567703 76.843689
   vertex -19.453568 -185.514496 77.634254
   vertex -21.912857 -182.117493 78.498634
  endloop
 endfacet
 facet normal -0.810016 -0.478909 -0.338408
  outer loop
   vertex -17.652870 -187.468002 75.873848
   vertex -21.912857 -182.117493 78.498634
   vertex -18.172989 -186.214294 75.344582
  endloop
 endfacet
 facet normal -0.817563 -0.475989 -0.324075
  outer loop
   vertex -17.225449 -187.841797 75.344582
   vertex -17.652870 -187.468002 75.873848
   vertex -18.172989 -186.214294 75.344582
  endloop
 endfacet
 facet normal -0.799666 -0.052791 -0.598120
  outer loop
   vertex -22.119907 -181.616699 78.487778
   vertex -19.768616 -181.621201 75.344582
   vertex -22.116798 -181.665695 78.487946
  endloop
 endfacet
 facet normal -0.799653 0.051390 -0.598260
  outer loop
   vertex -22.119907 -181.616699 78.487778
   vertex -22.116879 -181.567703 78.487938
   vertex -19.768616 -181.621201 75.344582
  endloop
 endfacet
 facet normal -0.799660 0.051242 -0.598263
  outer loop
   vertex -19.768616 -181.621201 75.344582
   vertex -22.116879 -181.567703 78.487938
   vertex -19.727028 -180.972198 75.344582
  endloop
 endfacet
 facet normal -0.800404 0.153749 -0.579409
  outer loop
   vertex -19.727028 -180.972198 75.344582
   vertex -22.116879 -181.567703 78.487938
   vertex -22.107216 -181.515503 78.488441
  endloop
 endfacet
 facet normal -0.801909 0.250088 -0.542585
  outer loop
   vertex -19.593750 -180.276901 75.344582
   vertex -22.107216 -181.515503 78.488441
   vertex -22.089207 -181.455704 78.489388
  endloop
 endfacet
 facet normal -0.804038 0.338924 -0.488521
  outer loop
   vertex -19.342751 -179.473099 75.344582
   vertex -22.089207 -181.455704 78.489388
   vertex -22.058689 -181.380997 78.490990
  endloop
 endfacet
 facet normal -0.806757 0.415531 -0.420091
  outer loop
   vertex -18.917557 -178.463394 75.344582
   vertex -22.058689 -181.380997 78.490990
   vertex -22.007446 -181.278793 78.493675
  endloop
 endfacet
 facet normal -0.809959 0.478190 -0.339560
  outer loop
   vertex -18.186249 -177.042603 75.344582
   vertex -22.007446 -181.278793 78.493675
   vertex -21.914959 -181.118698 78.498520
  endloop
 endfacet
 facet normal -0.813361 0.513799 -0.272864
  outer loop
   vertex -17.626389 -175.740402 75.842278
   vertex -21.914959 -181.118698 78.498520
   vertex -18.519089 -176.635803 76.817238
  endloop
 endfacet
 facet normal -0.809963 0.478070 -0.339720
  outer loop
   vertex -17.626389 -175.740402 75.842278
   vertex -18.186249 -177.042603 75.344582
   vertex -21.914959 -181.118698 78.498520
  endloop
 endfacet
 facet normal -0.817570 0.475583 -0.324654
  outer loop
   vertex -17.626389 -175.740402 75.842278
   vertex -17.225449 -175.390900 75.344582
   vertex -18.186249 -177.042603 75.344582
  endloop
 endfacet
 facet normal -0.800419 -0.155348 -0.578962
  outer loop
   vertex -22.116798 -181.665695 78.487946
   vertex -19.725746 -182.270493 75.344582
   vertex -22.106998 -181.718094 78.488457
  endloop
 endfacet
 facet normal -0.799665 -0.052798 -0.598120
  outer loop
   vertex -22.116798 -181.665695 78.487946
   vertex -19.768616 -181.621201 75.344582
   vertex -19.725746 -182.270493 75.344582
  endloop
 endfacet
 facet normal -0.801933 -0.251556 -0.541870
  outer loop
   vertex -22.106998 -181.718094 78.488457
   vertex -19.590965 -182.966797 75.344582
   vertex -22.088818 -181.778107 78.489410
  endloop
 endfacet
 facet normal -0.800436 -0.154937 -0.579048
  outer loop
   vertex -22.106998 -181.718094 78.488457
   vertex -19.725746 -182.270493 75.344582
   vertex -19.590965 -182.966797 75.344582
  endloop
 endfacet
 facet normal -0.815374 0.532170 -0.227947
  outer loop
   vertex -18.519089 -176.635803 76.817238
   vertex -21.914959 -181.118698 78.498520
   vertex -19.426331 -177.684799 77.613464
  endloop
 endfacet
 facet normal -0.813477 0.525096 -0.250057
  outer loop
   vertex -19.426331 -177.684799 77.613464
   vertex -21.914959 -181.118698 78.498520
   vertex -21.711807 -180.798904 78.509171
  endloop
 endfacet
 facet normal -0.819026 0.554976 -0.145597
  outer loop
   vertex -20.264137 -178.752106 78.167442
   vertex -21.711807 -180.798904 78.509171
   vertex -21.104164 -179.893799 78.541016
  endloop
 endfacet
 facet normal -0.816991 0.547748 -0.180270
  outer loop
   vertex -20.264137 -178.752106 78.167442
   vertex -19.426331 -177.684799 77.613464
   vertex -21.711807 -180.798904 78.509171
  endloop
 endfacet
 facet normal -0.806766 0.415258 -0.420344
  outer loop
   vertex -18.186249 -177.042603 75.344582
   vertex -18.917557 -178.463394 75.344582
   vertex -22.007446 -181.278793 78.493675
  endloop
 endfacet
 facet normal -0.804050 0.338591 -0.488733
  outer loop
   vertex -18.917557 -178.463394 75.344582
   vertex -19.342751 -179.473099 75.344582
   vertex -22.058689 -181.380997 78.490990
  endloop
 endfacet
 facet normal -0.801897 0.250404 -0.542457
  outer loop
   vertex -19.342751 -179.473099 75.344582
   vertex -19.593750 -180.276901 75.344582
   vertex -22.089207 -181.455704 78.489388
  endloop
 endfacet
 facet normal -0.800418 0.153428 -0.579475
  outer loop
   vertex -19.593750 -180.276901 75.344582
   vertex -19.727028 -180.972198 75.344582
   vertex -22.107216 -181.515503 78.488441
  endloop
 endfacet
 facet normal -0.801924 -0.251787 -0.541776
  outer loop
   vertex -19.590965 -182.966797 75.344582
   vertex -19.337898 -183.772797 75.344582
   vertex -22.088818 -181.778107 78.489410
  endloop
 endfacet
 facet normal -0.804083 -0.339768 -0.487860
  outer loop
   vertex -22.088818 -181.778107 78.489410
   vertex -19.337898 -183.772797 75.344582
   vertex -22.058308 -181.852600 78.491005
  endloop
 endfacet
 facet normal -0.804084 -0.339757 -0.487867
  outer loop
   vertex -22.058308 -181.852600 78.491005
   vertex -19.337898 -183.772797 75.344582
   vertex -18.909569 -184.786499 75.344582
  endloop
 endfacet
 facet normal -0.806816 -0.416225 -0.419290
  outer loop
   vertex -22.006397 -181.955902 78.493729
   vertex -18.909569 -184.786499 75.344582
   vertex -18.172989 -186.214294 75.344582
  endloop
 endfacet
 facet normal -0.810008 -0.479154 -0.338080
  outer loop
   vertex -21.912857 -182.117493 78.498634
   vertex -22.006397 -181.955902 78.493729
   vertex -18.172989 -186.214294 75.344582
  endloop
 endfacet
 facet normal -0.806808 -0.416479 -0.419054
  outer loop
   vertex -22.058308 -181.852600 78.491005
   vertex -18.909569 -184.786499 75.344582
   vertex -22.006397 -181.955902 78.493729
  endloop
 endfacet
 facet normal -0.001251 0.142837 0.989745
  outer loop
   vertex -18.198479 -180.749100 78.693291
   vertex -17.225449 -180.694107 78.686584
   vertex -19.411613 -180.319199 78.629715
  endloop
 endfacet
 facet normal 0.000951 0.104455 0.994529
  outer loop
   vertex -18.198479 -180.749100 78.693291
   vertex -17.773048 -180.965302 78.715591
   vertex -17.225449 -180.694107 78.686584
  endloop
 endfacet
 facet normal 0.007268 0.091830 0.995748
  outer loop
   vertex -17.225449 -180.694107 78.686584
   vertex -17.773048 -180.965302 78.715591
   vertex -17.605797 -181.073593 78.724358
  endloop
 endfacet
 facet normal 0.014687 0.084451 0.996319
  outer loop
   vertex -17.468918 -181.182007 78.731529
   vertex -17.225449 -180.694107 78.686584
   vertex -17.605797 -181.073593 78.724358
  endloop
 endfacet
 facet normal 0.027402 0.078129 0.996567
  outer loop
   vertex -17.468918 -181.182007 78.731529
   vertex -17.362419 -181.290497 78.737106
   vertex -17.225449 -180.694107 78.686584
  endloop
 endfacet
 facet normal 0.044070 0.074275 0.996264
  outer loop
   vertex -17.225449 -180.694107 78.686584
   vertex -17.362419 -181.290497 78.737106
   vertex -17.320564 -181.344803 78.739304
  endloop
 endfacet
 facet normal 0.061505 0.071667 0.995531
  outer loop
   vertex -17.286324 -181.399094 78.741096
   vertex -17.225449 -180.694107 78.686584
   vertex -17.320564 -181.344803 78.739304
  endloop
 endfacet
 facet normal 0.088915 0.069154 0.993636
  outer loop
   vertex -17.286324 -181.399094 78.741096
   vertex -17.259689 -181.453400 78.742493
   vertex -17.225449 -180.694107 78.686584
  endloop
 endfacet
 facet normal 0.138049 0.066537 0.988188
  outer loop
   vertex -17.225449 -180.694107 78.686584
   vertex -17.259689 -181.453400 78.742493
   vertex -17.240669 -181.507706 78.743492
  endloop
 endfacet
 facet normal 0.248857 0.062946 0.966492
  outer loop
   vertex -17.229248 -181.561996 78.744087
   vertex -17.225449 -180.694107 78.686584
   vertex -17.240669 -181.507706 78.743492
  endloop
 endfacet
 facet normal 0.644034 0.047767 0.763504
  outer loop
   vertex -17.229248 -181.561996 78.744087
   vertex -17.225449 -181.616394 78.744286
   vertex -17.225449 -180.694107 78.686584
  endloop
 endfacet
 facet normal 0.006398 0.186335 0.982466
  outer loop
   vertex -17.225449 -180.694107 78.686584
   vertex -17.225449 -179.786194 78.514389
   vertex -19.411613 -180.319199 78.629715
  endloop
 endfacet
 facet normal 0.000952 0.207745 0.978182
  outer loop
   vertex -19.411613 -180.319199 78.629715
   vertex -17.225449 -179.786194 78.514389
   vertex -21.104164 -179.893799 78.541016
  endloop
 endfacet
 facet normal -0.001994 0.307332 0.951600
  outer loop
   vertex -21.104164 -179.893799 78.541016
   vertex -17.225449 -179.786194 78.514389
   vertex -17.225449 -178.906799 78.230377
  endloop
 endfacet
 facet normal 0.002800 0.423550 0.905868
  outer loop
   vertex -20.264137 -178.752106 78.167442
   vertex -17.225449 -178.906799 78.230377
   vertex -17.225449 -178.069702 77.838982
  endloop
 endfacet
 facet normal 0.006561 0.533181 0.845976
  outer loop
   vertex -19.426331 -177.684799 77.613464
   vertex -17.225449 -178.069702 77.838982
   vertex -17.225449 -177.287994 77.346306
  endloop
 endfacet
 facet normal 0.003724 0.634432 0.772970
  outer loop
   vertex -18.519089 -176.635803 76.817238
   vertex -17.225449 -177.287994 77.346306
   vertex -17.225449 -176.573700 76.760033
  endloop
 endfacet
 facet normal -0.004425 0.725801 0.687890
  outer loop
   vertex -17.225449 -175.938004 76.089302
   vertex -18.519089 -176.635803 76.817238
   vertex -17.225449 -176.573700 76.760033
  endloop
 endfacet
 facet normal -0.035087 0.751864 0.658384
  outer loop
   vertex -17.225449 -175.938004 76.089302
   vertex -17.626389 -175.740402 75.842278
   vertex -18.519089 -176.635803 76.817238
  endloop
 endfacet
 facet normal 0.032398 0.805478 0.591739
  outer loop
   vertex -17.225449 -175.938004 76.089302
   vertex -17.225449 -175.390900 75.344582
   vertex -17.626389 -175.740402 75.842278
  endloop
 endfacet
 facet normal -0.014479 0.612448 0.790378
  outer loop
   vertex -18.519089 -176.635803 76.817238
   vertex -19.426331 -177.684799 77.613464
   vertex -17.225449 -177.287994 77.346306
  endloop
 endfacet
 facet normal -0.009095 0.466280 0.884590
  outer loop
   vertex -19.426331 -177.684799 77.613464
   vertex -20.264137 -178.752106 78.167442
   vertex -17.225449 -178.069702 77.838982
  endloop
 endfacet
 facet normal -0.003710 0.313448 0.949598
  outer loop
   vertex -20.264137 -178.752106 78.167442
   vertex -21.104164 -179.893799 78.541016
   vertex -17.225449 -178.906799 78.230377
  endloop
 endfacet
 facet normal -1.000000 0.000000 0.000000
  outer loop
   vertex -2.311790 -187.616394 76.906387
   vertex -2.311790 -187.616394 81.525879
   vertex -2.311790 -187.060104 77.451897
  endloop
 endfacet
 facet normal -1.000000 0.000000 0.000000
  outer loop
   vertex -2.311790 -187.060104 77.451897
   vertex -2.311790 -187.616394 81.525879
   vertex -2.311790 -186.454498 77.942024
  endloop
 endfacet
 facet normal -1.000000 0.000000 0.000000
  outer loop
   vertex -2.311790 -186.454498 77.942024
   vertex -2.311790 -187.616394 81.525879
   vertex -2.311790 -185.804993 78.372314
  endloop
 endfacet
 facet normal -1.000000 0.000000 0.000000
  outer loop
   vertex -2.311790 -185.804993 78.372314
   vertex -2.311790 -187.616394 81.525879
   vertex -2.311790 -185.117493 78.738884
  endloop
 endfacet
 facet normal -1.000000 0.000000 0.000000
  outer loop
   vertex -2.311790 -185.117493 78.738884
   vertex -2.311790 -187.616394 81.525879
   vertex -2.311790 -184.398300 79.038391
  endloop
 endfacet
 facet normal -1.000000 0.000000 0.000000
  outer loop
   vertex -2.311790 -184.398300 79.038391
   vertex -2.311790 -187.616394 81.525879
   vertex -2.311790 -183.653793 79.268120
  endloop
 endfacet
 facet normal -1.000000 0.000000 0.000000
  outer loop
   vertex -2.311790 -183.653793 79.268120
   vertex -2.311790 -187.616394 81.525879
   vertex -2.311790 -182.116394 81.525879
  endloop
 endfacet
 facet normal -1.000000 0.000000 0.000000
  outer loop
   vertex -2.311790 -182.890900 79.425995
   vertex -2.311790 -182.116394 81.525879
   vertex -2.311790 -182.116394 79.510590
  endloop
 endfacet
 facet normal -1.000000 0.000000 0.000000
  outer loop
   vertex -2.311790 -182.890900 79.425995
   vertex -2.311790 -183.653793 79.268120
   vertex -2.311790 -182.116394 81.525879
  endloop
 endfacet
 facet normal 0.643393 -0.047805 0.764042
  outer loop
   vertex -17.225449 -181.616394 78.744286
   vertex -17.229248 -181.670700 78.744087
   vertex -17.225449 -182.538605 78.686584
  endloop
 endfacet
 facet normal 0.248930 -0.062944 0.966474
  outer loop
   vertex -17.225449 -182.538605 78.686584
   vertex -17.229248 -181.670700 78.744087
   vertex -17.240669 -181.725006 78.743492
  endloop
 endfacet
 facet normal 0.137999 -0.066538 0.988195
  outer loop
   vertex -17.259689 -181.779297 78.742493
   vertex -17.225449 -182.538605 78.686584
   vertex -17.240669 -181.725006 78.743492
  endloop
 endfacet
 facet normal 0.088912 -0.069152 0.993636
  outer loop
   vertex -17.259689 -181.779297 78.742493
   vertex -17.286324 -181.833603 78.741096
   vertex -17.225449 -182.538605 78.686584
  endloop
 endfacet
 facet normal 0.061503 -0.071666 0.995531
  outer loop
   vertex -17.225449 -182.538605 78.686584
   vertex -17.286324 -181.833603 78.741096
   vertex -17.320564 -181.887894 78.739304
  endloop
 endfacet
 facet normal 0.044068 -0.074274 0.996264
  outer loop
   vertex -17.362419 -181.942200 78.737106
   vertex -17.225449 -182.538605 78.686584
   vertex -17.320564 -181.887894 78.739304
  endloop
 endfacet
 facet normal 0.027409 -0.078125 0.996567
  outer loop
   vertex -17.362419 -181.942200 78.737106
   vertex -17.468918 -182.050705 78.731529
   vertex -17.225449 -182.538605 78.686584
  endloop
 endfacet
 facet normal 0.014680 -0.084454 0.996319
  outer loop
   vertex -17.225449 -182.538605 78.686584
   vertex -17.468918 -182.050705 78.731529
   vertex -17.605797 -182.159103 78.724358
  endloop
 endfacet
 facet normal 0.007266 -0.091828 0.995748
  outer loop
   vertex -17.773048 -182.267395 78.715591
   vertex -17.225449 -182.538605 78.686584
   vertex -17.605797 -182.159103 78.724358
  endloop
 endfacet
 facet normal 0.000949 -0.104452 0.994530
  outer loop
   vertex -17.773048 -182.267395 78.715591
   vertex -18.198479 -182.483597 78.693291
   vertex -17.225449 -182.538605 78.686584
  endloop
 endfacet
 facet normal -0.001253 -0.142832 0.989746
  outer loop
   vertex -17.225449 -182.538605 78.686584
   vertex -18.198479 -182.483597 78.693291
   vertex -19.411613 -182.913498 78.629715
  endloop
 endfacet
 facet normal 0.000952 -0.207745 0.978182
  outer loop
   vertex -17.225449 -183.446503 78.514389
   vertex -19.411613 -182.913498 78.629715
   vertex -21.104164 -183.338898 78.541016
  endloop
 endfacet
 facet normal -0.002107 -0.311105 0.950373
  outer loop
   vertex -20.277809 -184.462601 78.175003
   vertex -17.225449 -183.446503 78.514389
   vertex -21.104164 -183.338898 78.541016
  endloop
 endfacet
 facet normal -0.003499 -0.307330 0.951596
  outer loop
   vertex -20.277809 -184.462601 78.175003
   vertex -17.225449 -184.325897 78.230377
   vertex -17.225449 -183.446503 78.514389
  endloop
 endfacet
 facet normal 0.002535 -0.423551 0.905869
  outer loop
   vertex -20.277809 -184.462601 78.175003
   vertex -17.225449 -185.162994 77.838982
   vertex -17.225449 -184.325897 78.230377
  endloop
 endfacet
 facet normal -0.008510 -0.462447 0.886606
  outer loop
   vertex -20.277809 -184.462601 78.175003
   vertex -19.453568 -185.514496 77.634254
   vertex -17.225449 -185.162994 77.838982
  endloop
 endfacet
 facet normal 0.006382 -0.533182 0.845977
  outer loop
   vertex -17.225449 -185.162994 77.838982
   vertex -19.453568 -185.514496 77.634254
   vertex -17.225449 -185.944702 77.346306
  endloop
 endfacet
 facet normal -0.014941 -0.608457 0.793446
  outer loop
   vertex -17.225449 -185.944702 77.346306
   vertex -19.453568 -185.514496 77.634254
   vertex -18.545967 -186.567703 76.843689
  endloop
 endfacet
 facet normal -0.006599 -0.725792 0.687882
  outer loop
   vertex -17.225449 -186.658997 76.760033
   vertex -18.545967 -186.567703 76.843689
   vertex -17.225449 -187.294693 76.089302
  endloop
 endfacet
 facet normal 0.005107 -0.634428 0.772965
  outer loop
   vertex -17.225449 -186.658997 76.760033
   vertex -17.225449 -185.944702 77.346306
   vertex -18.545967 -186.567703 76.843689
  endloop
 endfacet
 facet normal -0.031864 -0.746983 0.664079
  outer loop
   vertex -18.545967 -186.567703 76.843689
   vertex -17.652870 -187.468002 75.873848
   vertex -17.225449 -187.294693 76.089302
  endloop
 endfacet
 facet normal 0.028323 -0.805578 0.591812
  outer loop
   vertex -17.225449 -187.294693 76.089302
   vertex -17.652870 -187.468002 75.873848
   vertex -17.225449 -187.841797 75.344582
  endloop
 endfacet
 facet normal 0.006397 -0.186338 0.982465
  outer loop
   vertex -17.225449 -183.446503 78.514389
   vertex -17.225449 -182.538605 78.686584
   vertex -19.411613 -182.913498 78.629715
  endloop
 endfacet
 facet normal 0.049631 0.998768 0.000000
  outer loop
   vertex 5.065689 -186.360306 75.344574
   vertex 5.065689 -186.360306 81.525879
   vertex 5.188210 -186.366394 75.344574
  endloop
 endfacet
 facet normal 0.146783 0.989169 0.000000
  outer loop
   vertex 5.065689 -186.360306 75.344574
   vertex 4.944351 -186.342300 75.344574
   vertex 5.065689 -186.360306 81.525879
  endloop
 endfacet
 facet normal 0.146783 0.989169 0.000000
  outer loop
   vertex 5.065689 -186.360306 81.525879
   vertex 4.944351 -186.342300 75.344574
   vertex 4.944351 -186.342300 81.525879
  endloop
 endfacet
 facet normal 0.242945 0.970040 0.000000
  outer loop
   vertex 4.944351 -186.342300 81.525879
   vertex 4.944351 -186.342300 75.344574
   vertex 4.825363 -186.312500 75.344574
  endloop
 endfacet
 facet normal 0.336734 0.941600 0.000000
  outer loop
   vertex 4.825363 -186.312500 81.525879
   vertex 4.825363 -186.312500 75.344574
   vertex 4.709862 -186.271194 75.344574
  endloop
 endfacet
 facet normal 0.427246 0.904135 0.000000
  outer loop
   vertex 4.709862 -186.271194 81.525879
   vertex 4.709862 -186.271194 75.344574
   vertex 4.598976 -186.218796 81.525879
  endloop
 endfacet
 facet normal 0.336734 0.941600 0.000000
  outer loop
   vertex 4.709862 -186.271194 81.525879
   vertex 4.825363 -186.312500 81.525879
   vertex 4.709862 -186.271194 75.344574
  endloop
 endfacet
 facet normal 0.427246 0.904135 0.000000
  outer loop
   vertex 4.709862 -186.271194 75.344574
   vertex 4.598976 -186.218796 75.344574
   vertex 4.598976 -186.218796 81.525879
  endloop
 endfacet
 facet normal 0.514258 0.857636 0.000000
  outer loop
   vertex 4.598976 -186.218796 81.525879
   vertex 4.598976 -186.218796 75.344574
   vertex 4.493752 -186.155701 75.344574
  endloop
 endfacet
 facet normal 0.595873 0.803079 0.000000
  outer loop
   vertex 4.493752 -186.155701 81.525879
   vertex 4.493752 -186.155701 75.344574
   vertex 4.395226 -186.082596 75.344574
  endloop
 endfacet
 facet normal 0.671620 0.740896 0.000000
  outer loop
   vertex 4.395226 -186.082596 81.525879
   vertex 4.395226 -186.082596 75.344574
   vertex 4.304329 -186.000198 75.344574
  endloop
 endfacet
 facet normal 0.740989 0.671517 0.000000
  outer loop
   vertex 4.304329 -186.000198 81.525879
   vertex 4.304329 -186.000198 75.344574
   vertex 4.221954 -185.909302 75.344574
  endloop
 endfacet
 facet normal 0.803080 0.595872 0.000000
  outer loop
   vertex 4.221954 -185.909302 81.525879
   vertex 4.221954 -185.909302 75.344574
   vertex 4.148872 -185.810806 81.525879
  endloop
 endfacet
 facet normal 0.740989 0.671517 0.000000
  outer loop
   vertex 4.221954 -185.909302 81.525879
   vertex 4.304329 -186.000198 81.525879
   vertex 4.221954 -185.909302 75.344574
  endloop
 endfacet
 facet normal 0.803080 0.595872 0.000000
  outer loop
   vertex 4.221954 -185.909302 75.344574
   vertex 4.148872 -185.810806 75.344574
   vertex 4.148872 -185.810806 81.525879
  endloop
 endfacet
 facet normal 0.857740 0.514084 0.000000
  outer loop
   vertex 4.148872 -185.810806 81.525879
   vertex 4.148872 -185.810806 75.344574
   vertex 4.085815 -185.705597 75.344574
  endloop
 endfacet
 facet normal 0.903990 0.427554 0.000000
  outer loop
   vertex 4.085815 -185.705597 81.525879
   vertex 4.085815 -185.705597 75.344574
   vertex 4.033363 -185.594696 75.344574
  endloop
 endfacet
 facet normal 0.941553 0.336864 0.000000
  outer loop
   vertex 4.033363 -185.594696 81.525879
   vertex 4.033363 -185.594696 75.344574
   vertex 3.992043 -185.479202 75.344574
  endloop
 endfacet
 facet normal 0.970033 0.242975 0.000000
  outer loop
   vertex 3.992043 -185.479202 81.525879
   vertex 3.992043 -185.479202 75.344574
   vertex 3.962234 -185.360199 75.344574
  endloop
 endfacet
 facet normal 0.989161 0.146837 0.000000
  outer loop
   vertex 3.962234 -185.360199 81.525879
   vertex 3.962234 -185.360199 75.344574
   vertex 3.944229 -185.238907 81.525879
  endloop
 endfacet
 facet normal 0.970033 0.242975 0.000000
  outer loop
   vertex 3.962234 -185.360199 81.525879
   vertex 3.992043 -185.479202 81.525879
   vertex 3.962234 -185.360199 75.344574
  endloop
 endfacet
 facet normal 0.989161 0.146837 0.000000
  outer loop
   vertex 3.962234 -185.360199 75.344574
   vertex 3.944229 -185.238907 75.344574
   vertex 3.944229 -185.238907 81.525879
  endloop
 endfacet
 facet normal 0.998795 0.049075 0.000000
  outer loop
   vertex 3.944229 -185.238907 81.525879
   vertex 3.944229 -185.238907 75.344574
   vertex 3.938210 -185.116394 75.344574
  endloop
 endfacet
 facet normal 0.998797 -0.049045 0.000000
  outer loop
   vertex 3.938210 -185.116394 81.525879
   vertex 3.938210 -185.116394 75.344574
   vertex 3.944229 -184.993805 75.344574
  endloop
 endfacet
 facet normal 0.989163 -0.146819 0.000000
  outer loop
   vertex 3.944229 -184.993805 81.525879
   vertex 3.944229 -184.993805 75.344574
   vertex 3.962234 -184.872498 75.344574
  endloop
 endfacet
 facet normal 0.970033 -0.242975 0.000000
  outer loop
   vertex 3.962234 -184.872498 81.525879
   vertex 3.962234 -184.872498 75.344574
   vertex 3.992043 -184.753494 75.344574
  endloop
 endfacet
 facet normal 0.941553 -0.336864 0.000000
  outer loop
   vertex 3.992043 -184.753494 81.525879
   vertex 3.992043 -184.753494 75.344574
   vertex 4.033363 -184.638000 81.525879
  endloop
 endfacet
 facet normal 0.970033 -0.242975 0.000000
  outer loop
   vertex 3.992043 -184.753494 81.525879
   vertex 3.962234 -184.872498 81.525879
   vertex 3.992043 -184.753494 75.344574
  endloop
 endfacet
 facet normal 0.941553 -0.336864 0.000000
  outer loop
   vertex 3.992043 -184.753494 75.344574
   vertex 4.033363 -184.638000 75.344574
   vertex 4.033363 -184.638000 81.525879
  endloop
 endfacet
 facet normal 0.903990 -0.427554 0.000000
  outer loop
   vertex 4.033363 -184.638000 81.525879
   vertex 4.033363 -184.638000 75.344574
   vertex 4.085815 -184.527100 75.344574
  endloop
 endfacet
 facet normal 0.857707 -0.514139 0.000000
  outer loop
   vertex 4.085815 -184.527100 81.525879
   vertex 4.085815 -184.527100 75.344574
   vertex 4.148872 -184.421906 75.344574
  endloop
 endfacet
 facet normal 0.803124 -0.595812 0.000000
  outer loop
   vertex 4.148872 -184.421906 81.525879
   vertex 4.148872 -184.421906 75.344574
   vertex 4.221954 -184.323395 75.344574
  endloop
 endfacet
 facet normal 0.740989 -0.671517 0.000000
  outer loop
   vertex 4.221954 -184.323395 81.525879
   vertex 4.221954 -184.323395 75.344574
   vertex 4.304329 -184.232498 75.344574
  endloop
 endfacet
 facet normal 0.671620 -0.740896 0.000000
  outer loop
   vertex 4.304329 -184.232498 81.525879
   vertex 4.304329 -184.232498 75.344574
   vertex 4.395226 -184.150101 81.525879
  endloop
 endfacet
 facet normal 0.740989 -0.671517 0.000000
  outer loop
   vertex 4.304329 -184.232498 81.525879
   vertex 4.221954 -184.323395 81.525879
   vertex 4.304329 -184.232498 75.344574
  endloop
 endfacet
 facet normal 0.671620 -0.740896 0.000000
  outer loop
   vertex 4.304329 -184.232498 75.344574
   vertex 4.395226 -184.150101 75.344574
   vertex 4.395226 -184.150101 81.525879
  endloop
 endfacet
 facet normal 0.595873 -0.803079 0.000000
  outer loop
   vertex 4.395226 -184.150101 81.525879
   vertex 4.395226 -184.150101 75.344574
   vertex 4.493752 -184.076996 75.344574
  endloop
 endfacet
 facet normal 0.513617 -0.858020 0.000000
  outer loop
   vertex 4.493752 -184.076996 81.525879
   vertex 4.493752 -184.076996 75.344574
   vertex 4.598976 -184.014008 75.344574
  endloop
 endfacet
 facet normal 0.427958 -0.903799 0.000000
  outer loop
   vertex 4.598976 -184.014008 81.525879
   vertex 4.598976 -184.014008 75.344574
   vertex 4.709862 -183.961502 75.344574
  endloop
 endfacet
 facet normal 0.336734 -0.941600 0.000000
  outer loop
   vertex 4.709862 -183.961502 81.525879
   vertex 4.709862 -183.961502 75.344574
   vertex 4.825363 -183.920197 75.344574
  endloop
 endfacet
 facet normal 0.242945 -0.970040 0.000000
  outer loop
   vertex 4.825363 -183.920197 81.525879
   vertex 4.825363 -183.920197 75.344574
   vertex 4.944351 -183.890396 81.525879
  endloop
 endfacet
 facet normal 0.336734 -0.941600 0.000000
  outer loop
   vertex 4.825363 -183.920197 81.525879
   vertex 4.709862 -183.961502 81.525879
   vertex 4.825363 -183.920197 75.344574
  endloop
 endfacet
 facet normal 0.242945 -0.970040 0.000000
  outer loop
   vertex 4.825363 -183.920197 75.344574
   vertex 4.944351 -183.890396 75.344574
   vertex 4.944351 -183.890396 81.525879
  endloop
 endfacet
 facet normal 0.146661 -0.989187 0.000000
  outer loop
   vertex 4.944351 -183.890396 81.525879
   vertex 4.944351 -183.890396 75.344574
   vertex 5.065689 -183.872406 75.344574
  endloop
 endfacet
 facet normal 0.049010 -0.998798 0.000000
  outer loop
   vertex 5.065689 -183.872406 81.525879
   vertex 5.065689 -183.872406 75.344574
   vertex 5.188210 -183.866394 75.344574
  endloop
 endfacet
 facet normal -0.049010 -0.998798 0.000000
  outer loop
   vertex 5.188210 -183.866394 81.525879
   vertex 5.188210 -183.866394 75.344574
   vertex 5.310730 -183.872406 75.344574
  endloop
 endfacet
 facet normal -0.146652 -0.989188 0.000000
  outer loop
   vertex 5.310730 -183.872406 81.525879
   vertex 5.310730 -183.872406 75.344574
   vertex 5.432076 -183.890396 75.344574
  endloop
 endfacet
 facet normal -0.242931 -0.970044 0.000000
  outer loop
   vertex 5.432076 -183.890396 81.525879
   vertex 5.432076 -183.890396 75.344574
   vertex 5.551071 -183.920197 81.525879
  endloop
 endfacet
 facet normal -0.146652 -0.989188 0.000000
  outer loop
   vertex 5.432076 -183.890396 81.525879
   vertex 5.310730 -183.872406 81.525879
   vertex 5.432076 -183.890396 75.344574
  endloop
 endfacet
 facet normal -0.242931 -0.970044 0.000000
  outer loop
   vertex 5.432076 -183.890396 75.344574
   vertex 5.551071 -183.920197 75.344574
   vertex 5.551071 -183.920197 81.525879
  endloop
 endfacet
 facet normal -0.336734 -0.941600 0.000000
  outer loop
   vertex 5.551071 -183.920197 81.525879
   vertex 5.551071 -183.920197 75.344574
   vertex 5.666573 -183.961502 75.344574
  endloop
 endfacet
 facet normal -0.427934 -0.903810 0.000000
  outer loop
   vertex 5.666573 -183.961502 81.525879
   vertex 5.666573 -183.961502 75.344574
   vertex 5.777466 -184.014008 75.344574
  endloop
 endfacet
 facet normal -0.513672 -0.857987 0.000000
  outer loop
   vertex 5.777466 -184.014008 81.525879
   vertex 5.777466 -184.014008 75.344574
   vertex 5.882675 -184.076996 75.344574
  endloop
 endfacet
 facet normal -0.595873 -0.803079 0.000000
  outer loop
   vertex 5.882675 -184.076996 81.525879
   vertex 5.882675 -184.076996 75.344574
   vertex 5.981201 -184.150101 75.344574
  endloop
 endfacet
 facet normal -0.671651 -0.740868 0.000000
  outer loop
   vertex 5.981201 -184.150101 81.525879
   vertex 5.981201 -184.150101 75.344574
   vertex 6.072090 -184.232498 81.525879
  endloop
 endfacet
 facet normal -0.595873 -0.803079 0.000000
  outer loop
   vertex 5.981201 -184.150101 81.525879
   vertex 5.882675 -184.076996 81.525879
   vertex 5.981201 -184.150101 75.344574
  endloop
 endfacet
 facet normal -0.671651 -0.740868 0.000000
  outer loop
   vertex 5.981201 -184.150101 75.344574
   vertex 6.072090 -184.232498 75.344574
   vertex 6.072090 -184.232498 81.525879
  endloop
 endfacet
 facet normal -0.740958 -0.671551 0.000000
  outer loop
   vertex 6.072090 -184.232498 81.525879
   vertex 6.072090 -184.232498 75.344574
   vertex 6.154472 -184.323395 75.344574
  endloop
 endfacet
 facet normal -0.803124 -0.595812 0.000000
  outer loop
   vertex 6.154472 -184.323395 81.525879
   vertex 6.154472 -184.323395 75.344574
   vertex 6.227554 -184.421906 75.344574
  endloop
 endfacet
 facet normal -0.857707 -0.514139 0.000000
  outer loop
   vertex 6.227554 -184.421906 81.525879
   vertex 6.227554 -184.421906 75.344574
   vertex 6.290611 -184.527100 75.344574
  endloop
 endfacet
 facet normal -0.903990 -0.427554 0.000000
  outer loop
   vertex 6.290611 -184.527100 81.525879
   vertex 6.290611 -184.527100 75.344574
   vertex 6.343063 -184.638000 75.344574
  endloop
 endfacet
 facet normal -0.941534 -0.336919 0.000000
  outer loop
   vertex 6.343063 -184.638000 81.525879
   vertex 6.343063 -184.638000 75.344574
   vertex 6.384392 -184.753494 81.525879
  endloop
 endfacet
 facet normal -0.903990 -0.427554 0.000000
  outer loop
   vertex 6.343063 -184.638000 81.525879
   vertex 6.290611 -184.527100 81.525879
   vertex 6.343063 -184.638000 75.344574
  endloop
 endfacet
 facet normal -0.941534 -0.336919 0.000000
  outer loop
   vertex 6.343063 -184.638000 75.344574
   vertex 6.384392 -184.753494 75.344574
   vertex 6.384392 -184.753494 81.525879
  endloop
 endfacet
 facet normal -0.970047 -0.242916 0.000000
  outer loop
   vertex 6.384392 -184.753494 81.525879
   vertex 6.384392 -184.753494 75.344574
   vertex 6.414192 -184.872498 75.344574
  endloop
 endfacet
 facet normal -0.989172 -0.146758 0.000000
  outer loop
   vertex 6.414192 -184.872498 81.525879
   vertex 6.414192 -184.872498 75.344574
   vertex 6.432190 -184.993805 75.344574
  endloop
 endfacet
 facet normal -0.998797 -0.049045 0.000000
  outer loop
   vertex 6.432190 -184.993805 81.525879
   vertex 6.432190 -184.993805 75.344574
   vertex 6.438210 -185.116394 75.344574
  endloop
 endfacet
 facet normal -0.998795 0.049075 0.000000
  outer loop
   vertex 6.438210 -185.116394 81.525879
   vertex 6.438210 -185.116394 75.344574
   vertex 6.432190 -185.238907 75.344574
  endloop
 endfacet
 facet normal -0.989170 0.146776 0.000000
  outer loop
   vertex 6.432190 -185.238907 81.525879
   vertex 6.432190 -185.238907 75.344574
   vertex 6.414192 -185.360199 81.525879
  endloop
 endfacet
 facet normal -0.998795 0.049075 0.000000
  outer loop
   vertex 6.432190 -185.238907 81.525879
   vertex 6.438210 -185.116394 81.525879
   vertex 6.432190 -185.238907 75.344574
  endloop
 endfacet
 facet normal -0.989170 0.146776 0.000000
  outer loop
   vertex 6.432190 -185.238907 75.344574
   vertex 6.414192 -185.360199 75.344574
   vertex 6.414192 -185.360199 81.525879
  endloop
 endfacet
 facet normal -0.970047 0.242916 0.000000
  outer loop
   vertex 6.414192 -185.360199 81.525879
   vertex 6.414192 -185.360199 75.344574
   vertex 6.384392 -185.479202 75.344574
  endloop
 endfacet
 facet normal -0.941534 0.336919 0.000000
  outer loop
   vertex 6.384392 -185.479202 81.525879
   vertex 6.384392 -185.479202 75.344574
   vertex 6.343063 -185.594696 75.344574
  endloop
 endfacet
 facet normal -0.903990 0.427554 0.000000
  outer loop
   vertex 6.343063 -185.594696 81.525879
   vertex 6.343063 -185.594696 75.344574
   vertex 6.290611 -185.705597 75.344574
  endloop
 endfacet
 facet normal -0.857740 0.514084 0.000000
  outer loop
   vertex 6.290611 -185.705597 81.525879
   vertex 6.290611 -185.705597 75.344574
   vertex 6.227554 -185.810806 75.344574
  endloop
 endfacet
 facet normal -0.803080 0.595872 0.000000
  outer loop
   vertex 6.227554 -185.810806 81.525879
   vertex 6.227554 -185.810806 75.344574
   vertex 6.154472 -185.909302 81.525879
  endloop
 endfacet
 facet normal -0.857740 0.514084 0.000000
  outer loop
   vertex 6.227554 -185.810806 81.525879
   vertex 6.290611 -185.705597 81.525879
   vertex 6.227554 -185.810806 75.344574
  endloop
 endfacet
 facet normal -0.803080 0.595872 0.000000
  outer loop
   vertex 6.227554 -185.810806 75.344574
   vertex 6.154472 -185.909302 75.344574
   vertex 6.154472 -185.909302 81.525879
  endloop
 endfacet
 facet normal -0.740958 0.671551 0.000000
  outer loop
   vertex 6.154472 -185.909302 81.525879
   vertex 6.154472 -185.909302 75.344574
   vertex 6.072090 -186.000198 75.344574
  endloop
 endfacet
 facet normal -0.671651 0.740868 0.000000
  outer loop
   vertex 6.072090 -186.000198 81.525879
   vertex 6.072090 -186.000198 75.344574
   vertex 5.981201 -186.082596 75.344574
  endloop
 endfacet
 facet normal -0.595873 0.803079 0.000000
  outer loop
   vertex 5.981201 -186.082596 81.525879
   vertex 5.981201 -186.082596 75.344574
   vertex 5.882675 -186.155701 75.344574
  endloop
 endfacet
 facet normal -0.514313 0.857603 0.000000
  outer loop
   vertex 5.882675 -186.155701 81.525879
   vertex 5.882675 -186.155701 75.344574
   vertex 5.777466 -186.218796 75.344574
  endloop
 endfacet
 facet normal -0.427222 0.904147 0.000000
  outer loop
   vertex 5.777466 -186.218796 81.525879
   vertex 5.777466 -186.218796 75.344574
   vertex 5.666573 -186.271194 81.525879
  endloop
 endfacet
 facet normal -0.514313 0.857603 0.000000
  outer loop
   vertex 5.777466 -186.218796 81.525879
   vertex 5.882675 -186.155701 81.525879
   vertex 5.777466 -186.218796 75.344574
  endloop
 endfacet
 facet normal -0.427222 0.904147 0.000000
  outer loop
   vertex 5.777466 -186.218796 75.344574
   vertex 5.666573 -186.271194 75.344574
   vertex 5.666573 -186.271194 81.525879
  endloop
 endfacet
 facet normal -0.336734 0.941600 0.000000
  outer loop
   vertex 5.666573 -186.271194 81.525879
   vertex 5.666573 -186.271194 75.344574
   vertex 5.551071 -186.312500 75.344574
  endloop
 endfacet
 facet normal -0.242931 0.970044 0.000000
  outer loop
   vertex 5.551071 -186.312500 81.525879
   vertex 5.551071 -186.312500 75.344574
   vertex 5.432076 -186.342300 75.344574
  endloop
 endfacet
 facet normal -0.146774 0.989170 0.000000
  outer loop
   vertex 5.432076 -186.342300 81.525879
   vertex 5.432076 -186.342300 75.344574
   vertex 5.310730 -186.360306 75.344574
  endloop
 endfacet
 facet normal -0.049631 0.998768 0.000000
  outer loop
   vertex 5.310730 -186.360306 81.525879
   vertex 5.310730 -186.360306 75.344574
   vertex 5.188210 -186.366394 81.525879
  endloop
 endfacet
 facet normal -0.146774 0.989170 0.000000
  outer loop
   vertex 5.310730 -186.360306 81.525879
   vertex 5.432076 -186.342300 81.525879
   vertex 5.310730 -186.360306 75.344574
  endloop
 endfacet
 facet normal -0.049631 0.998768 0.000000
  outer loop
   vertex 5.310730 -186.360306 75.344574
   vertex 5.188210 -186.366394 75.344574
   vertex 5.188210 -186.366394 81.525879
  endloop
 endfacet
 facet normal 0.049631 0.998768 0.000000
  outer loop
   vertex 5.188210 -186.366394 81.525879
   vertex 5.188210 -186.366394 75.344574
   vertex 5.065689 -186.360306 81.525879
  endloop
 endfacet
 facet normal -0.242931 0.970044 0.000000
  outer loop
   vertex 5.432076 -186.342300 81.525879
   vertex 5.551071 -186.312500 81.525879
   vertex 5.432076 -186.342300 75.344574
  endloop
 endfacet
 facet normal -0.336734 0.941600 0.000000
  outer loop
   vertex 5.551071 -186.312500 81.525879
   vertex 5.666573 -186.271194 81.525879
   vertex 5.551071 -186.312500 75.344574
  endloop
 endfacet
 facet normal -0.595873 0.803079 0.000000
  outer loop
   vertex 5.882675 -186.155701 81.525879
   vertex 5.981201 -186.082596 81.525879
   vertex 5.882675 -186.155701 75.344574
  endloop
 endfacet
 facet normal -0.671651 0.740868 0.000000
  outer loop
   vertex 5.981201 -186.082596 81.525879
   vertex 6.072090 -186.000198 81.525879
   vertex 5.981201 -186.082596 75.344574
  endloop
 endfacet
 facet normal -0.740958 0.671551 0.000000
  outer loop
   vertex 6.072090 -186.000198 81.525879
   vertex 6.154472 -185.909302 81.525879
   vertex 6.072090 -186.000198 75.344574
  endloop
 endfacet
 facet normal -0.903990 0.427554 0.000000
  outer loop
   vertex 6.290611 -185.705597 81.525879
   vertex 6.343063 -185.594696 81.525879
   vertex 6.290611 -185.705597 75.344574
  endloop
 endfacet
 facet normal -0.941534 0.336919 0.000000
  outer loop
   vertex 6.343063 -185.594696 81.525879
   vertex 6.384392 -185.479202 81.525879
   vertex 6.343063 -185.594696 75.344574
  endloop
 endfacet
 facet normal -0.970047 0.242916 0.000000
  outer loop
   vertex 6.384392 -185.479202 81.525879
   vertex 6.414192 -185.360199 81.525879
   vertex 6.384392 -185.479202 75.344574
  endloop
 endfacet
 facet normal -0.998797 -0.049045 0.000000
  outer loop
   vertex 6.438210 -185.116394 81.525879
   vertex 6.432190 -184.993805 81.525879
   vertex 6.438210 -185.116394 75.344574
  endloop
 endfacet
 facet normal -0.989172 -0.146758 0.000000
  outer loop
   vertex 6.432190 -184.993805 81.525879
   vertex 6.414192 -184.872498 81.525879
   vertex 6.432190 -184.993805 75.344574
  endloop
 endfacet
 facet normal -0.970047 -0.242916 0.000000
  outer loop
   vertex 6.414192 -184.872498 81.525879
   vertex 6.384392 -184.753494 81.525879
   vertex 6.414192 -184.872498 75.344574
  endloop
 endfacet
 facet normal -0.857707 -0.514139 0.000000
  outer loop
   vertex 6.290611 -184.527100 81.525879
   vertex 6.227554 -184.421906 81.525879
   vertex 6.290611 -184.527100 75.344574
  endloop
 endfacet
 facet normal -0.803124 -0.595812 0.000000
  outer loop
   vertex 6.227554 -184.421906 81.525879
   vertex 6.154472 -184.323395 81.525879
   vertex 6.227554 -184.421906 75.344574
  endloop
 endfacet
 facet normal -0.740958 -0.671551 0.000000
  outer loop
   vertex 6.154472 -184.323395 81.525879
   vertex 6.072090 -184.232498 81.525879
   vertex 6.154472 -184.323395 75.344574
  endloop
 endfacet
 facet normal -0.513672 -0.857987 0.000000
  outer loop
   vertex 5.882675 -184.076996 81.525879
   vertex 5.777466 -184.014008 81.525879
   vertex 5.882675 -184.076996 75.344574
  endloop
 endfacet
 facet normal -0.427934 -0.903810 0.000000
  outer loop
   vertex 5.777466 -184.014008 81.525879
   vertex 5.666573 -183.961502 81.525879
   vertex 5.777466 -184.014008 75.344574
  endloop
 endfacet
 facet normal -0.336734 -0.941600 0.000000
  outer loop
   vertex 5.666573 -183.961502 81.525879
   vertex 5.551071 -183.920197 81.525879
   vertex 5.666573 -183.961502 75.344574
  endloop
 endfacet
 facet normal -0.049010 -0.998798 0.000000
  outer loop
   vertex 5.310730 -183.872406 81.525879
   vertex 5.188210 -183.866394 81.525879
   vertex 5.310730 -183.872406 75.344574
  endloop
 endfacet
 facet normal 0.049010 -0.998798 0.000000
  outer loop
   vertex 5.188210 -183.866394 81.525879
   vertex 5.065689 -183.872406 81.525879
   vertex 5.188210 -183.866394 75.344574
  endloop
 endfacet
 facet normal 0.146661 -0.989187 0.000000
  outer loop
   vertex 5.065689 -183.872406 81.525879
   vertex 4.944351 -183.890396 81.525879
   vertex 5.065689 -183.872406 75.344574
  endloop
 endfacet
 facet normal 0.427958 -0.903799 0.000000
  outer loop
   vertex 4.709862 -183.961502 81.525879
   vertex 4.598976 -184.014008 81.525879
   vertex 4.709862 -183.961502 75.344574
  endloop
 endfacet
 facet normal 0.513617 -0.858020 0.000000
  outer loop
   vertex 4.598976 -184.014008 81.525879
   vertex 4.493752 -184.076996 81.525879
   vertex 4.598976 -184.014008 75.344574
  endloop
 endfacet
 facet normal 0.595873 -0.803079 0.000000
  outer loop
   vertex 4.493752 -184.076996 81.525879
   vertex 4.395226 -184.150101 81.525879
   vertex 4.493752 -184.076996 75.344574
  endloop
 endfacet
 facet normal 0.803124 -0.595812 0.000000
  outer loop
   vertex 4.221954 -184.323395 81.525879
   vertex 4.148872 -184.421906 81.525879
   vertex 4.221954 -184.323395 75.344574
  endloop
 endfacet
 facet normal 0.857707 -0.514139 0.000000
  outer loop
   vertex 4.148872 -184.421906 81.525879
   vertex 4.085815 -184.527100 81.525879
   vertex 4.148872 -184.421906 75.344574
  endloop
 endfacet
 facet normal 0.903990 -0.427554 0.000000
  outer loop
   vertex 4.085815 -184.527100 81.525879
   vertex 4.033363 -184.638000 81.525879
   vertex 4.085815 -184.527100 75.344574
  endloop
 endfacet
 facet normal 0.989163 -0.146819 0.000000
  outer loop
   vertex 3.962234 -184.872498 81.525879
   vertex 3.944229 -184.993805 81.525879
   vertex 3.962234 -184.872498 75.344574
  endloop
 endfacet
 facet normal 0.998797 -0.049045 0.000000
  outer loop
   vertex 3.944229 -184.993805 81.525879
   vertex 3.938210 -185.116394 81.525879
   vertex 3.944229 -184.993805 75.344574
  endloop
 endfacet
 facet normal 0.998795 0.049075 0.000000
  outer loop
   vertex 3.938210 -185.116394 81.525879
   vertex 3.944229 -185.238907 81.525879
   vertex 3.938210 -185.116394 75.344574
  endloop
 endfacet
 facet normal 0.941553 0.336864 0.000000
  outer loop
   vertex 3.992043 -185.479202 81.525879
   vertex 4.033363 -185.594696 81.525879
   vertex 3.992043 -185.479202 75.344574
  endloop
 endfacet
 facet normal 0.903990 0.427554 0.000000
  outer loop
   vertex 4.033363 -185.594696 81.525879
   vertex 4.085815 -185.705597 81.525879
   vertex 4.033363 -185.594696 75.344574
  endloop
 endfacet
 facet normal 0.857740 0.514084 0.000000
  outer loop
   vertex 4.085815 -185.705597 81.525879
   vertex 4.148872 -185.810806 81.525879
   vertex 4.085815 -185.705597 75.344574
  endloop
 endfacet
 facet normal 0.671620 0.740896 0.000000
  outer loop
   vertex 4.304329 -186.000198 81.525879
   vertex 4.395226 -186.082596 81.525879
   vertex 4.304329 -186.000198 75.344574
  endloop
 endfacet
 facet normal 0.595873 0.803079 0.000000
  outer loop
   vertex 4.395226 -186.082596 81.525879
   vertex 4.493752 -186.155701 81.525879
   vertex 4.395226 -186.082596 75.344574
  endloop
 endfacet
 facet normal 0.514258 0.857636 0.000000
  outer loop
   vertex 4.493752 -186.155701 81.525879
   vertex 4.598976 -186.218796 81.525879
   vertex 4.493752 -186.155701 75.344574
  endloop
 endfacet
 facet normal 0.242945 0.970040 0.000000
  outer loop
   vertex 4.825363 -186.312500 81.525879
   vertex 4.944351 -186.342300 81.525879
   vertex 4.825363 -186.312500 75.344574
  endloop
 endfacet
 facet normal 0.000000 0.000000 1.000000
  outer loop
   vertex 5.310730 -186.360306 81.525879
   vertex 5.188210 -186.366394 81.525879
   vertex 7.688210 -187.616394 81.525879
  endloop
 endfacet
 facet normal 0.000000 0.000000 1.000000
  outer loop
   vertex 5.432076 -186.342300 81.525879
   vertex 7.688210 -187.616394 81.525879
   vertex 5.551071 -186.312500 81.525879
  endloop
 endfacet
 facet normal 0.000000 0.000000 1.000000
  outer loop
   vertex 5.432076 -186.342300 81.525879
   vertex 5.310730 -186.360306 81.525879
   vertex 7.688210 -187.616394 81.525879
  endloop
 endfacet
 facet normal 0.000000 0.000000 1.000000
  outer loop
   vertex 5.188210 -186.366394 81.525879
   vertex 5.065689 -186.360306 81.525879
   vertex 7.688210 -187.616394 81.525879
  endloop
 endfacet
 facet normal 0.000000 0.000000 1.000000
  outer loop
   vertex 7.688210 -187.616394 81.525879
   vertex 5.065689 -186.360306 81.525879
   vertex 4.944351 -186.342300 81.525879
  endloop
 endfacet
 facet normal 0.000000 0.000000 1.000000
  outer loop
   vertex -2.311790 -187.616394 81.525879
   vertex 4.944351 -186.342300 81.525879
   vertex 4.825363 -186.312500 81.525879
  endloop
 endfacet
 facet normal 0.000000 0.000000 1.000000
  outer loop
   vertex 4.709862 -186.271194 81.525879
   vertex -2.311790 -187.616394 81.525879
   vertex 4.825363 -186.312500 81.525879
  endloop
 endfacet
 facet normal 0.000000 0.000000 1.000000
  outer loop
   vertex 4.709862 -186.271194 81.525879
   vertex 4.598976 -186.218796 81.525879
   vertex -2.311790 -187.616394 81.525879
  endloop
 endfacet
 facet normal 0.000000 0.000000 1.000000
  outer loop
   vertex -2.311790 -187.616394 81.525879
   vertex 4.598976 -186.218796 81.525879
   vertex 4.493752 -186.155701 81.525879
  endloop
 endfacet
 facet normal 0.000000 0.000000 1.000000
  outer loop
   vertex 4.395226 -186.082596 81.525879
   vertex -2.311790 -187.616394 81.525879
   vertex 4.493752 -186.155701 81.525879
  endloop
 endfacet
 facet normal 0.000000 0.000000 1.000000
  outer loop
   vertex 4.395226 -186.082596 81.525879
   vertex 4.304329 -186.000198 81.525879
   vertex -2.311790 -187.616394 81.525879
  endloop
 endfacet
 facet normal 0.000000 0.000000 1.000000
  outer loop
   vertex -2.311790 -187.616394 81.525879
   vertex 4.304329 -186.000198 81.525879
   vertex 4.221954 -185.909302 81.525879
  endloop
 endfacet
 facet normal 0.000000 0.000000 1.000000
  outer loop
   vertex 4.148872 -185.810806 81.525879
   vertex -2.311790 -187.616394 81.525879
   vertex 4.221954 -185.909302 81.525879
  endloop
 endfacet
 facet normal 0.000000 0.000000 1.000000
  outer loop
   vertex 4.148872 -185.810806 81.525879
   vertex 4.085815 -185.705597 81.525879
   vertex -2.311790 -187.616394 81.525879
  endloop
 endfacet
 facet normal 0.000000 0.000000 1.000000
  outer loop
   vertex -2.311790 -187.616394 81.525879
   vertex 4.085815 -185.705597 81.525879
   vertex 4.033363 -185.594696 81.525879
  endloop
 endfacet
 facet normal 0.000000 0.000000 1.000000
  outer loop
   vertex 3.992043 -185.479202 81.525879
   vertex -2.311790 -187.616394 81.525879
   vertex 4.033363 -185.594696 81.525879
  endloop
 endfacet
 facet normal 0.000000 0.000000 1.000000
  outer loop
   vertex 3.992043 -185.479202 81.525879
   vertex 3.962234 -185.360199 81.525879
   vertex -2.311790 -187.616394 81.525879
  endloop
 endfacet
 facet normal 0.000000 0.000000 1.000000
  outer loop
   vertex -2.311790 -187.616394 81.525879
   vertex 3.962234 -185.360199 81.525879
   vertex 3.944229 -185.238907 81.525879
  endloop
 endfacet
 facet normal 0.000000 0.000000 1.000000
  outer loop
   vertex 3.938210 -185.116394 81.525879
   vertex -2.311790 -187.616394 81.525879
   vertex 3.944229 -185.238907 81.525879
  endloop
 endfacet
 facet normal 0.000000 0.000000 1.000000
  outer loop
   vertex 3.938210 -185.116394 81.525879
   vertex 3.944229 -184.993805 81.525879
   vertex -2.311790 -187.616394 81.525879
  endloop
 endfacet
 facet normal 0.000000 0.000000 1.000000
  outer loop
   vertex -2.311790 -187.616394 81.525879
   vertex 3.944229 -184.993805 81.525879
   vertex -2.311790 -182.116394 81.525879
  endloop
 endfacet
 facet normal 0.000000 0.000000 1.000000
  outer loop
   vertex -2.311790 -182.116394 81.525879
   vertex 3.944229 -184.993805 81.525879
   vertex 3.962234 -184.872498 81.525879
  endloop
 endfacet
 facet normal 0.000000 0.000000 1.000000
  outer loop
   vertex 3.992043 -184.753494 81.525879
   vertex -2.311790 -182.116394 81.525879
   vertex 3.962234 -184.872498 81.525879
  endloop
 endfacet
 facet normal 0.000000 0.000000 1.000000
  outer loop
   vertex 3.992043 -184.753494 81.525879
   vertex 4.033363 -184.638000 81.525879
   vertex -2.311790 -182.116394 81.525879
  endloop
 endfacet
 facet normal 0.000000 0.000000 1.000000
  outer loop
   vertex -2.311790 -182.116394 81.525879
   vertex 4.033363 -184.638000 81.525879
   vertex 4.085815 -184.527100 81.525879
  endloop
 endfacet
 facet normal 0.000000 0.000000 1.000000
  outer loop
   vertex 4.148872 -184.421906 81.525879
   vertex -2.311790 -182.116394 81.525879
   vertex 4.085815 -184.527100 81.525879
  endloop
 endfacet
 facet normal 0.000000 0.000000 1.000000
  outer loop
   vertex 4.148872 -184.421906 81.525879
   vertex 4.221954 -184.323395 81.525879
   vertex -2.311790 -182.116394 81.525879
  endloop
 endfacet
 facet normal 0.000000 0.000000 1.000000
  outer loop
   vertex -2.311790 -182.116394 81.525879
   vertex 4.221954 -184.323395 81.525879
   vertex 4.304329 -184.232498 81.525879
  endloop
 endfacet
 facet normal 0.000000 0.000000 1.000000
  outer loop
   vertex 4.395226 -184.150101 81.525879
   vertex -2.311790 -182.116394 81.525879
   vertex 4.304329 -184.232498 81.525879
  endloop
 endfacet
 facet normal 0.000000 0.000000 1.000000
  outer loop
   vertex 4.395226 -184.150101 81.525879
   vertex 4.493752 -184.076996 81.525879
   vertex -2.311790 -182.116394 81.525879
  endloop
 endfacet
 facet normal 0.000000 0.000000 1.000000
  outer loop
   vertex -2.311790 -182.116394 81.525879
   vertex 4.493752 -184.076996 81.525879
   vertex 4.598976 -184.014008 81.525879
  endloop
 endfacet
 facet normal 0.000000 0.000000 1.000000
  outer loop
   vertex 4.709862 -183.961502 81.525879
   vertex -2.311790 -182.116394 81.525879
   vertex 4.598976 -184.014008 81.525879
  endloop
 endfacet
 facet normal 0.000000 0.000000 1.000000
  outer loop
   vertex 4.709862 -183.961502 81.525879
   vertex 4.825363 -183.920197 81.525879
   vertex -2.311790 -182.116394 81.525879
  endloop
 endfacet
 facet normal 0.000000 0.000000 1.000000
  outer loop
   vertex -2.311790 -182.116394 81.525879
   vertex 4.825363 -183.920197 81.525879
   vertex 4.944351 -183.890396 81.525879
  endloop
 endfacet
 facet normal 0.000000 0.000000 1.000000
  outer loop
   vertex 7.688210 -182.116394 81.525879
   vertex 4.944351 -183.890396 81.525879
   vertex 5.065689 -183.872406 81.525879
  endloop
 endfacet
 facet normal 0.000000 0.000000 1.000000
  outer loop
   vertex 5.188210 -183.866394 81.525879
   vertex 7.688210 -182.116394 81.525879
   vertex 5.065689 -183.872406 81.525879
  endloop
 endfacet
 facet normal 0.000000 0.000000 1.000000
  outer loop
   vertex 5.188210 -183.866394 81.525879
   vertex 5.310730 -183.872406 81.525879
   vertex 7.688210 -182.116394 81.525879
  endloop
 endfacet
 facet normal 0.000000 0.000000 1.000000
  outer loop
   vertex 7.688210 -182.116394 81.525879
   vertex 5.310730 -183.872406 81.525879
   vertex 5.432076 -183.890396 81.525879
  endloop
 endfacet
 facet normal 0.000000 0.000000 1.000000
  outer loop
   vertex 5.551071 -183.920197 81.525879
   vertex 7.688210 -182.116394 81.525879
   vertex 5.432076 -183.890396 81.525879
  endloop
 endfacet
 facet normal 0.000000 0.000000 1.000000
  outer loop
   vertex 5.551071 -183.920197 81.525879
   vertex 5.666573 -183.961502 81.525879
   vertex 7.688210 -182.116394 81.525879
  endloop
 endfacet
 facet normal 0.000000 0.000000 1.000000
  outer loop
   vertex 7.688210 -182.116394 81.525879
   vertex 5.666573 -183.961502 81.525879
   vertex 5.777466 -184.014008 81.525879
  endloop
 endfacet
 facet normal 0.000000 0.000000 1.000000
  outer loop
   vertex 5.882675 -184.076996 81.525879
   vertex 7.688210 -182.116394 81.525879
   vertex 5.777466 -184.014008 81.525879
  endloop
 endfacet
 facet normal 0.000000 0.000000 1.000000
  outer loop
   vertex 5.882675 -184.076996 81.525879
   vertex 5.981201 -184.150101 81.525879
   vertex 7.688210 -182.116394 81.525879
  endloop
 endfacet
 facet normal 0.000000 0.000000 1.000000
  outer loop
   vertex 7.688210 -182.116394 81.525879
   vertex 5.981201 -184.150101 81.525879
   vertex 6.072090 -184.232498 81.525879
  endloop
 endfacet
 facet normal 0.000000 0.000000 1.000000
  outer loop
   vertex 6.154472 -184.323395 81.525879
   vertex 7.688210 -182.116394 81.525879
   vertex 6.072090 -184.232498 81.525879
  endloop
 endfacet
 facet normal 0.000000 0.000000 1.000000
  outer loop
   vertex 6.154472 -184.323395 81.525879
   vertex 6.227554 -184.421906 81.525879
   vertex 7.688210 -182.116394 81.525879
  endloop
 endfacet
 facet normal 0.000000 0.000000 1.000000
  outer loop
   vertex 7.688210 -182.116394 81.525879
   vertex 6.227554 -184.421906 81.525879
   vertex 6.290611 -184.527100 81.525879
  endloop
 endfacet
 facet normal 0.000000 0.000000 1.000000
  outer loop
   vertex 6.343063 -184.638000 81.525879
   vertex 7.688210 -182.116394 81.525879
   vertex 6.290611 -184.527100 81.525879
  endloop
 endfacet
 facet normal 0.000000 0.000000 1.000000
  outer loop
   vertex 6.343063 -184.638000 81.525879
   vertex 6.384392 -184.753494 81.525879
   vertex 7.688210 -182.116394 81.525879
  endloop
 endfacet
 facet normal 0.000000 0.000000 1.000000
  outer loop
   vertex 7.688210 -182.116394 81.525879
   vertex 6.384392 -184.753494 81.525879
   vertex 6.414192 -184.872498 81.525879
  endloop
 endfacet
 facet normal 0.000000 0.000000 1.000000
  outer loop
   vertex 6.432190 -184.993805 81.525879
   vertex 7.688210 -182.116394 81.525879
   vertex 6.414192 -184.872498 81.525879
  endloop
 endfacet
 facet normal 0.000000 0.000000 1.000000
  outer loop
   vertex 6.432190 -184.993805 81.525879
   vertex 6.438210 -185.116394 81.525879
   vertex 7.688210 -182.116394 81.525879
  endloop
 endfacet
 facet normal 0.000000 0.000000 1.000000
  outer loop
   vertex 7.688210 -182.116394 81.525879
   vertex 6.438210 -185.116394 81.525879
   vertex 7.688210 -187.616394 81.525879
  endloop
 endfacet
 facet normal 0.000000 0.000000 1.000000
  outer loop
   vertex 7.688210 -187.616394 81.525879
   vertex 6.438210 -185.116394 81.525879
   vertex 6.432190 -185.238907 81.525879
  endloop
 endfacet
 facet normal 0.000000 0.000000 1.000000
  outer loop
   vertex 6.414192 -185.360199 81.525879
   vertex 7.688210 -187.616394 81.525879
   vertex 6.432190 -185.238907 81.525879
  endloop
 endfacet
 facet normal 0.000000 0.000000 1.000000
  outer loop
   vertex 6.414192 -185.360199 81.525879
   vertex 6.384392 -185.479202 81.525879
   vertex 7.688210 -187.616394 81.525879
  endloop
 endfacet
 facet normal 0.000000 0.000000 1.000000
  outer loop
   vertex 7.688210 -187.616394 81.525879
   vertex 6.384392 -185.479202 81.525879
   vertex 6.343063 -185.594696 81.525879
  endloop
 endfacet
 facet normal 0.000000 0.000000 1.000000
  outer loop
   vertex 6.290611 -185.705597 81.525879
   vertex 7.688210 -187.616394 81.525879
   vertex 6.343063 -185.594696 81.525879
  endloop
 endfacet
 facet normal 0.000000 0.000000 1.000000
  outer loop
   vertex 6.290611 -185.705597 81.525879
   vertex 6.227554 -185.810806 81.525879
   vertex 7.688210 -187.616394 81.525879
  endloop
 endfacet
 facet normal 0.000000 0.000000 1.000000
  outer loop
   vertex 7.688210 -187.616394 81.525879
   vertex 6.227554 -185.810806 81.525879
   vertex 6.154472 -185.909302 81.525879
  endloop
 endfacet
 facet normal 0.000000 0.000000 1.000000
  outer loop
   vertex 6.072090 -186.000198 81.525879
   vertex 7.688210 -187.616394 81.525879
   vertex 6.154472 -185.909302 81.525879
  endloop
 endfacet
 facet normal 0.000000 0.000000 1.000000
  outer loop
   vertex 6.072090 -186.000198 81.525879
   vertex 5.981201 -186.082596 81.525879
   vertex 7.688210 -187.616394 81.525879
  endloop
 endfacet
 facet normal 0.000000 0.000000 1.000000
  outer loop
   vertex 7.688210 -187.616394 81.525879
   vertex 5.981201 -186.082596 81.525879
   vertex 5.882675 -186.155701 81.525879
  endloop
 endfacet
 facet normal 0.000000 0.000000 1.000000
  outer loop
   vertex 5.777466 -186.218796 81.525879
   vertex 7.688210 -187.616394 81.525879
   vertex 5.882675 -186.155701 81.525879
  endloop
 endfacet
 facet normal 0.000000 0.000000 1.000000
  outer loop
   vertex 5.777466 -186.218796 81.525879
   vertex 5.666573 -186.271194 81.525879
   vertex 7.688210 -187.616394 81.525879
  endloop
 endfacet
 facet normal 0.000000 0.000000 1.000000
  outer loop
   vertex 7.688210 -187.616394 81.525879
   vertex 5.666573 -186.271194 81.525879
   vertex 5.551071 -186.312500 81.525879
  endloop
 endfacet
 facet normal 0.000000 0.000000 1.000000
  outer loop
   vertex 7.688210 -182.116394 81.525879
   vertex -2.311790 -182.116394 81.525879
   vertex 4.944351 -183.890396 81.525879
  endloop
 endfacet
 facet normal 0.000000 0.000000 1.000000
  outer loop
   vertex -2.311790 -187.616394 81.525879
   vertex 7.688210 -187.616394 81.525879
   vertex 4.944351 -186.342300 81.525879
  endloop
 endfacet
 facet normal 0.000000 1.000000 0.000000
  outer loop
   vertex -2.311790 -182.116394 81.525879
   vertex 7.688210 -182.116394 81.525879
   vertex -2.311790 -182.116394 79.510590
  endloop
 endfacet
 facet normal 0.000000 1.000000 0.000000
  outer loop
   vertex -2.311790 -182.116394 79.510590
   vertex 7.688210 -182.116394 81.525879
   vertex 7.688210 -182.116394 75.344574
  endloop
 endfacet
 facet normal 0.000000 1.000000 0.000000
  outer loop
   vertex -2.311790 -182.116394 75.344574
   vertex -2.311790 -182.116394 79.510590
   vertex 7.688210 -182.116394 75.344574
  endloop
 endfacet
 facet normal 0.000000 -1.000000 0.000000
  outer loop
   vertex -2.311790 -187.616394 75.344574
   vertex 7.688210 -187.616394 75.344574
   vertex -2.311790 -187.616394 76.906387
  endloop
 endfacet
 facet normal 0.000000 -1.000000 0.000000
  outer loop
   vertex -2.311790 -187.616394 76.906387
   vertex 7.688210 -187.616394 75.344574
   vertex 7.688210 -187.616394 81.525879
  endloop
 endfacet
 facet normal 0.000000 -1.000000 0.000000
  outer loop
   vertex -2.311790 -187.616394 81.525879
   vertex -2.311790 -187.616394 76.906387
   vertex 7.688210 -187.616394 81.525879
  endloop
 endfacet
 facet normal 1.000000 0.000000 0.000000
  outer loop
   vertex 7.688210 -182.116394 81.525879
   vertex 7.688210 -187.616394 81.525879
   vertex 7.688210 -182.116394 75.344574
  endloop
 endfacet
 facet normal 1.000000 0.000000 0.000000
  outer loop
   vertex 7.688210 -182.116394 75.344574
   vertex 7.688210 -187.616394 81.525879
   vertex 7.688210 -187.616394 75.344574
  endloop
 endfacet
 facet normal 1.000000 0.000000 0.000000
  outer loop
   vertex -2.311790 -182.116394 79.510590
   vertex -2.311790 -182.116394 75.344574
   vertex -2.311790 -180.970795 79.500374
  endloop
 endfacet
 facet normal 1.000000 0.000000 0.000000
  outer loop
   vertex -2.311790 -180.970795 79.500374
   vertex -2.311790 -182.116394 75.344574
   vertex -2.311790 -179.837997 79.330254
  endloop
 endfacet
 facet normal 1.000000 0.000000 0.000000
  outer loop
   vertex -2.311790 -179.837997 79.330254
   vertex -2.311790 -182.116394 75.344574
   vertex -2.311790 -178.740005 79.003563
  endloop
 endfacet
 facet normal 1.000000 0.000000 0.000000
  outer loop
   vertex -2.311790 -178.740005 79.003563
   vertex -2.311790 -182.116394 75.344574
   vertex -2.311790 -177.698395 78.526711
  endloop
 endfacet
 facet normal 1.000000 0.000000 0.000000
  outer loop
   vertex -2.311790 -177.698395 78.526711
   vertex -2.311790 -182.116394 75.344574
   vertex -2.311790 -176.733597 77.909042
  endloop
 endfacet
 facet normal 1.000000 0.000000 0.000000
  outer loop
   vertex -2.311790 -176.733597 77.909042
   vertex -2.311790 -182.116394 75.344574
   vertex -2.311790 -175.864502 77.162666
  endloop
 endfacet
 facet normal 1.000000 0.000000 0.000000
  outer loop
   vertex -2.311790 -175.864502 77.162666
   vertex -2.311790 -182.116394 75.344574
   vertex -2.311790 -175.108200 76.302223
  endloop
 endfacet
 facet normal 1.000000 0.000000 0.000000
  outer loop
   vertex -2.311790 -175.108200 76.302223
   vertex -2.311790 -182.116394 75.344574
   vertex -2.311790 -174.479599 75.344574
  endloop
 endfacet
 facet normal 1.000000 0.000000 0.000000
  outer loop
   vertex -2.311790 -187.616394 76.906387
   vertex -2.311790 -188.231003 76.159149
   vertex -2.311790 -187.616394 75.344574
  endloop
 endfacet
 facet normal 1.000000 0.000000 0.000000
  outer loop
   vertex -2.311790 -187.616394 75.344574
   vertex -2.311790 -188.231003 76.159149
   vertex -2.311790 -188.753098 75.344574
  endloop
 endfacet
 facet normal 0.000000 0.000000 -1.000000
  outer loop
   vertex 5.065689 -186.360306 75.344574
   vertex 5.188210 -186.366394 75.344574
   vertex 7.688210 -187.616394 75.344574
  endloop
 endfacet
 facet normal 0.000000 0.000000 -1.000000
  outer loop
   vertex 4.944351 -186.342300 75.344574
   vertex 7.688210 -187.616394 75.344574
   vertex -2.311790 -187.616394 75.344574
  endloop
 endfacet
 facet normal 0.000000 0.000000 -1.000000
  outer loop
   vertex 4.825363 -186.312500 75.344574
   vertex -2.311790 -187.616394 75.344574
   vertex 4.709862 -186.271194 75.344574
  endloop
 endfacet
 facet normal 0.000000 0.000000 -1.000000
  outer loop
   vertex 4.825363 -186.312500 75.344574
   vertex 4.944351 -186.342300 75.344574
   vertex -2.311790 -187.616394 75.344574
  endloop
 endfacet
 facet normal 0.000000 0.000000 -1.000000
  outer loop
   vertex 5.188210 -186.366394 75.344574
   vertex 5.310730 -186.360306 75.344574
   vertex 7.688210 -187.616394 75.344574
  endloop
 endfacet
 facet normal 0.000000 0.000000 -1.000000
  outer loop
   vertex 7.688210 -187.616394 75.344574
   vertex 5.310730 -186.360306 75.344574
   vertex 5.432076 -186.342300 75.344574
  endloop
 endfacet
 facet normal 0.000000 0.000000 -1.000000
  outer loop
   vertex 5.551071 -186.312500 75.344574
   vertex 7.688210 -187.616394 75.344574
   vertex 5.432076 -186.342300 75.344574
  endloop
 endfacet
 facet normal 0.000000 0.000000 -1.000000
  outer loop
   vertex 5.551071 -186.312500 75.344574
   vertex 5.666573 -186.271194 75.344574
   vertex 7.688210 -187.616394 75.344574
  endloop
 endfacet
 facet normal 0.000000 0.000000 -1.000000
  outer loop
   vertex 7.688210 -187.616394 75.344574
   vertex 5.666573 -186.271194 75.344574
   vertex 5.777466 -186.218796 75.344574
  endloop
 endfacet
 facet normal 0.000000 0.000000 -1.000000
  outer loop
   vertex 5.882675 -186.155701 75.344574
   vertex 7.688210 -187.616394 75.344574
   vertex 5.777466 -186.218796 75.344574
  endloop
 endfacet
 facet normal 0.000000 0.000000 -1.000000
  outer loop
   vertex 5.882675 -186.155701 75.344574
   vertex 5.981201 -186.082596 75.344574
   vertex 7.688210 -187.616394 75.344574
  endloop
 endfacet
 facet normal 0.000000 0.000000 -1.000000
  outer loop
   vertex 7.688210 -187.616394 75.344574
   vertex 5.981201 -186.082596 75.344574
   vertex 6.072090 -186.000198 75.344574
  endloop
 endfacet
 facet normal 0.000000 0.000000 -1.000000
  outer loop
   vertex 6.154472 -185.909302 75.344574
   vertex 7.688210 -187.616394 75.344574
   vertex 6.072090 -186.000198 75.344574
  endloop
 endfacet
 facet normal 0.000000 0.000000 -1.000000
  outer loop
   vertex 6.154472 -185.909302 75.344574
   vertex 6.227554 -185.810806 75.344574
   vertex 7.688210 -187.616394 75.344574
  endloop
 endfacet
 facet normal 0.000000 0.000000 -1.000000
  outer loop
   vertex 7.688210 -187.616394 75.344574
   vertex 6.227554 -185.810806 75.344574
   vertex 6.290611 -185.705597 75.344574
  endloop
 endfacet
 facet normal 0.000000 0.000000 -1.000000
  outer loop
   vertex 6.343063 -185.594696 75.344574
   vertex 7.688210 -187.616394 75.344574
   vertex 6.290611 -185.705597 75.344574
  endloop
 endfacet
 facet normal 0.000000 0.000000 -1.000000
  outer loop
   vertex 6.343063 -185.594696 75.344574
   vertex 6.384392 -185.479202 75.344574
   vertex 7.688210 -187.616394 75.344574
  endloop
 endfacet
 facet normal 0.000000 0.000000 -1.000000
  outer loop
   vertex 7.688210 -187.616394 75.344574
   vertex 6.384392 -185.479202 75.344574
   vertex 6.414192 -185.360199 75.344574
  endloop
 endfacet
 facet normal 0.000000 0.000000 -1.000000
  outer loop
   vertex 6.432190 -185.238907 75.344574
   vertex 7.688210 -187.616394 75.344574
   vertex 6.414192 -185.360199 75.344574
  endloop
 endfacet
 facet normal 0.000000 0.000000 -1.000000
  outer loop
   vertex 6.432190 -185.238907 75.344574
   vertex 6.438210 -185.116394 75.344574
   vertex 7.688210 -187.616394 75.344574
  endloop
 endfacet
 facet normal 0.000000 0.000000 -1.000000
  outer loop
   vertex 7.688210 -187.616394 75.344574
   vertex 6.438210 -185.116394 75.344574
   vertex 6.432190 -184.993805 75.344574
  endloop
 endfacet
 facet normal 0.000000 0.000000 -1.000000
  outer loop
   vertex 7.688210 -182.116394 75.344574
   vertex 6.432190 -184.993805 75.344574
   vertex 6.414192 -184.872498 75.344574
  endloop
 endfacet
 facet normal 0.000000 0.000000 -1.000000
  outer loop
   vertex 6.384392 -184.753494 75.344574
   vertex 7.688210 -182.116394 75.344574
   vertex 6.414192 -184.872498 75.344574
  endloop
 endfacet
 facet normal 0.000000 0.000000 -1.000000
  outer loop
   vertex 6.384392 -184.753494 75.344574
   vertex 6.343063 -184.638000 75.344574
   vertex 7.688210 -182.116394 75.344574
  endloop
 endfacet
 facet normal 0.000000 0.000000 -1.000000
  outer loop
   vertex 7.688210 -182.116394 75.344574
   vertex 6.343063 -184.638000 75.344574
   vertex 6.290611 -184.527100 75.344574
  endloop
 endfacet
 facet normal 0.000000 0.000000 -1.000000
  outer loop
   vertex 6.227554 -184.421906 75.344574
   vertex 7.688210 -182.116394 75.344574
   vertex 6.290611 -184.527100 75.344574
  endloop
 endfacet
 facet normal 0.000000 0.000000 -1.000000
  outer loop
   vertex 6.227554 -184.421906 75.344574
   vertex 6.154472 -184.323395 75.344574
   vertex 7.688210 -182.116394 75.344574
  endloop
 endfacet
 facet normal 0.000000 0.000000 -1.000000
  outer loop
   vertex 7.688210 -182.116394 75.344574
   vertex 6.154472 -184.323395 75.344574
   vertex 6.072090 -184.232498 75.344574
  endloop
 endfacet
 facet normal 0.000000 0.000000 -1.000000
  outer loop
   vertex 5.981201 -184.150101 75.344574
   vertex 7.688210 -182.116394 75.344574
   vertex 6.072090 -184.232498 75.344574
  endloop
 endfacet
 facet normal 0.000000 0.000000 -1.000000
  outer loop
   vertex 5.981201 -184.150101 75.344574
   vertex 5.882675 -184.076996 75.344574
   vertex 7.688210 -182.116394 75.344574
  endloop
 endfacet
 facet normal 0.000000 0.000000 -1.000000
  outer loop
   vertex 7.688210 -182.116394 75.344574
   vertex 5.882675 -184.076996 75.344574
   vertex 5.777466 -184.014008 75.344574
  endloop
 endfacet
 facet normal 0.000000 0.000000 -1.000000
  outer loop
   vertex 5.666573 -183.961502 75.344574
   vertex 7.688210 -182.116394 75.344574
   vertex 5.777466 -184.014008 75.344574
  endloop
 endfacet
 facet normal 0.000000 0.000000 -1.000000
  outer loop
   vertex 5.666573 -183.961502 75.344574
   vertex 5.551071 -183.920197 75.344574
   vertex 7.688210 -182.116394 75.344574
  endloop
 endfacet
 facet normal 0.000000 0.000000 -1.000000
  outer loop
   vertex 7.688210 -182.116394 75.344574
   vertex 5.551071 -183.920197 75.344574
   vertex 5.432076 -183.890396 75.344574
  endloop
 endfacet
 facet normal 0.000000 0.000000 -1.000000
  outer loop
   vertex 5.310730 -183.872406 75.344574
   vertex 7.688210 -182.116394 75.344574
   vertex 5.432076 -183.890396 75.344574
  endloop
 endfacet
 facet normal 0.000000 0.000000 -1.000000
  outer loop
   vertex 5.310730 -183.872406 75.344574
   vertex 5.188210 -183.866394 75.344574
   vertex 7.688210 -182.116394 75.344574
  endloop
 endfacet
 facet normal 0.000000 0.000000 -1.000000
  outer loop
   vertex 7.688210 -182.116394 75.344574
   vertex 5.188210 -183.866394 75.344574
   vertex 5.065689 -183.872406 75.344574
  endloop
 endfacet
 facet normal 0.000000 0.000000 -1.000000
  outer loop
   vertex 4.944351 -183.890396 75.344574
   vertex 7.688210 -182.116394 75.344574
   vertex 5.065689 -183.872406 75.344574
  endloop
 endfacet
 facet normal 0.000000 0.000000 -1.000000
  outer loop
   vertex 4.944351 -183.890396 75.344574
   vertex -2.311790 -182.116394 75.344574
   vertex 7.688210 -182.116394 75.344574
  endloop
 endfacet
 facet normal 0.000000 0.000000 -1.000000
  outer loop
   vertex 4.944351 -183.890396 75.344574
   vertex 4.825363 -183.920197 75.344574
   vertex -2.311790 -182.116394 75.344574
  endloop
 endfacet
 facet normal 0.000000 0.000000 -1.000000
  outer loop
   vertex -2.311790 -182.116394 75.344574
   vertex 4.825363 -183.920197 75.344574
   vertex 4.709862 -183.961502 75.344574
  endloop
 endfacet
 facet normal 0.000000 0.000000 -1.000000
  outer loop
   vertex 4.598976 -184.014008 75.344574
   vertex -2.311790 -182.116394 75.344574
   vertex 4.709862 -183.961502 75.344574
  endloop
 endfacet
 facet normal 0.000000 0.000000 -1.000000
  outer loop
   vertex 4.598976 -184.014008 75.344574
   vertex 4.493752 -184.076996 75.344574
   vertex -2.311790 -182.116394 75.344574
  endloop
 endfacet
 facet normal 0.000000 0.000000 -1.000000
  outer loop
   vertex -2.311790 -182.116394 75.344574
   vertex 4.493752 -184.076996 75.344574
   vertex 4.395226 -184.150101 75.344574
  endloop
 endfacet
 facet normal 0.000000 0.000000 -1.000000
  outer loop
   vertex 4.304329 -184.232498 75.344574
   vertex -2.311790 -182.116394 75.344574
   vertex 4.395226 -184.150101 75.344574
  endloop
 endfacet
 facet normal 0.000000 0.000000 -1.000000
  outer loop
   vertex 4.304329 -184.232498 75.344574
   vertex 4.221954 -184.323395 75.344574
   vertex -2.311790 -182.116394 75.344574
  endloop
 endfacet
 facet normal 0.000000 0.000000 -1.000000
  outer loop
   vertex -2.311790 -182.116394 75.344574
   vertex 4.221954 -184.323395 75.344574
   vertex 4.148872 -184.421906 75.344574
  endloop
 endfacet
 facet normal 0.000000 0.000000 -1.000000
  outer loop
   vertex 4.085815 -184.527100 75.344574
   vertex -2.311790 -182.116394 75.344574
   vertex 4.148872 -184.421906 75.344574
  endloop
 endfacet
 facet normal 0.000000 0.000000 -1.000000
  outer loop
   vertex 4.085815 -184.527100 75.344574
   vertex 4.033363 -184.638000 75.344574
   vertex -2.311790 -182.116394 75.344574
  endloop
 endfacet
 facet normal 0.000000 0.000000 -1.000000
  outer loop
   vertex -2.311790 -182.116394 75.344574
   vertex 4.033363 -184.638000 75.344574
   vertex 3.992043 -184.753494 75.344574
  endloop
 endfacet
 facet normal 0.000000 0.000000 -1.000000
  outer loop
   vertex 3.962234 -184.872498 75.344574
   vertex -2.311790 -182.116394 75.344574
   vertex 3.992043 -184.753494 75.344574
  endloop
 endfacet
 facet normal 0.000000 0.000000 -1.000000
  outer loop
   vertex 3.962234 -184.872498 75.344574
   vertex 3.944229 -184.993805 75.344574
   vertex -2.311790 -182.116394 75.344574
  endloop
 endfacet
 facet normal 0.000000 0.000000 -1.000000
  outer loop
   vertex -2.311790 -182.116394 75.344574
   vertex 3.944229 -184.993805 75.344574
   vertex -2.311790 -187.616394 75.344574
  endloop
 endfacet
 facet normal -0.000001 0.000000 -1.000000
  outer loop
   vertex -18.172989 -186.214294 75.344582
   vertex -2.311790 -187.616394 75.344574
   vertex -17.225449 -187.841797 75.344582
  endloop
 endfacet
 facet normal 0.000000 0.000000 -1.000000
  outer loop
   vertex -18.172989 -186.214294 75.344582
   vertex -2.311790 -182.116394 75.344574
   vertex -2.311790 -187.616394 75.344574
  endloop
 endfacet
 facet normal 0.000000 0.000000 -1.000000
  outer loop
   vertex -18.172989 -186.214294 75.344582
   vertex -18.909569 -184.786499 75.344582
   vertex -2.311790 -182.116394 75.344574
  endloop
 endfacet
 facet normal 0.000000 0.000000 -1.000000
  outer loop
   vertex -2.311790 -182.116394 75.344574
   vertex -18.909569 -184.786499 75.344582
   vertex -19.337898 -183.772797 75.344582
  endloop
 endfacet
 facet normal 0.000000 0.000000 -1.000000
  outer loop
   vertex -19.590965 -182.966797 75.344582
   vertex -2.311790 -182.116394 75.344574
   vertex -19.337898 -183.772797 75.344582
  endloop
 endfacet
 facet normal 0.000000 0.000000 -1.000000
  outer loop
   vertex -19.590965 -182.966797 75.344582
   vertex -19.725746 -182.270493 75.344582
   vertex -2.311790 -182.116394 75.344574
  endloop
 endfacet
 facet normal 0.000000 0.000000 -1.000000
  outer loop
   vertex -2.311790 -182.116394 75.344574
   vertex -19.725746 -182.270493 75.344582
   vertex -19.768616 -181.621201 75.344582
  endloop
 endfacet
 facet normal 0.000000 0.000000 -1.000000
  outer loop
   vertex -19.727028 -180.972198 75.344582
   vertex -2.311790 -182.116394 75.344574
   vertex -19.768616 -181.621201 75.344582
  endloop
 endfacet
 facet normal 0.000000 0.000000 -1.000000
  outer loop
   vertex -19.727028 -180.972198 75.344582
   vertex -19.593750 -180.276901 75.344582
   vertex -2.311790 -182.116394 75.344574
  endloop
 endfacet
 facet normal 0.000000 0.000000 -1.000000
  outer loop
   vertex -2.311790 -182.116394 75.344574
   vertex -19.593750 -180.276901 75.344582
   vertex -19.342751 -179.473099 75.344582
  endloop
 endfacet
 facet normal 0.000000 0.000000 -1.000000
  outer loop
   vertex -18.917557 -178.463394 75.344582
   vertex -2.311790 -182.116394 75.344574
   vertex -19.342751 -179.473099 75.344582
  endloop
 endfacet
 facet normal 0.000000 0.000000 -1.000000
  outer loop
   vertex -18.917557 -178.463394 75.344582
   vertex -18.186249 -177.042603 75.344582
   vertex -2.311790 -182.116394 75.344574
  endloop
 endfacet
 facet normal 0.000000 0.000000 -1.000000
  outer loop
   vertex -2.311790 -182.116394 75.344574
   vertex -18.186249 -177.042603 75.344582
   vertex -2.311790 -174.479599 75.344574
  endloop
 endfacet
 facet normal -0.000001 0.000000 -1.000000
  outer loop
   vertex -2.311790 -174.479599 75.344574
   vertex -18.186249 -177.042603 75.344582
   vertex -17.225449 -175.390900 75.344582
  endloop
 endfacet
 facet normal 0.000000 0.000000 -1.000000
  outer loop
   vertex 3.944229 -184.993805 75.344574
   vertex 3.938210 -185.116394 75.344574
   vertex -2.311790 -187.616394 75.344574
  endloop
 endfacet
 facet normal 0.000000 0.000000 -1.000000
  outer loop
   vertex -2.311790 -187.616394 75.344574
   vertex 3.938210 -185.116394 75.344574
   vertex 3.944229 -185.238907 75.344574
  endloop
 endfacet
 facet normal 0.000000 0.000000 -1.000000
  outer loop
   vertex 3.962234 -185.360199 75.344574
   vertex -2.311790 -187.616394 75.344574
   vertex 3.944229 -185.238907 75.344574
  endloop
 endfacet
 facet normal 0.000000 0.000000 -1.000000
  outer loop
   vertex 3.962234 -185.360199 75.344574
   vertex 3.992043 -185.479202 75.344574
   vertex -2.311790 -187.616394 75.344574
  endloop
 endfacet
 facet normal 0.000000 0.000000 -1.000000
  outer loop
   vertex -2.311790 -187.616394 75.344574
   vertex 3.992043 -185.479202 75.344574
   vertex 4.033363 -185.594696 75.344574
  endloop
 endfacet
 facet normal 0.000000 0.000000 -1.000000
  outer loop
   vertex 4.085815 -185.705597 75.344574
   vertex -2.311790 -187.616394 75.344574
   vertex 4.033363 -185.594696 75.344574
  endloop
 endfacet
 facet normal 0.000000 0.000000 -1.000000
  outer loop
   vertex 4.085815 -185.705597 75.344574
   vertex 4.148872 -185.810806 75.344574
   vertex -2.311790 -187.616394 75.344574
  endloop
 endfacet
 facet normal 0.000000 0.000000 -1.000000
  outer loop
   vertex -2.311790 -187.616394 75.344574
   vertex 4.148872 -185.810806 75.344574
   vertex 4.221954 -185.909302 75.344574
  endloop
 endfacet
 facet normal 0.000000 0.000000 -1.000000
  outer loop
   vertex 4.304329 -186.000198 75.344574
   vertex -2.311790 -187.616394 75.344574
   vertex 4.221954 -185.909302 75.344574
  endloop
 endfacet
 facet normal 0.000000 0.000000 -1.000000
  outer loop
   vertex 4.304329 -186.000198 75.344574
   vertex 4.395226 -186.082596 75.344574
   vertex -2.311790 -187.616394 75.344574
  endloop
 endfacet
 facet normal 0.000000 0.000000 -1.000000
  outer loop
   vertex -2.311790 -187.616394 75.344574
   vertex 4.395226 -186.082596 75.344574
   vertex 4.493752 -186.155701 75.344574
  endloop
 endfacet
 facet normal 0.000000 0.000000 -1.000000
  outer loop
   vertex 4.598976 -186.218796 75.344574
   vertex -2.311790 -187.616394 75.344574
   vertex 4.493752 -186.155701 75.344574
  endloop
 endfacet
 facet normal 0.000000 0.000000 -1.000000
  outer loop
   vertex 4.598976 -186.218796 75.344574
   vertex 4.709862 -186.271194 75.344574
   vertex -2.311790 -187.616394 75.344574
  endloop
 endfacet
 facet normal 0.000000 0.000000 -1.000000
  outer loop
   vertex 4.944351 -186.342300 75.344574
   vertex 5.065689 -186.360306 75.344574
   vertex 7.688210 -187.616394 75.344574
  endloop
 endfacet
 facet normal -0.000001 0.000000 -1.000000
  outer loop
   vertex -2.311790 -188.753098 75.344574
   vertex -17.225449 -187.841797 75.344582
   vertex -2.311790 -187.616394 75.344574
  endloop
 endfacet
 facet normal 0.000000 0.000000 -1.000000
  outer loop
   vertex 7.688210 -182.116394 75.344574
   vertex 7.688210 -187.616394 75.344574
   vertex 6.432190 -184.993805 75.344574
  endloop
 endfacet
 facet normal -0.051016 0.834902 0.548030
  outer loop
   vertex -2.311790 -174.479599 75.344574
   vertex -17.225449 -175.390900 75.344582
   vertex -2.311790 -175.108200 76.302223
  endloop
 endfacet
 facet normal -0.053218 0.804759 0.591211
  outer loop
   vertex -2.311790 -175.108200 76.302223
   vertex -17.225449 -175.390900 75.344582
   vertex -17.225449 -175.938004 76.089302
  endloop
 endfacet
 facet normal -0.053012 0.724788 0.686930
  outer loop
   vertex -2.311790 -175.864502 77.162666
   vertex -17.225449 -175.938004 76.089302
   vertex -17.225449 -176.573700 76.760033
  endloop
 endfacet
 facet normal -0.052678 0.633556 0.771902
  outer loop
   vertex -2.311790 -176.733597 77.909042
   vertex -17.225449 -176.573700 76.760033
   vertex -17.225449 -177.287994 77.346306
  endloop
 endfacet
 facet normal -0.052216 0.532465 0.844840
  outer loop
   vertex -2.311790 -177.698395 78.526711
   vertex -17.225449 -177.287994 77.346306
   vertex -17.225449 -178.069702 77.838982
  endloop
 endfacet
 facet normal -0.052247 0.422974 0.904635
  outer loop
   vertex -17.225449 -178.906799 78.230377
   vertex -2.311790 -177.698395 78.526711
   vertex -17.225449 -178.069702 77.838982
  endloop
 endfacet
 facet normal -0.051725 0.415699 0.908030
  outer loop
   vertex -17.225449 -178.906799 78.230377
   vertex -2.311790 -178.740005 79.003563
   vertex -2.311790 -177.698395 78.526711
  endloop
 endfacet
 facet normal -0.052699 0.306905 0.950280
  outer loop
   vertex -17.225449 -178.906799 78.230377
   vertex -17.225449 -179.786194 78.514389
   vertex -2.311790 -178.740005 79.003563
  endloop
 endfacet
 facet normal -0.051376 0.284803 0.957209
  outer loop
   vertex -2.311790 -178.740005 79.003563
   vertex -17.225449 -179.786194 78.514389
   vertex -2.311790 -179.837997 79.330254
  endloop
 endfacet
 facet normal -0.053026 0.186077 0.981103
  outer loop
   vertex -2.311790 -179.837997 79.330254
   vertex -17.225449 -179.786194 78.514389
   vertex -17.225449 -180.694107 78.686584
  endloop
 endfacet
 facet normal -0.053226 0.062352 0.996634
  outer loop
   vertex -2.311790 -180.970795 79.500374
   vertex -17.225449 -180.694107 78.686584
   vertex -17.225449 -181.616394 78.744286
  endloop
 endfacet
 facet normal -0.053300 -0.062357 0.996630
  outer loop
   vertex -2.311790 -182.116394 79.510590
   vertex -17.225449 -181.616394 78.744286
   vertex -17.225449 -182.538605 78.686584
  endloop
 endfacet
 facet normal -0.053038 -0.186080 0.981102
  outer loop
   vertex -2.311790 -182.890900 79.425995
   vertex -17.225449 -182.538605 78.686584
   vertex -17.225449 -183.446503 78.514389
  endloop
 endfacet
 facet normal -0.052319 -0.294444 0.954236
  outer loop
   vertex -2.311790 -183.653793 79.268120
   vertex -17.225449 -183.446503 78.514389
   vertex -2.311790 -184.398300 79.038391
  endloop
 endfacet
 facet normal -0.052236 -0.202372 0.977915
  outer loop
   vertex -2.311790 -183.653793 79.268120
   vertex -2.311790 -182.890900 79.425995
   vertex -17.225449 -183.446503 78.514389
  endloop
 endfacet
 facet normal -0.052975 -0.306901 0.950266
  outer loop
   vertex -17.225449 -183.446503 78.514389
   vertex -17.225449 -184.325897 78.230377
   vertex -2.311790 -184.398300 79.038391
  endloop
 endfacet
 facet normal -0.051812 -0.383928 0.921908
  outer loop
   vertex -2.311790 -184.398300 79.038391
   vertex -17.225449 -184.325897 78.230377
   vertex -2.311790 -185.117493 78.738884
  endloop
 endfacet
 facet normal -0.053293 -0.422950 0.904584
  outer loop
   vertex -2.311790 -185.117493 78.738884
   vertex -17.225449 -184.325897 78.230377
   vertex -17.225449 -185.162994 77.838982
  endloop
 endfacet
 facet normal -0.053131 -0.532439 0.844799
  outer loop
   vertex -2.311790 -185.804993 78.372314
   vertex -17.225449 -185.162994 77.838982
   vertex -17.225449 -185.944702 77.346306
  endloop
 endfacet
 facet normal -0.052482 -0.628234 0.776252
  outer loop
   vertex -2.311790 -186.454498 77.942024
   vertex -17.225449 -185.944702 77.346306
   vertex -2.311790 -187.060104 77.451897
  endloop
 endfacet
 facet normal -0.052108 -0.551536 0.832522
  outer loop
   vertex -2.311790 -186.454498 77.942024
   vertex -2.311790 -185.804993 78.372314
   vertex -17.225449 -185.944702 77.346306
  endloop
 endfacet
 facet normal -0.052849 -0.633550 0.771895
  outer loop
   vertex -17.225449 -185.944702 77.346306
   vertex -17.225449 -186.658997 76.760033
   vertex -2.311790 -187.060104 77.451897
  endloop
 endfacet
 facet normal -0.051884 -0.699212 0.713030
  outer loop
   vertex -2.311790 -187.060104 77.451897
   vertex -17.225449 -186.658997 76.760033
   vertex -2.311790 -187.616394 76.906387
  endloop
 endfacet
 facet normal -0.053269 -0.724778 0.686921
  outer loop
   vertex -2.311790 -187.616394 76.906387
   vertex -17.225449 -186.658997 76.760033
   vertex -17.225449 -187.294693 76.089302
  endloop
 endfacet
 facet normal -0.053293 -0.804756 0.591209
  outer loop
   vertex -2.311790 -188.231003 76.159149
   vertex -17.225449 -187.294693 76.089302
   vertex -17.225449 -187.841797 75.344582
  endloop
 endfacet
 facet normal -0.051377 -0.840800 0.538903
  outer loop
   vertex -2.311790 -188.753098 75.344574
   vertex -2.311790 -188.231003 76.159149
   vertex -17.225449 -187.841797 75.344582
  endloop
 endfacet
 facet normal -0.051395 -0.771297 0.634397
  outer loop
   vertex -2.311790 -188.231003 76.159149
   vertex -2.311790 -187.616394 76.906387
   vertex -17.225449 -187.294693 76.089302
  endloop
 endfacet
 facet normal -0.051740 -0.469861 0.881223
  outer loop
   vertex -2.311790 -185.804993 78.372314
   vertex -2.311790 -185.117493 78.738884
   vertex -17.225449 -185.162994 77.838982
  endloop
 endfacet
 facet normal -0.051782 -0.108433 0.992754
  outer loop
   vertex -2.311790 -182.890900 79.425995
   vertex -2.311790 -182.116394 79.510590
   vertex -17.225449 -182.538605 78.686584
  endloop
 endfacet
 facet normal -0.051015 0.008905 0.998658
  outer loop
   vertex -2.311790 -182.116394 79.510590
   vertex -2.311790 -180.970795 79.500374
   vertex -17.225449 -181.616394 78.744286
  endloop
 endfacet
 facet normal -0.051139 0.148317 0.987617
  outer loop
   vertex -2.311790 -180.970795 79.500374
   vertex -2.311790 -179.837997 79.330254
   vertex -17.225449 -180.694107 78.686584
  endloop
 endfacet
 facet normal -0.051752 0.538454 0.841065
  outer loop
   vertex -2.311790 -177.698395 78.526711
   vertex -2.311790 -176.733597 77.909042
   vertex -17.225449 -177.287994 77.346306
  endloop
 endfacet
 facet normal -0.051395 0.650653 0.757634
  outer loop
   vertex -2.311790 -176.733597 77.909042
   vertex -2.311790 -175.864502 77.162666
   vertex -17.225449 -176.573700 76.760033
  endloop
 endfacet
 facet normal -0.051150 0.750115 0.659327
  outer loop
   vertex -2.311790 -175.864502 77.162666
   vertex -2.311790 -175.108200 76.302223
   vertex -17.225449 -175.938004 76.089302
  endloop
 endfacet
endsolid JacktheRipperBot-Toolhead-1-GripperMoving-1
